SplineFontDB: 3.2
FontName: MFEKglifIconFont
FullName: MFEKglifIconFont
FamilyName: MFEKglifIconFont
Weight: Book
Copyright: Copyright (c) 2020, Fredrick R. Brennan. Most icons contributed in SVG format by Eli Heuer.
Version: 001.000
ItalicAngle: 0
UnderlinePosition: -100
UnderlineWidth: 50
Ascent: 800
Descent: 200
InvalidEm: 0
sfntRevision: 0x00010000
LayerCount: 2
Layer: 0 1 "Back" 1
Layer: 1 1 "Fore" 0
XUID: [1021 640 1538074639 10126076]
StyleMap: 0x0000
FSType: 0
OS2Version: 4
OS2_WeightWidthSlopeOnly: 0
OS2_UseTypoMetrics: 1
CreationTime: 1599609708
ModificationTime: 1619835183
PfmFamily: 17
TTFWeight: 400
TTFWidth: 5
LineGap: 90
VLineGap: 0
Panose: 2 0 5 9 0 0 0 0 0 0
OS2TypoAscent: 800
OS2TypoAOffset: 0
OS2TypoDescent: -200
OS2TypoDOffset: 0
OS2TypoLinegap: 90
OS2WinAscent: 666
OS2WinAOffset: 0
OS2WinDescent: 239
OS2WinDOffset: 0
HheadAscent: 666
HheadAOffset: 0
HheadDescent: -239
HheadDOffset: 0
OS2SubXSize: 650
OS2SubYSize: 700
OS2SubXOff: 0
OS2SubYOff: 140
OS2SupXSize: 650
OS2SupYSize: 700
OS2SupXOff: 0
OS2SupYOff: 480
OS2StrikeYSize: 49
OS2StrikeYPos: 258
OS2Vendor: 'PfEd'
OS2CodePages: 80000001.00000000
OS2UnicodeRanges: 00000000.10000000.00000000.00000000
MarkAttachClasses: 1
DEI: 91125
ShortTable: cvt  2
  33
  633
EndShort
ShortTable: maxp 16
  1
  0
  12
  147
  9
  0
  0
  2
  0
  1
  1
  0
  64
  0
  0
  0
EndShort
LangName: 1033 "" "" "Regular"
GaspTable: 1 65535 2 0
Encoding: Custom
Compacted: 1
UnicodeInterp: none
NameList: AGL For New Fonts
DisplaySize: -48
AntiAlias: 1
FitToEm: 0
WinInfo: 0 21 7
BeginPrivate: 0
EndPrivate
Grid
-1000 261.078125 m 0
 2000 261.078125 l 1024
  Named: "venn top"
EndSplineSet
AnchorClass2: "theclass"""  "bottom""" 
BeginChars: 28 28

StartChar: knife
Encoding: 0 61440 0
Width: 700
Flags: W
LayerCount: 2
Fore
SplineSet
428 430 m 2,0,-1
 429 430 l 2,1,2
 435 430 435 430 440 425 c 128,-1,3
 445 420 445 420 445 414 c 2,4,-1
 445 48 l 2,5,6
 445 41 445 41 440 37 c 2,7,-1
 429 25 l 1,8,-1
 429 23 l 1,9,-1
 456 -4 l 2,10,11
 461 -9 461 -9 461 -16 c 2,12,-1
 461 -47 l 1,13,14
 467 -47 467 -47 472 -52 c 128,-1,15
 477 -57 477 -57 477 -63 c 2,16,-1
 477 -159 l 2,17,18
 477 -160 477 -160 476 -162 c 2,19,20
 476 -162 476 -162 476 -163 c 128,-1,21
 476 -164 476 -164 475.5 -164.5 c 128,-1,22
 475 -165 475 -165 474.5 -166 c 128,-1,23
 474 -167 474 -167 474 -167 c 2,24,25
 469 -175 469 -175 461 -175 c 2,26,-1
 453 -175 l 1,27,-1
 453 -222 l 2,28,29
 453 -229 453 -229 448 -233.5 c 128,-1,30
 443 -238 443 -238 437 -238 c 2,31,-1
 254 -238 l 2,32,33
 247 -238 247 -238 242.5 -233.5 c 128,-1,34
 238 -229 238 -229 238 -222 c 2,35,-1
 238 -175 l 1,36,37
 231 -175 231 -175 226.5 -170 c 128,-1,38
 222 -165 222 -165 222 -159 c 2,39,-1
 222 -63 l 2,40,41
 222 -62 222 -62 222 -61 c 256,42,43
 222 -60 222 -60 222.5 -59 c 128,-1,44
 223 -58 223 -58 223 -57.5 c 128,-1,45
 223 -57 223 -57 223.5 -56 c 128,-1,46
 224 -55 224 -55 225 -55 c 0,47,48
 229 -47 229 -47 238 -47 c 1,49,-1
 238 -16 l 2,50,51
 238 -9 238 -9 243 -4 c 2,52,-1
 269 22 l 1,53,-1
 247 34 l 2,54,55
 238 38 238 38 238 48 c 2,56,-1
 238 207 l 2,57,58
 238 213 238 213 242 217 c 2,59,-1
 417 424 l 2,60,61
 421 430 421 430 428 430 c 2,0,-1
413 370 m 1,62,-1
 270 201 l 1,63,-1
 270 171 l 1,64,-1
 413 340 l 1,65,-1
 413 370 l 1,62,-1
413 291 m 1,66,-1
 270 122 l 1,67,-1
 270 58 l 1,68,-1
 293 46 l 2,69,70
 302 42 302 42 302 32 c 1,71,-1
 397 32 l 1,72,73
 397 39 397 39 402 43 c 2,74,-1
 413 55 l 1,75,-1
 413 291 l 1,66,-1
292 0 m 1,76,-1
 270 -22 l 1,77,-1
 270 -47 l 1,78,-1
 317 -47 l 1,79,-1
 317 0 l 1,80,-1
 292 0 l 1,76,-1
349 0 m 1,81,-1
 349 -47 l 1,82,-1
 429 -47 l 1,83,-1
 429 -22 l 1,84,-1
 406 0 l 1,85,-1
 349 0 l 1,81,-1
254 -79 m 1,86,-1
 254 -143 l 1,87,-1
 286 -143 l 1,88,-1
 286 -79 l 1,89,-1
 254 -79 l 1,86,-1
317 -79 m 1,90,-1
 317 -143 l 1,91,-1
 381 -143 l 1,92,-1
 381 -79 l 1,93,-1
 317 -79 l 1,90,-1
413 -79 m 1,94,-1
 413 -143 l 1,95,-1
 445 -143 l 1,96,-1
 445 -79 l 1,97,-1
 444 -79 l 1,98,-1
 413 -79 l 1,94,-1
270 -175 m 1,99,-1
 270 -207 l 1,100,-1
 421 -207 l 1,101,-1
 421 -175 l 1,102,-1
 270 -175 l 1,99,-1
EndSplineSet
EndChar

StartChar: measure
Encoding: 1 61441 1
Width: 700
Flags: W
LayerCount: 2
Fore
SplineSet
366 429 m 2,0,-1
 513 429 l 2,1,2
 520 429 520 429 524.5 424.5 c 128,-1,3
 529 420 529 420 529 413 c 2,4,-1
 529 -222 l 2,5,6
 529 -228 529 -228 524.5 -233 c 128,-1,7
 520 -238 520 -238 513 -238 c 2,8,-1
 187 -238 l 2,9,10
 181 -238 181 -238 176 -233 c 128,-1,11
 171 -228 171 -228 171 -222 c 2,12,-1
 171 -91 l 2,13,14
 171 -85 171 -85 176 -80 c 128,-1,15
 181 -75 181 -75 187 -75 c 2,16,-1
 349 -75 l 1,17,-1
 349 413 l 2,18,19
 349 420 349 420 354 424.5 c 128,-1,20
 359 429 359 429 366 429 c 2,0,-1
382 397 m 1,21,-1
 382 348 l 1,22,23
 382 348 382 348 383 348 c 2,24,-1
 416 348 l 2,25,26
 423 348 423 348 427.5 343.5 c 128,-1,27
 432 339 432 339 432 332 c 128,-1,28
 432 325 432 325 427.5 320 c 128,-1,29
 423 315 423 315 416 315 c 2,30,-1
 383 315 l 2,31,32
 382 315 382 315 382 316 c 1,33,-1
 382 250 l 1,34,35
 382 250 382 250 383 250 c 2,36,-1
 416 250 l 2,37,38
 423 250 423 250 427.5 245.5 c 128,-1,39
 432 241 432 241 432 234 c 128,-1,40
 432 227 432 227 427.5 222.5 c 128,-1,41
 423 218 423 218 416 218 c 2,42,-1
 383 218 l 2,43,44
 382 218 382 218 382 218 c 1,45,-1
 382 153 l 1,46,47
 382 153 382 153 383 153 c 2,48,-1
 416 153 l 2,49,50
 423 153 423 153 427.5 148 c 128,-1,51
 432 143 432 143 432 136.5 c 128,-1,52
 432 130 432 130 427.5 125 c 128,-1,53
 423 120 423 120 416 120 c 2,54,-1
 383 120 l 2,55,56
 382 120 382 120 382 120 c 1,57,-1
 382 55 l 1,58,59
 382 55 382 55 383 55 c 2,60,-1
 416 55 l 2,61,62
 423 55 423 55 427.5 50 c 128,-1,63
 432 45 432 45 432 38.5 c 128,-1,64
 432 32 432 32 427.5 27 c 128,-1,65
 423 22 423 22 416 22 c 2,66,-1
 383 22 l 2,67,68
 382 22 382 22 382 22 c 1,69,-1
 382 -43 l 1,70,71
 382 -43 382 -43 383 -43 c 2,72,-1
 416 -43 l 2,73,74
 423 -43 423 -43 427.5 -47.5 c 128,-1,75
 432 -52 432 -52 432 -59 c 128,-1,76
 432 -66 432 -66 427.5 -70.5 c 128,-1,77
 423 -75 423 -75 416 -75 c 2,78,-1
 383 -75 l 2,79,80
 382 -75 382 -75 382 -75 c 1,81,-1
 382 -91 l 2,82,83
 382 -98 382 -98 377 -103 c 128,-1,84
 372 -108 372 -108 366 -108 c 2,85,-1
 301 -108 l 1,86,-1
 301 -141 l 2,87,88
 301 -148 301 -148 296.5 -152.5 c 128,-1,89
 292 -157 292 -157 285 -157 c 128,-1,90
 278 -157 278 -157 273.5 -152.5 c 128,-1,91
 269 -148 269 -148 269 -141 c 2,92,-1
 269 -108 l 1,93,-1
 204 -108 l 1,94,-1
 204 -205 l 1,95,-1
 497 -205 l 1,96,-1
 497 397 l 1,97,-1
 382 397 l 1,21,-1
EndSplineSet
EndChar

StartChar: pan
Encoding: 2 61442 2
Width: 700
Flags: W
LayerCount: 2
Fore
SplineSet
354 429 m 2,0,-1
 358 429 l 2,1,2
 370 429 370 429 377 427 c 0,3,4
 391 423 391 423 399 409.5 c 128,-1,5
 407 396 407 396 410 372 c 1,6,7
 425 381 425 381 438 381 c 0,8,9
 449 381 449 381 460.5 373.5 c 128,-1,10
 472 366 472 366 479 352 c 0,11,12
 488 334 488 334 492 295 c 1,13,14
 502 299 502 299 512 299 c 0,15,16
 539 299 539 299 552 279 c 0,17,18
 561 264 561 264 561 234 c 2,19,-1
 561 14 l 2,20,21
 561 12 561 12 561 10 c 2,22,-1
 529 -110 l 1,23,-1
 529 -222 l 2,24,25
 529 -228 529 -228 524 -233 c 128,-1,26
 519 -238 519 -238 512 -238 c 2,27,-1
 260 -238 l 2,28,29
 253 -238 253 -238 248.5 -233 c 128,-1,30
 244 -228 244 -228 244 -222 c 2,31,-1
 244 -113 l 1,32,-1
 158 -4 l 2,33,34
 155 0 155 0 154 5 c 2,35,-1
 138 200 l 2,36,37
 137 208 137 208 143 213 c 0,38,39
 158 228 158 228 178.5 230.5 c 128,-1,40
 199 233 199 233 214 224 c 0,41,42
 215 224 215 224 217 222.5 c 128,-1,43
 219 221 219 221 219 220 c 1,44,-1
 219 234 l 1,45,46
 219 234 219 234 219 235 c 2,47,-1
 219 299 l 2,48,49
 219 348 219 348 242 368 c 0,50,51
 256 381 256 381 276 381 c 0,52,53
 288 381 288 381 304 373 c 1,54,55
 308 396 308 396 316 409.5 c 128,-1,56
 324 423 324 423 338 427 c 0,57,58
 345 429 345 429 354 429 c 2,0,-1
358 397 m 0,59,60
 350 397 350 397 347.5 396 c 128,-1,61
 345 395 345 395 343 392 c 0,62,63
 333 376 333 376 333 315 c 2,64,-1
 333 136 l 2,65,66
 333 130 333 130 328.5 125 c 128,-1,67
 324 120 324 120 317 120 c 128,-1,68
 310 120 310 120 305.5 125 c 128,-1,69
 301 130 301 130 301 136 c 2,70,-1
 301 316 l 2,71,72
 301 338 301 338 291 345 c 0,73,74
 286 348 286 348 276 348 c 0,75,76
 268 348 268 348 264 344 c 0,77,78
 252 333 252 333 252 299 c 2,79,-1
 252 169 l 1,80,-1
 252 120 l 2,81,82
 252 113 252 113 247 108.5 c 128,-1,83
 242 104 242 104 235.5 104 c 128,-1,84
 229 104 229 104 224 108.5 c 128,-1,85
 219 113 219 113 219 120 c 2,86,-1
 219 169 l 2,87,88
 219 176 219 176 213.5 183.5 c 128,-1,89
 208 191 208 191 200 195 c 0,90,91
 185 202 185 202 171 193 c 1,92,-1
 186 12 l 1,93,-1
 273 -98 l 2,94,95
 276 -102 276 -102 276 -108 c 2,96,-1
 276 -205 l 1,97,-1
 496 -205 l 1,98,-1
 496 -108 l 2,99,100
 496 -106 496 -106 497 -104 c 2,101,-1
 529 16 l 1,102,-1
 529 234 l 2,103,104
 529 255 529 255 524 262 c 0,105,106
 521 267 521 267 512 267 c 0,107,108
 504 267 504 267 501 263 c 0,109,110
 496 257 496 257 496 240 c 0,111,112
 496 149 496 149 496 104 c 0,113,114
 496 97 496 97 491.5 92 c 128,-1,115
 487 87 487 87 480 87 c 128,-1,116
 473 87 473 87 468 92 c 128,-1,117
 463 97 463 97 464 104 c 2,118,-1
 464 241 l 2,119,120
 463 311 463 311 450 337 c 0,121,122
 446 345 446 345 444.5 346.5 c 128,-1,123
 443 348 443 348 440 348 c 0,124,125
 439 348 439 348 438 348 c 0,126,127
 429 348 429 348 423 342 c 0,128,129
 415 335 415 335 415 319 c 2,130,-1
 415 318 l 2,131,132
 415 317 415 317 415 316 c 256,133,134
 415 315 415 315 415 315 c 1,135,-1
 415 120 l 2,136,137
 415 113 415 113 410 108.5 c 128,-1,138
 405 104 405 104 398.5 104 c 128,-1,139
 392 104 392 104 387 108.5 c 128,-1,140
 382 113 382 113 382 120 c 2,141,-1
 382 316 l 2,142,143
 381 376 381 376 371 392 c 0,144,145
 369 396 369 396 367 396.5 c 128,-1,146
 365 397 365 397 358 397 c 0,59,60
EndSplineSet
EndChar

StartChar: pen
Encoding: 3 61443 3
Width: 700
Flags: W
LayerCount: 2
Fore
SplineSet
350 430 m 256,0,1
 351 430 351 430 352 430 c 2,2,-1
 395 430 l 2,3,4
 408 430 408 430 411 418 c 2,5,-1
 460 213 l 1,6,-1
 523 87 l 2,7,8
 525 84 525 84 525 80 c 0,9,10
 525 75 525 75 522 71 c 2,11,-1
 461 -20 l 1,12,-1
 461 -95 l 1,13,-1
 461 -222 l 2,14,15
 461 -223 461 -223 461 -223 c 1,16,-1
 461 -224 l 1,17,18
 461 -224 461 -224 461 -225 c 0,19,20
 459 -238 459 -238 445 -238 c 2,21,-1
 255 -238 l 2,22,23
 250 -238 250 -238 247 -236 c 0,24,25
 246 -236 246 -236 246 -236 c 1,26,27
 239 -231 239 -231 239 -222 c 2,28,-1
 239 -95 l 1,29,30
 239 -95 239 -95 239 -94 c 2,31,-1
 239 -20 l 1,32,-1
 178 71 l 2,33,34
 175 75 175 75 175 80 c 0,35,36
 175 84 175 84 177 87 c 2,37,-1
 239 212 l 1,38,-1
 287 417 l 2,39,40
 290 430 290 430 302 430 c 2,41,-1
 348 430 l 2,42,43
 349 430 349 430 350 430 c 256,0,1
315 398 m 1,44,-1
 270 204 l 2,45,46
 270 202 270 202 269 200 c 2,47,-1
 209 81 l 1,48,-1
 268 -7 l 2,49,50
 270 -11 270 -11 270 -16 c 2,51,-1
 270 -79 l 1,52,-1
 430 -79 l 1,53,-1
 430 -16 l 2,54,55
 430 -11 430 -11 432 -7 c 2,56,-1
 491 81 l 1,57,-1
 431 200 l 2,58,59
 430 202 430 202 430 203 c 2,60,-1
 383 398 l 1,61,-1
 366 398 l 1,62,-1
 366 91 l 1,63,64
 382 82 382 82 382 64 c 0,65,66
 382 51 382 51 372.5 41.5 c 128,-1,67
 363 32 363 32 350 32 c 128,-1,68
 337 32 337 32 327.5 41.5 c 128,-1,69
 318 51 318 51 318 64 c 0,70,71
 318 82 318 82 334 91 c 1,72,-1
 334 398 l 1,73,-1
 315 398 l 1,44,-1
270 -111 m 1,74,-1
 270 -207 l 1,75,-1
 430 -207 l 1,76,-1
 430 -111 l 1,77,-1
 270 -111 l 1,74,-1
EndSplineSet
EndChar

StartChar: pencil
Encoding: 4 61444 4
Width: 700
Flags: W
LayerCount: 2
Fore
SplineSet
351 414 m 0,0,1
 359 414 359 414 364 407 c 2,2,-1
 519 147 l 2,3,4
 521 143 521 143 521 139 c 2,5,-1
 521 130 l 2,6,7
 522 127 522 127 521 125 c 2,8,-1
 521 -223 l 2,9,10
 521 -229 521 -229 516.5 -233.5 c 128,-1,11
 512 -238 512 -238 506 -238 c 2,12,-1
 195 -238 l 2,13,14
 188 -238 188 -238 183.5 -233.5 c 128,-1,15
 179 -229 179 -229 179 -223 c 2,16,-1
 179 124 l 2,17,18
 179 127 179 127 179 130 c 2,19,-1
 179 139 l 2,20,21
 179 143 179 143 181 147 c 2,22,-1
 337 407 l 2,23,24
 342 415 342 415 351 414 c 0,0,1
266 228 m 1,25,-1
 210 135 l 1,26,-1
 210 133 l 1,27,-1
 264 79 l 1,28,-1
 339 161 l 2,29,30
 344 166 344 166 351 166 c 0,31,32
 357 165 357 165 362 161 c 2,33,-1
 436 79 l 1,34,-1
 490 133 l 1,35,-1
 490 135 l 1,36,-1
 434 228 l 1,37,-1
 266 228 l 1,25,-1
350 127 m 1,38,-1
 280 51 l 1,39,-1
 280 -207 l 1,40,-1
 420 -207 l 1,41,-1
 420 51 l 1,42,-1
 350 127 l 1,38,-1
490 89 m 1,43,-1
 451 50 l 1,44,-1
 451 -207 l 1,45,-1
 490 -207 l 1,46,-1
 490 89 l 1,43,-1
210 89 m 1,47,-1
 210 -207 l 1,48,-1
 249 -207 l 1,49,-1
 249 50 l 1,50,-1
 210 89 l 1,47,-1
EndSplineSet
EndChar

StartChar: select
Encoding: 5 61445 5
Width: 700
Flags: W
LayerCount: 2
Fore
SplineSet
179 428 m 0,0,1
 187 428 187 428 192 422 c 2,2,-1
 533 63 l 2,3,4
 541 55 541 55 536.5 44 c 128,-1,5
 532 33 532 33 520 33 c 2,6,-1
 409 33 l 1,7,8
 427 5 427 5 463 -52 c 128,-1,9
 499 -109 499 -109 517 -137 c 0,10,11
 521 -144 521 -144 519 -151 c 0,12,13
 518 -158 518 -158 511 -162 c 2,14,-1
 385 -234 l 2,15,16
 378 -238 378 -238 370.5 -235.5 c 128,-1,17
 363 -233 363 -233 360 -225 c 2,18,-1
 280 -35 l 1,19,-1
 192 -123 l 2,20,21
 183 -132 183 -132 172 -127.5 c 128,-1,22
 161 -123 161 -123 161 -111 c 2,23,-1
 161 410 l 2,24,25
 161 422 161 422 172 426 c 0,26,27
 175 428 175 428 179 428 c 0,0,1
197 365 m 1,28,-1
 197 -67 l 1,29,-1
 274 10 l 2,30,31
 281 16 281 16 290 14.5 c 128,-1,32
 299 13 299 13 303 4 c 2,33,-1
 385 -193 l 1,34,-1
 477 -140 l 1,35,-1
 361 41 l 2,36,37
 356 50 356 50 361 59 c 0,38,39
 366 69 366 69 376 69 c 2,40,-1
 478 69 l 1,41,-1
 197 365 l 1,28,-1
EndSplineSet
EndChar

StartChar: shapes
Encoding: 6 61446 6
Width: 700
Flags: W
LayerCount: 2
Fore
SplineSet
242 428 m 2,0,-1
 566 428 l 2,1,2
 595 428 595 428 616 407 c 128,-1,3
 637 386 637 386 637 356 c 2,4,-1
 637 33 l 2,5,6
 637 3 637 3 616 -18 c 128,-1,7
 595 -39 595 -39 566 -39 c 2,8,-1
 527 -39 l 1,9,10
 514 -123 514 -123 448.5 -179.5 c 128,-1,11
 383 -236 383 -236 296 -236 c 0,12,13
 200 -236 200 -236 131.5 -167.5 c 128,-1,14
 63 -99 63 -99 63 -3 c 0,15,16
 63 58 63 58 92 110 c 128,-1,17
 121 162 121 162 171 194 c 1,18,-1
 171 356 l 2,19,20
 171 386 171 386 192 407 c 128,-1,21
 213 428 213 428 242 428 c 2,0,-1
242 392 m 2,22,23
 227 392 227 392 217 381.5 c 128,-1,24
 207 371 207 371 207 356 c 2,25,-1
 207 212 l 1,26,27
 250 230 250 230 296 230 c 0,28,29
 393 230 393 230 461.5 161.5 c 128,-1,30
 530 93 530 93 530 -3 c 1,31,-1
 566 -3 l 2,32,33
 581 -3 581 -3 591 7.5 c 128,-1,34
 601 18 601 18 601 33 c 2,35,-1
 601 356 l 2,36,37
 601 371 601 371 591 381.5 c 128,-1,38
 581 392 581 392 566 392 c 2,39,-1
 242 392 l 2,22,23
296 194 m 128,-1,41
 214 194 214 194 156.5 136.5 c 128,-1,42
 99 79 99 79 99 -3 c 128,-1,43
 99 -85 99 -85 156.5 -142.5 c 128,-1,44
 214 -200 214 -200 296 -200 c 0,45,46
 374 -200 374 -200 430 -148 c 128,-1,47
 486 -96 486 -96 493 -20 c 1,48,-1
 493 -19 l 2,49,50
 494 -11 494 -11 494 -3 c 0,51,52
 494 79 494 79 436 136.5 c 128,-1,40
 378 194 378 194 296 194 c 128,-1,41
EndSplineSet
EndChar

StartChar: text
Encoding: 7 61447 7
Width: 700
Flags: W
LayerCount: 2
Fore
SplineSet
114 429 m 2,0,-1
 586 429 l 2,1,2
 600 429 600 429 602 416 c 2,3,-1
 635 204 l 2,4,5
 635 203 635 203 635 202 c 0,6,7
 635 195 635 195 630 190 c 128,-1,8
 625 185 625 185 618 185 c 2,9,-1
 570 185 l 2,10,11
 559 185 559 185 555 195 c 2,12,-1
 494 332 l 1,13,-1
 423 332 l 1,14,-1
 423 -134 l 1,15,-1
 432 -143 l 1,16,-1
 511 -174 l 2,17,18
 521 -178 521 -178 521 -189 c 2,19,-1
 521 -222 l 2,20,21
 521 -228 521 -228 516 -233 c 128,-1,22
 511 -238 511 -238 505 -238 c 2,23,-1
 195 -238 l 2,24,25
 188 -238 188 -238 183.5 -233 c 128,-1,26
 179 -228 179 -228 179 -222 c 2,27,-1
 179 -189 l 2,28,29
 179 -178 179 -178 189 -174 c 2,30,-1
 267 -143 l 1,31,-1
 277 -134 l 1,32,-1
 277 332 l 1,33,-1
 206 332 l 1,34,-1
 145 195 l 2,35,36
 141 185 141 185 130 185 c 2,37,-1
 81 185 l 2,38,39
 75 185 75 185 70 190 c 128,-1,40
 65 195 65 195 65 202 c 0,41,42
 65 203 65 203 65 204 c 2,43,-1
 98 416 l 2,44,45
 100 429 100 429 114 429 c 2,0,-1
128 397 m 1,46,-1
 100 218 l 1,47,-1
 120 218 l 1,48,-1
 180 355 l 2,49,50
 185 364 185 364 195 364 c 2,51,-1
 293 364 l 2,52,53
 300 364 300 364 304.5 359.5 c 128,-1,54
 309 355 309 355 309 348 c 2,55,-1
 309 -140 l 2,56,57
 309 -147 309 -147 304 -152 c 2,58,-1
 288 -168 l 2,59,60
 286 -170 286 -170 283 -172 c 2,61,-1
 212 -200 l 1,62,-1
 212 -205 l 1,63,-1
 488 -205 l 1,64,-1
 488 -200 l 1,65,-1
 417 -172 l 2,66,67
 414 -170 414 -170 412 -168 c 2,68,-1
 395 -152 l 2,69,70
 391 -147 391 -147 391 -140 c 2,71,-1
 391 348 l 2,72,73
 391 355 391 355 395.5 359.5 c 128,-1,74
 400 364 400 364 407 364 c 2,75,-1
 505 364 l 2,76,77
 515 364 515 364 519 355 c 2,78,-1
 580 218 l 1,79,-1
 600 218 l 1,80,-1
 572 397 l 1,81,-1
 128 397 l 1,46,-1
EndSplineSet
EndChar

StartChar: zoom
Encoding: 8 61448 8
Width: 700
Flags: W
LayerCount: 2
Fore
SplineSet
350 381 m 128,-1,1
 404 381 404 381 442 342.5 c 128,-1,2
 480 304 480 304 480 250.5 c 128,-1,3
 480 197 480 197 442 158.5 c 128,-1,4
 404 120 404 120 350 120 c 128,-1,5
 296 120 296 120 258 158.5 c 128,-1,6
 220 197 220 197 220 250.5 c 128,-1,7
 220 304 220 304 258 342.5 c 128,-1,0
 296 381 296 381 350 381 c 128,-1,1
350 348 m 128,-1,9
 309 348 309 348 280.5 319.5 c 128,-1,10
 252 291 252 291 252 250.5 c 128,-1,11
 252 210 252 210 280.5 181.5 c 128,-1,12
 309 153 309 153 350 153 c 128,-1,13
 391 153 391 153 419.5 181.5 c 128,-1,14
 448 210 448 210 448 250.5 c 128,-1,15
 448 291 448 291 419.5 319.5 c 128,-1,8
 391 348 391 348 350 348 c 128,-1,9
318 267 m 1,16,-1
 383 267 l 2,17,18
 390 267 390 267 394.5 262 c 128,-1,19
 399 257 399 257 399 250.5 c 128,-1,20
 399 244 399 244 394.5 239 c 128,-1,21
 390 234 390 234 383 234 c 2,22,-1
 318 234 l 1,23,-1
 317 234 l 2,24,25
 311 234 311 234 306 239 c 128,-1,26
 301 244 301 244 301 250.5 c 128,-1,27
 301 257 301 257 306 262 c 128,-1,28
 311 267 311 267 317 267 c 2,29,-1
 318 267 l 1,16,-1
350 299 m 256,30,31
 357 299 357 299 361.5 294.5 c 128,-1,32
 366 290 366 290 366 283 c 2,33,-1
 366 218 l 2,34,35
 366 211 366 211 361.5 206 c 128,-1,36
 357 201 357 201 350 201 c 128,-1,37
 343 201 343 201 338.5 206 c 128,-1,38
 334 211 334 211 334 218 c 2,39,-1
 334 283 l 2,40,41
 334 290 334 290 338.5 294.5 c 128,-1,42
 343 299 343 299 350 299 c 256,30,31
350 429 m 128,-1,44
 424 429 424 429 476.5 376.5 c 128,-1,45
 529 324 529 324 529 250 c 128,-1,46
 529 176 529 176 476.5 123.5 c 128,-1,47
 424 71 424 71 350 71 c 128,-1,48
 276 71 276 71 223.5 123.5 c 128,-1,49
 171 176 171 176 171 250 c 128,-1,50
 171 324 171 324 223.5 376.5 c 128,-1,43
 276 429 276 429 350 429 c 128,-1,44
350 397 m 128,-1,52
 289 397 289 397 246.5 354 c 128,-1,53
 204 311 204 311 204 250.5 c 128,-1,54
 204 190 204 190 246.5 147 c 128,-1,55
 289 104 289 104 350 104 c 128,-1,56
 411 104 411 104 454 147 c 128,-1,57
 497 190 497 190 497 250.5 c 128,-1,58
 497 311 497 311 454 354 c 128,-1,51
 411 397 411 397 350 397 c 128,-1,52
318 55 m 2,59,-1
 383 55 l 2,60,61
 403 55 403 55 417 40.5 c 128,-1,62
 431 26 431 26 431 6 c 2,63,-1
 431 -189 l 2,64,65
 431 -209 431 -209 417 -223.5 c 128,-1,66
 403 -238 403 -238 383 -238 c 2,67,-1
 318 -238 l 2,68,69
 297 -238 297 -238 283 -223.5 c 128,-1,70
 269 -209 269 -209 269 -189 c 2,71,-1
 269 6 l 2,72,73
 269 26 269 26 283 40.5 c 128,-1,74
 297 55 297 55 318 55 c 2,59,-1
318 22 m 2,75,76
 311 22 311 22 306 17.5 c 128,-1,77
 301 13 301 13 301 6 c 2,78,-1
 301 -189 l 2,79,80
 301 -196 301 -196 306 -200.5 c 128,-1,81
 311 -205 311 -205 318 -205 c 2,82,-1
 383 -205 l 2,83,84
 390 -205 390 -205 394.5 -200.5 c 128,-1,85
 399 -196 399 -196 399 -189 c 2,86,-1
 399 6 l 2,87,88
 399 13 399 13 394.5 17.5 c 128,-1,89
 390 22 390 22 383 22 c 2,90,-1
 318 22 l 2,75,76
317 27 m 1,91,-1
 317 148 l 1,92,-1
 383 148 l 1,93,-1
 383 27 l 1,94,-1
 317 27 l 1,91,-1
EndSplineSet
EndChar

StartChar: vws
Encoding: 9 61449 9
Width: 700
Flags: W
LayerCount: 2
Fore
SplineSet
93.9522416684 -26.8776498425 m 1,0,-1
 93.9762934316 -25.1529178895 l 2,1,2
 93.9762934316 -24.8193344482 93.9762934316 -24.8193344482 93.9507941937 -24.6250071293 c 0,3,4
 93.9507941937 36.6710024865 93.9507941937 36.6710024865 126.219390175 113.695017806 c 0,5,6
 158.818334657 192.758668979 158.818334657 192.758668979 199.489748983 249.474596881 c 0,7,8
 240.418519133 308.025907312 240.418519133 308.025907312 309.289546678 357.367772964 c 128,-1,9
 378.160574223 406.709638616 378.160574223 406.709638616 443.411826579 406.709638616 c 2,10,-1
 443.844510683 406.709638616 l 2,11,12
 519.683486611 406.709638616 519.683486611 406.709638616 566.655575581 345.489523205 c 128,-1,13
 613.627664551 284.269407794 613.627664551 284.269407794 613.627664551 208.073514032 c 0,14,15
 613.63454269 207.120233178 613.63454269 207.120233178 613.63454269 206.162383894 c 0,16,17
 613.63454269 147.894610661 613.63454269 147.894610661 587.73046049 71.3804698298 c 128,-1,18
 561.82637829 -5.13367100123 561.82637829 -5.13367100123 528.180265869 -66.8182104398 c 128,-1,19
 494.534153448 -128.502749878 494.534153448 -128.502749878 432.788716587 -181.499835364 c 0,20,21
 370.390803054 -236.106447385 370.390803054 -236.106447385 306.128304584 -236.222648806 c 0,22,23
 211.543660507 -236.108353288 211.543660507 -236.108353288 153.554203613 -179.29310893 c 0,24,25
 93.9522416684 -121.665257298 93.9522416684 -121.665257298 93.9522416684 -26.8776498425 c 1,0,-1
443.870117188 369.88671875 m 0,26,27
 403.157902393 369.88671875 403.157902393 369.88671875 361.682256297 336.517406197 c 128,-1,28
 320.206610201 303.148093643 320.206610201 303.148093643 294.420413928 262.28201623 c 128,-1,29
 268.634217655 221.415938817 268.634217655 221.415938817 248.921507058 168.714786612 c 0,30,31
 228.282150495 116.109183951 228.282150495 116.109183951 218.876012294 66.1643065919 c 0,32,33
 207.627929688 9.88900888174 207.627929688 9.88900888174 207.627929688 -22.5768411565 c 128,-1,34
 207.627929688 -55.0426911948 207.627929688 -55.0426911948 212.933716664 -80.6085685829 c 128,-1,35
 218.23950364 -106.174445971 218.23950364 -106.174445971 228.506192453 -130.451223957 c 128,-1,36
 238.772881266 -154.728001944 238.772881266 -154.728001944 259.844293347 -170.420641597 c 128,-1,37
 280.915705427 -186.11328125 280.915705427 -186.11328125 306.140625 -186.11328125 c 0,38,39
 356.829357244 -186.11328125 356.829357244 -186.11328125 409.14299981 -139.623175182 c 0,40,41
 463.764519239 -91.7115054391 463.764519239 -91.7115054391 495.127219206 -36.3352736329 c 128,-1,42
 526.489919174 19.0409581733 526.489919174 19.0409581733 551.903594102 90.4680919554 c 0,43,44
 575.640072881 155.687842553 575.640072881 155.687842553 576.000240788 208.070058095 c 0,45,46
 575.646270633 270.610099273 575.646270633 270.610099273 538.753743519 321.309687636 c 0,47,48
 502.606534754 369.88671875 502.606534754 369.88671875 443.870117188 369.88671875 c 0,26,27
EndSplineSet
EndChar

StartChar: anchor
Encoding: 10 61450 10
Width: 700
LayerCount: 2
Fore
SplineSet
349.870117188 323.369140625 m 128,-1,1
 366.322265625 323.369140625 366.322265625 323.369140625 377.939453125 334.978515625 c 128,-1,2
 389.556640625 346.59375 389.556640625 346.59375 389.559570312 363.00390625 c 128,-1,3
 389.5625 379.502929688 389.5625 379.502929688 377.966796875 391.098632812 c 128,-1,4
 366.37109375 402.693359375 366.37109375 402.693359375 349.991210938 402.693359375 c 128,-1,5
 333.577148438 402.693359375 333.577148438 402.693359375 321.990234375 391.083007812 c 128,-1,6
 310.404296875 379.47265625 310.404296875 379.47265625 310.404296875 362.989257812 c 128,-1,7
 310.404296875 346.629882812 310.404296875 346.629882812 322 335 c 128,-1,0
 333.595703125 323.369140625 333.595703125 323.369140625 349.870117188 323.369140625 c 128,-1,1
461 217 m 2,8,9
 474 217 474 217 482 210 c 0,10,11
 491 202 491 202 491 192 c 128,-1,12
 491 182 491 182 482 174 c 128,-1,13
 473 166 473 166 461 166 c 2,14,-1
 389.729207253 166 l 1,15,-1
 389.614257812 -158.020507812 l 1,16,17
 442 -148 442 -148 483.008789062 -112.279296875 c 0,18,19
 524 -77 524 -77 541.387695312 -26.861328125 c 1,20,-1
 516.944335938 -18.7421875 l 2,21,22
 515 -18 515 -18 509.356445312 -14.751953125 c 0,23,24
 498 -6 498 -6 497.970703125 8.01171875 c 0,25,26
 498 20 498 20 503.40625 24.70703125 c 0,27,28
 505 26 505 26 507.956054688 29.5791015625 c 2,29,-1
 605.276367188 120.936523438 l 2,30,31
 615 130 615 130 625.016601562 129.546875 c 0,32,33
 635 130 635 130 641.852539062 123.366210938 c 0,34,35
 649.669568981 116.298746395 649.669568981 116.298746395 651.022460938 107.8671875 c 2,36,-1
 672.147460938 -23.7890625 l 2,37,38
 673 -29 673 -29 672.883789062 -30.2138671875 c 0,39,40
 673 -42 673 -42 664.608398438 -50.361328125 c 0,41,42
 657 -58 657 -58 644.66015625 -58.626953125 c 0,43,44
 641.151344482 -58.9845748153 641.151344482 -58.9845748153 636.287109375 -57.3671875 c 2,45,-1
 613.466796875 -49.779296875 l 1,46,47
 586 -134 586 -134 513.5 -187.178710938 c 0,48,49
 441 -240 441 -240 350.17578125 -240.48046875 c 0,50,51
 259 -240 259 -240 186.8984375 -187.217773438 c 0,52,53
 115 -134 115 -134 86.9130859375 -49.955078125 c 1,54,-1
 64.0224609375 -57.388671875 l 2,55,56
 43 -64 43 -64 32.7490234375 -50.3330078125 c 4,57,58
 25.6321708022 -39.4368397132 25.6321708022 -39.4368397132 28.140625 -23.7890625 c 2,59,-1
 49.24609375 107.8671875 l 2,60,61
 51 117 51 117 58.3935546875 123.356445312 c 0,62,63
 66 130 66 130 75.42578125 129.5390625 c 0,64,65
 85.2749007188 130.013234714 85.2749007188 130.013234714 95.0126953125 120.880859375 c 2,66,-1
 192.3671875 29.5791015625 l 2,67,68
 196 26 196 26 196.862304688 24.7001953125 c 0,69,70
 204 15 204 15 202.120117188 3.7900390625 c 0,71,72
 200 -10 200 -10 190.982421875 -14.751953125 c 0,73,74
 180 -20 180 -20 158.705078125 -26.875 c 1,75,76
 177 -78 177 -78 218.837890625 -113.424804688 c 0,77,78
 261 -149 261 -149 314.8046875 -158.69921875 c 1,79,-1
 314.689677895 166 l 1,80,-1
 239 166 l 2,81,82
 227 166 227 166 218 174 c 128,-1,83
 209 182 209 182 209 192 c 128,-1,84
 209 202 209 202 218 210 c 0,85,86
 226 217 226 217 239 217 c 2,87,-1
 314.671613516 217 l 1,88,-1
 314.651367188 274.16015625 l 1,89,90
 288 285 288 285 271.845703125 309.538085938 c 0,91,92
 255 334 255 334 255.381835938 362.989257812 c 0,93,94
 255 403 255 403 283.66015625 431.260742188 c 0,95,96
 312 460 312 460 351.841796875 459.51953125 c 0,97,98
 392 460 392 460 420.12109375 431.279296875 c 0,99,100
 448 403 448 403 448.357421875 363.00390625 c 0,101,102
 448 333 448 333 432.22265625 309.38671875 c 0,103,104
 416 285 416 285 389.767578125 274.16015625 c 1,105,-1
 389.747300001 217 l 1,106,-1
 461 217 l 2,8,9
EndSplineSet
EndChar

StartChar: pap
Encoding: 11 61451 11
Width: 700
Flags: W
LayerCount: 2
Back
SplineSet
208.74609375 102.28515625 m 261,0,-1
 233.612304688 186.25 l 261,1,-1
 233.43359375 191.958007812 l 5,2,-1
 228.6875 195.685546875 l 5,3,-1
 140.00390625 221.169921875 l 261,4,-1
 133 219.83203125 l 5,5,-1
 127.625 213.505859375 l 5,6,-1
 95.005859375 104.209960938 l 261,7,-1
 96.3349609375 97.310546875 l 5,8,-1
 101.94921875 94.470703125 l 261,9,-1
 198.530273438 94.359375 l 261,10,-1
 205.135742188 96.69140625 l 5,11,-1
 208.74609375 102.28515625 l 261,0,-1
214.229492188 182.780273438 m 261,12,-1
 192.952148438 110.763671875 l 261,13,-1
 114.356445312 113.392578125 l 261,14,-1
 139.967773438 199.76953125 l 261,15,-1
 214.229492188 182.780273438 l 261,12,-1
163.60546875 151.895507812 m 261,16,-1
 180.618164062 199.877929688 l 261,17,-1
 135.751953125 211.416015625 l 261,18,-1
 116.620117188 157.499023438 l 261,19,-1
 163.60546875 151.895507812 l 261,16,-1
200.026367188 102.43359375 m 261,20,-1
 210.590820312 146.291992188 l 261,21,-1
 163.60546875 151.895507812 l 261,22,-1
 151.875976562 103.248046875 l 261,23,-1
 200.026367188 102.43359375 l 261,20,-1
239.978515625 200.399414062 m 261,24,-1
 285.93359375 268.619140625 l 261,25,-1
 287.733398438 273.818359375 l 5,26,-1
 285.201171875 279.283203125 l 5,27,-1
 222.46484375 341.685546875 l 261,28,-1
 215.853515625 343.120117188 l 5,29,-1
 208.185546875 338.627929688 l 5,30,-1
 136.592773438 233.432617188 l 261,31,-1
 135.696289062 225.682617188 l 5,32,-1
 140.00390625 221.169921875 l 261,33,-1
 228.6875 195.685546875 l 261,34,-1
 235.314453125 196.138671875 l 5,35,-1
 239.978515625 200.399414062 l 261,24,-1
268.661132812 273.547851562 m 261,36,-1
 227.765625 212.836914062 l 261,37,-1
 157.122070312 237.83203125 l 261,38,-1
 212.405273438 319.533203125 l 261,39,-1
 268.661132812 273.547851562 l 261,36,-1
214.081054688 262.26171875 m 261,40,-1
 247.059570312 303.623046875 l 261,41,-1
 214.146484375 333.259765625 l 261,42,-1
 174.563476562 283.674804688 l 261,43,-1
 214.081054688 262.26171875 l 261,40,-1
232.051757812 202.931640625 m 261,44,-1
 253.599609375 240.848632812 l 261,45,-1
 214.081054688 262.26171875 l 261,46,-1
 188.286132812 216.916015625 l 261,47,-1
 232.051757812 202.931640625 l 261,44,-1
295.947265625 278.41015625 m 261,48,-1
 357.94921875 314.290039062 l 261,49,-1
 361.870117188 317.864257812 l 5,50,-1
 363.232421875 324.297851562 l 5,51,-1
 357.133789062 418.203125 l 261,52,-1
 353.172851562 423.36328125 l 5,53,-1
 344.55078125 423.608398438 l 5,54,-1
 225.75 355.794921875 l 261,55,-1
 221.047851562 348.12109375 l 5,56,-1
 222.46484375 341.685546875 l 5,57,-1
 285.201171875 279.283203125 l 261,58,-1
 290.713867188 276.733398438 l 5,59,-1
 295.947265625 278.41015625 l 261,48,-1
349.146484375 328.959960938 m 261,60,-1
 290.999023438 295.375 l 261,61,-1
 245.204101562 351.543945312 l 261,62,-1
 335.59765625 403.427734375 l 261,63,-1
 349.146484375 328.959960938 l 261,60,-1
303.559570312 348.4609375 m 261,64,-1
 351.25 368.94921875 l 261,65,-1
 345.579101562 415.2265625 l 261,66,-1
 284.508789062 389.034179688 l 261,67,-1
 303.559570312 348.4609375 l 261,64,-1
290.565429688 284.34375 m 261,68,-1
 322.612304688 307.887695312 l 261,69,-1
 303.559570312 348.4609375 l 261,70,-1
 260.84765625 317.102539062 l 261,71,-1
 290.565429688 284.34375 l 261,68,-1
369.659179688 317 m 261,72,-1
 430.909179688 310.295898438 l 261,73,-1
 435.897460938 310.884765625 l 5,74,-1
 441.08203125 315.649414062 l 5,75,-1
 499.291015625 402.174804688 l 261,76,-1
 500.158203125 409.241210938 l 261,77,-1
 494.7578125 414.974609375 l 5,78,-1
 368.6328125 429.18359375 l 261,79,-1
 360.234375 424.9375 l 5,80,-1
 357.133789062 418.203125 l 5,81,-1
 363.232421875 324.297851562 l 261,82,-1
 365.377929688 318.67578125 l 5,83,-1
 369.659179688 317 l 261,72,-1
434.90625 328.858398438 m 261,84,-1
 376.359375 335.258789062 l 261,85,-1
 379.8671875 413.686523438 l 261,86,-1
 475.537109375 403.006835938 l 261,87,-1
 434.90625 328.858398438 l 261,84,-1
418.055664062 375.051757812 m 261,88,-1
 462.833984375 362.635742188 l 261,89,-1
 489.862304688 406.94921875 l 261,90,-1
 431.60546875 423.083984375 l 261,91,-1
 418.055664062 375.051757812 l 261,88,-1
369.580078125 325.6015625 m 261,92,-1
 404.505859375 327.01953125 l 261,93,-1
 418.055664062 375.051757812 l 261,94,-1
 369.146484375 373.091796875 l 261,95,-1
 369.580078125 325.6015625 l 261,92,-1
440.623046875 305.01171875 m 261,96,-1
 481.00390625 257.53125 l 261,97,-1
 485.153320312 254.819335938 l 5,98,-1
 491.754882812 256.16796875 l 5,99,-1
 584.118164062 303.995117188 l 261,100,-1
 588.897460938 309.890625 l 5,101,-1
 588.505859375 317.810546875 l 5,102,-1
 513.91796875 404.56640625 l 261,103,-1
 505.737304688 406.1328125 l 5,104,-1
 499.291015625 402.174804688 l 5,105,-1
 441.08203125 315.649414062 l 261,106,-1
 438.802734375 309.303710938 l 5,107,-1
 440.623046875 305.01171875 l 261,96,-1
494.61328125 272.83984375 m 261,108,-1
 457.225585938 316.734375 l 261,109,-1
 510.932617188 383.846679688 l 261,110,-1
 567.875976562 317.309570312 l 261,111,-1
 494.61328125 272.83984375 l 261,108,-1
511.1015625 325.688476562 m 261,112,-1
 534.754882812 287.670898438 l 261,113,-1
 580.263671875 313.188476562 l 261,114,-1
 550.918945312 360.26953125 l 261,115,-1
 511.1015625 325.688476562 l 261,112,-1
446.243164062 312.64453125 m 261,116,-1
 471.284179688 291.107421875 l 261,117,-1
 511.1015625 325.688476562 l 261,118,-1
 477.270507812 354.7890625 l 261,119,-1
 446.243164062 312.64453125 l 261,116,-1
485.571289062 245.9296875 m 261,120,-1
 495.901367188 170.814453125 l 261,121,-1
 498.36328125 165.89453125 l 5,122,-1
 504.559570312 164.513671875 l 5,123,-1
 602.573242188 177.516601562 l 261,124,-1
 608.9609375 181.328125 l 5,125,-1
 611.741210938 188.693359375 l 5,126,-1
 596.02734375 298.725585938 l 261,127,-1
 591.045898438 304.252929688 l 5,128,-1
 584.118164062 303.995117188 l 5,129,-1
 491.754882812 256.16796875 l 261,130,-1
 486.508789062 251.373046875 l 5,131,-1
 485.571289062 245.9296875 l 261,120,-1
513.709960938 181.3515625 m 261,132,-1
 504.66015625 247.372070312 l 261,133,-1
 582.046875 281.479492188 l 261,134,-1
 594.032226562 195.571289062 l 261,135,-1
 513.709960938 181.3515625 l 261,132,-1
551.270507812 227.2421875 m 261,136,-1
 553.821289062 179.75390625 l 261,137,-1
 602.858398438 187.322265625 l 261,138,-1
 599.92578125 241.551757812 l 261,139,-1
 551.270507812 227.2421875 l 261,136,-1
494.040039062 249.977539062 m 261,140,-1
 502.616210938 212.932617188 l 261,141,-1
 551.270507812 227.2421875 l 261,142,-1
 540.798828125 272.327148438 l 261,143,-1
 494.040039062 249.977539062 l 261,140,-1
495.294921875 155.77734375 m 261,144,-1
 481.274414062 69.232421875 l 261,145,-1
 482.360351562 63.5166015625 l 5,146,-1
 487.803710938 60.6533203125 l 5,147,-1
 582.345703125 51.4658203125 l 261,148,-1
 589.193359375 53.8212890625 l 5,149,-1
 593.493164062 60.4873046875 l 5,150,-1
 610.936523438 168.721679688 l 261,151,-1
 608.66015625 175.434570312 l 5,152,-1
 602.573242188 177.516601562 l 5,153,-1
 504.559570312 164.513671875 l 261,154,-1
 498.184570312 161.459960938 l 5,155,-1
 495.294921875 155.77734375 l 261,144,-1
500.465820312 76.0078125 m 261,156,-1
 512.448242188 149.77734375 l 261,157,-1
 592.5078125 157.150390625 l 261,158,-1
 578.607421875 71.337890625 l 261,159,-1
 500.465820312 76.0078125 l 261,156,-1
547.495117188 113.590820312 m 261,160,-1
 537.384765625 64.859375 l 261,161,-1
 584.888671875 61.158203125 l 261,162,-1
 595.89453125 114.172851562 l 261,163,-1
 547.495117188 113.590820312 l 261,160,-1
504.161132812 156.770507812 m 261,164,-1
 499.095703125 113.008789062 l 261,165,-1
 547.495117188 113.590820312 l 261,166,-1
 553.115234375 162.25 l 261,167,-1
 504.161132812 156.770507812 l 261,164,-1
477.079101562 53.806640625 m 261,168,-1
 443.7578125 -24.017578125 l 261,169,-1
 443.129882812 -29.4833984375 l 5,170,-1
 447.053710938 -33.9765625 l 5,171,-1
 526.713867188 -75.8642578125 l 261,172,-1
 533.723632812 -75.6162109375 l 5,173,-1
 540.211914062 -69.76953125 l 5,174,-1
 588.12109375 40.7421875 l 261,175,-1
 587.549804688 48.005859375 l 5,176,-1
 582.345703125 51.4658203125 l 5,177,-1
 487.803710938 60.6533203125 l 261,178,-1
 481.125 58.9716796875 l 5,179,-1
 477.079101562 53.806640625 l 261,168,-1
462.64453125 -24.1337890625 m 261,180,-1
 491.704101562 43.8447265625 l 261,181,-1
 568.204101562 33.17578125 l 261,182,-1
 531.002929688 -53.3505859375 l 261,183,-1
 462.64453125 -24.1337890625 l 261,180,-1
515.623046875 -0.712890625 m 261,184,-1
 491.985351562 -46.8935546875 l 261,185,-1
 532.81640625 -66.26171875 l 261,186,-1
 560.461914062 -12.3173828125 l 261,187,-1
 515.623046875 -0.712890625 l 261,184,-1
485.592773438 52.8046875 m 261,188,-1
 470.784179688 10.892578125 l 261,189,-1
 515.623046875 -0.712890625 l 261,190,-1
 532.600585938 47.2744140625 l 261,191,-1
 485.592773438 52.8046875 l 261,188,-1
435.771484375 -36.1611328125 m 261,192,-1
 381.422851562 -88.0693359375 l 261,193,-1
 378.383789062 -92.583984375 l 5,194,-1
 378.944335938 -98.8271484375 l 5,195,-1
 414.512695312 -181.40234375 l 261,196,-1
 420.03125 -184.888671875 l 5,197,-1
 428.58984375 -182.633789062 l 5,198,-1
 527.260742188 -89.453125 l 261,199,-1
 529.870117188 -81.373046875 l 5,200,-1
 526.713867188 -75.8642578125 l 5,201,-1
 447.053710938 -33.9765625 l 261,202,-1
 440.759765625 -33.0888671875 l 5,203,-1
 435.771484375 -36.1611328125 l 261,192,-1
394.997070312 -98.564453125 m 261,204,-1
 445.146484375 -50.712890625 l 261,205,-1
 506.607421875 -90.359375 l 261,206,-1
 431.216796875 -161.90234375 l 261,207,-1
 394.997070312 -98.564453125 l 261,204,-1
447.049804688 -103.044921875 m 261,208,-1
 405.006835938 -135.3515625 l 261,209,-1
 424.973632812 -175.3828125 l 261,210,-1
 477.954101562 -134.694335938 l 261,211,-1
 447.049804688 -103.044921875 l 261,208,-1
442.786132812 -40.248046875 m 261,212,-1
 416.145507812 -71.3955078125 l 261,213,-1
 447.049804688 -103.044921875 l 261,214,-1
 481.515625 -62.8076171875 l 261,215,-1
 442.786132812 -40.248046875 l 261,212,-1
369.875 -94.40234375 m 261,216,-1
 304.212890625 -108.452148438 l 261,217,-1
 299.315429688 -110.666015625 l 5,218,-1
 295.794921875 -116.630859375 l 5,219,-1
 268.215820312 -212.641601562 l 261,220,-1
 269.827148438 -219.146484375 l 5,221,-1
 277.131835938 -222.333984375 l 5,222,-1
 406.715820312 -194.6328125 l 261,223,-1
 413.58984375 -188.356445312 l 5,224,-1
 414.512695312 -181.40234375 l 5,225,-1
 378.944335938 -98.8271484375 l 261,226,-1
 374.9375 -94.4736328125 l 6,227,228
 372.3203125 -93.162109375 372.3203125 -93.162109375 369.875 -94.40234375 c 5,229,-1
 369.875 -94.40234375 l 261,216,-1
306.939453125 -126.174804688 m 261,230,-1
 368.783203125 -112.946289062 l 261,231,-1
 390.668945312 -184.158203125 l 261,232,-1
 291.94140625 -205.271484375 l 261,233,-1
 306.939453125 -126.174804688 l 261,230,-1
339.79296875 -161.69921875 m 261,234,-1
 290.671875 -165.393554688 l 261,235,-1
 279.208984375 -213.602539062 l 261,236,-1
 341.959960938 -208.84765625 l 261,237,-1
 339.79296875 -161.69921875 l 261,234,-1
372.69921875 -102.086914062 m 261,238,-1
 337.625976562 -114.549804688 l 261,239,-1
 339.79296875 -161.69921875 l 261,240,-1
 388.294921875 -144.517578125 l 261,241,-1
 372.69921875 -102.086914062 l 261,238,-1
292.528320312 -107.130859375 m 261,242,-1
 238.07421875 -78.9892578125 l 261,243,-1
 233.245117188 -78.005859375 l 5,244,-1
 227.08984375 -81.283203125 l 5,245,-1
 148.7578125 -151.9375 l 261,246,-1
 145.842773438 -158.770507812 l 5,247,-1
 148.901367188 -165.974609375 l 5,248,-1
 254.401367188 -219.754882812 l 261,249,-1
 263.178710938 -218.33203125 l 5,250,-1
 268.215820312 -212.641601562 l 5,251,-1
 295.794921875 -116.630859375 l 261,252,-1
 295.821289062 -110.271484375 l 5,253,-1
 292.528320312 -107.130859375 l 261,242,-1
229.053710938 -96.7236328125 m 261,254,-1
 280.215820312 -123.140625 l 261,255,-1
 249.932617188 -200.471679688 l 261,256,-1
 169.69140625 -159.354492188 l 261,257,-1
 229.053710938 -96.7236328125 l 261,254,-1
229.629882812 -148.940429688 m 261,258,-1
 193.48828125 -122.481445312 l 261,259,-1
 155.73828125 -159.3046875 l 261,260,-1
 201.186523438 -192.5546875 l 261,261,-1
 229.629882812 -148.940429688 l 261,258,-1
289.604492188 -115.765625 m 261,262,-1
 258.073242188 -105.326171875 l 261,263,-1
 229.629882812 -148.940429688 l 261,264,-1
 273.46484375 -163.442382812 l 261,265,-1
 289.604492188 -115.765625 l 261,262,-1
230.513671875 -70.5537109375 m 261,266,-1
 204.352539062 -8.68359375 l 261,267,-1
 201.013671875 -4.7958984375 l 5,268,-1
 194.497070312 -4.681640625 l 5,269,-1
 97.2626953125 -33.84375 l 262,270,271
 93.61328125 -34.9384765625 93.61328125 -34.9384765625 91.4736328125 -38.724609375 c 6,272,-1
 90.0537109375 -46.5966796875 l 5,273,-1
 134.872070312 -150.325195312 l 261,274,-1
 141.77734375 -154.133789062 l 5,275,-1
 148.7578125 -151.9375 l 5,276,-1
 227.08984375 -81.283203125 l 261,277,-1
 230.98828125 -75.4892578125 l 5,278,-1
 230.513671875 -70.5537109375 l 261,266,-1
188.196289062 -21.541015625 m 261,279,-1
 211.952148438 -77.646484375 l 261,280,-1
 143.650390625 -130.323242188 l 261,281,-1
 109.435546875 -50.3017578125 l 261,282,-1
 188.196289062 -21.541015625 l 261,279,-1
159.95703125 -71.7861328125 m 261,283,-1
 147.203125 -27.6396484375 l 261,284,-1
 98.8173828125 -43.689453125 l 261,285,-1
 114.112304688 -96.5263671875 l 261,286,-1
 159.95703125 -71.7861328125 l 261,283,-1
223.1796875 -76.669921875 m 261,287,-1
 205.801757812 -47.044921875 l 261,288,-1
 159.95703125 -71.7861328125 l 261,289,-1
 182.693359375 -110.439453125 l 261,290,-1
 223.1796875 -76.669921875 l 261,287,-1
202.466796875 4.7421875 m 261,291,-1
 205.954101562 86.5146484375 l 261,292,-1
 204.311523438 92.041015625 l 5,293,-1
 198.530273438 94.359375 l 5,294,-1
 101.94921875 94.470703125 l 261,295,-1
 95.251953125 91.5478515625 l 5,296,-1
 91.5439453125 84.6494140625 l 5,297,-1
 87.2060546875 -26.3447265625 l 261,298,-1
 90.69921875 -32.75 l 5,299,-1
 97.2626953125 -33.84375 l 5,300,-1
 194.497070312 -4.681640625 l 261,301,-1
 200.456054688 -0.8193359375 l 5,302,-1
 202.466796875 4.7421875 l 261,291,-1
187.186523438 78.123046875 m 261,303,-1
 184.118164062 7.384765625 l 261,304,-1
 104.001953125 -11.9208984375 l 261,305,-1
 107.646484375 75.3798828125 l 261,306,-1
 187.186523438 78.123046875 l 261,303,-1
143.6015625 36.9580078125 m 261,307,-1
 148.748046875 85.58203125 l 261,308,-1
 100.31640625 84.7919921875 l 261,309,-1
 94.6064453125 30.73046875 l 261,310,-1
 143.6015625 36.9580078125 l 261,307,-1
193.629882812 2.3583984375 m 261,311,-1
 192.596679688 43.185546875 l 261,312,-1
 143.6015625 36.9580078125 l 261,313,-1
 144.8359375 -10.8017578125 l 261,314,-1
 193.629882812 2.3583984375 l 261,311,-1
EndSplineSet
Fore
SplineSet
202.466796875 4.7421875 m 1,0,-1
 205.954101562 86.5146484375 l 1,1,-1
 204.311523438 92.041015625 l 1,2,-1
 198.530273438 94.359375 l 1,3,-1
 205.135742188 96.69140625 l 1,4,-1
 208.74609375 102.28515625 l 1,5,-1
 233.612304688 186.25 l 1,6,-1
 233.43359375 191.958007812 l 1,7,-1
 228.6875 195.685546875 l 1,8,-1
 235.314453125 196.138671875 l 1,9,-1
 239.978515625 200.399414062 l 1,10,-1
 285.93359375 268.619140625 l 1,11,-1
 287.733398438 273.818359375 l 1,12,-1
 285.201171875 279.283203125 l 1,13,-1
 290.713867188 276.733398438 l 1,14,-1
 295.947265625 278.41015625 l 1,15,-1
 357.94921875 314.290039062 l 1,16,-1
 361.870117188 317.864257812 l 1,17,-1
 363.232421875 324.297851562 l 1,18,-1
 365.377929688 318.67578125 l 1,19,-1
 369.659179688 317 l 1,20,-1
 430.909179688 310.295898438 l 1,21,-1
 435.897460938 310.884765625 l 1,22,-1
 441.08203125 315.649414062 l 1,23,-1
 438.802734375 309.303710938 l 1,24,-1
 440.623046875 305.01171875 l 1,25,-1
 481.00390625 257.53125 l 1,26,-1
 485.153320312 254.819335938 l 1,27,-1
 491.754882812 256.16796875 l 1,28,-1
 486.508789062 251.373046875 l 1,29,-1
 485.571289062 245.9296875 l 1,30,-1
 495.901367188 170.814453125 l 1,31,-1
 498.36328125 165.89453125 l 1,32,-1
 504.559570312 164.513671875 l 1,33,-1
 498.184570312 161.459960938 l 1,34,-1
 495.294921875 155.77734375 l 1,35,-1
 481.274414062 69.232421875 l 1,36,-1
 482.360351562 63.5166015625 l 1,37,-1
 487.803710938 60.6533203125 l 1,38,-1
 481.125 58.9716796875 l 1,39,-1
 477.079101562 53.806640625 l 1,40,-1
 443.7578125 -24.017578125 l 1,41,-1
 443.129882812 -29.4833984375 l 1,42,-1
 447.053710938 -33.9765625 l 1,43,-1
 440.759765625 -33.0888671875 l 1,44,-1
 435.771484375 -36.1611328125 l 1,45,-1
 381.422851562 -88.0693359375 l 1,46,-1
 378.383789062 -92.583984375 l 1,47,-1
 378.944335938 -98.8271484375 l 1,48,-1
 374.9375 -94.4736328125 l 2,49,50
 372.3203125 -93.162109375 372.3203125 -93.162109375 369.875 -94.40234375 c 2,51,-1
 304.212890625 -108.452148438 l 1,52,-1
 299.315429688 -110.666015625 l 1,53,-1
 295.794921875 -116.630859375 l 1,54,-1
 295.821289062 -110.271484375 l 1,55,-1
 292.528320312 -107.130859375 l 1,56,-1
 238.07421875 -78.9892578125 l 1,57,-1
 233.245117188 -78.005859375 l 1,58,-1
 227.08984375 -81.283203125 l 1,59,-1
 230.98828125 -75.4892578125 l 1,60,-1
 230.513671875 -70.5537109375 l 1,61,-1
 204.352539062 -8.68359375 l 1,62,-1
 201.013671875 -4.7958984375 l 1,63,-1
 194.497070312 -4.681640625 l 1,64,-1
 200.456054688 -0.8193359375 l 1,65,-1
 202.466796875 4.7421875 l 1,0,-1
143.6015625 36.9580078125 m 1,66,-1
 144.611942842 -2.13507844064 l 1,67,-1
 104.001953125 -11.9208984375 l 1,68,-1
 105.842131978 32.1585840729 l 1,69,-1
 143.6015625 36.9580078125 l 1,66,-1
143.6015625 36.9580078125 m 1,70,-1
 147.814852427 76.7652030234 l 1,71,-1
 187.186523438 78.123046875 l 1,72,-1
 185.632671692 42.3003845504 l 1,73,-1
 143.6015625 36.9580078125 l 1,70,-1
159.95703125 -71.7861328125 m 1,74,-1
 178.554838792 -103.403683723 l 1,75,-1
 143.650390625 -130.323242188 l 1,76,-1
 126.371218057 -89.9108104443 l 1,77,-1
 159.95703125 -71.7861328125 l 1,74,-1
159.95703125 -71.7861328125 m 1,78,-1
 149.521301369 -35.6638047109 l 1,79,-1
 188.196289062 -21.541015625 l 1,80,-1
 200.261084144 -50.035079877 l 1,81,-1
 159.95703125 -71.7861328125 l 1,78,-1
97.2626953125 -33.84375 m 1,82,83
 93.61328125 -34.9384765625 93.61328125 -34.9384765625 91.4736328125 -38.724609375 c 2,84,-1
 90.0537109375 -46.5966796875 l 1,85,-1
 134.872070312 -150.325195312 l 1,86,-1
 141.77734375 -154.133789062 l 1,87,-1
 148.7578125 -151.9375 l 1,88,-1
 145.842773438 -158.770507812 l 1,89,-1
 148.901367188 -165.974609375 l 1,90,-1
 254.401367188 -219.754882812 l 1,91,-1
 263.178710938 -218.33203125 l 1,92,-1
 268.215820312 -212.641601562 l 1,93,-1
 269.827148438 -219.146484375 l 1,94,-1
 277.131835938 -222.333984375 l 1,95,-1
 339.264365158 -209.051911909 l 1,96,-1
 341.959960938 -208.84765625 l 1,97,-1
 341.943030596 -208.479293525 l 1,98,-1
 406.715820312 -194.6328125 l 1,99,-1
 413.58984375 -188.356445312 l 1,100,-1
 414.512695312 -181.40234375 l 1,101,-1
 420.03125 -184.888671875 l 1,102,-1
 428.58984375 -182.633789062 l 1,103,-1
 527.260742188 -89.453125 l 1,104,-1
 529.870117188 -81.373046875 l 1,105,-1
 526.713867188 -75.8642578125 l 1,106,-1
 533.723632812 -75.6162109375 l 1,107,-1
 540.211914062 -69.76953125 l 1,108,-1
 588.12109375 40.7421875 l 1,109,-1
 587.549804688 48.005859375 l 1,110,-1
 582.345703125 51.4658203125 l 1,111,-1
 589.193359375 53.8212890625 l 1,112,-1
 593.493164062 60.4873046875 l 1,113,-1
 610.936523438 168.721679688 l 1,114,-1
 608.66015625 175.434570312 l 1,115,-1
 602.573242188 177.516601562 l 1,116,-1
 608.9609375 181.328125 l 1,117,-1
 611.741210938 188.693359375 l 1,118,-1
 596.02734375 298.725585938 l 1,119,-1
 591.045898438 304.252929688 l 1,120,-1
 584.118164062 303.995117188 l 1,121,-1
 588.897460938 309.890625 l 1,122,-1
 588.505859375 317.810546875 l 1,123,-1
 513.91796875 404.56640625 l 1,124,-1
 505.737304688 406.1328125 l 1,125,-1
 499.291015625 402.174804688 l 1,126,-1
 500.158203125 409.241210938 l 1,127,-1
 494.7578125 414.974609375 l 1,128,-1
 437.659965167 421.407136 l 1,129,-1
 431.60546875 423.083984375 l 1,130,-1
 431.333491992 422.11986352 l 1,131,-1
 368.6328125 429.18359375 l 1,132,-1
 360.234375 424.9375 l 1,133,-1
 357.133789062 418.203125 l 1,134,-1
 353.172851562 423.36328125 l 1,135,-1
 344.55078125 423.608398438 l 1,136,-1
 225.75 355.794921875 l 1,137,-1
 221.047851562 348.12109375 l 1,138,-1
 222.46484375 341.685546875 l 1,139,-1
 215.853515625 343.120117188 l 1,140,-1
 208.185546875 338.627929688 l 1,141,-1
 136.592773438 233.432617188 l 1,142,-1
 135.696289062 225.682617188 l 1,143,-1
 140.00390625 221.169921875 l 1,144,-1
 133 219.83203125 l 1,145,-1
 127.625 213.505859375 l 1,146,-1
 95.005859375 104.209960938 l 1,147,-1
 96.3349609375 97.310546875 l 1,148,-1
 101.94921875 94.470703125 l 1,149,-1
 95.251953125 91.5478515625 l 1,150,-1
 91.5439453125 84.6494140625 l 1,151,-1
 87.2060546875 -26.3447265625 l 1,152,-1
 90.69921875 -32.75 l 1,153,-1
 97.2626953125 -33.84375 l 1,82,83
229.629882812 -148.940429688 m 1,154,-1
 265.469322029 -160.797218343 l 1,155,-1
 249.932617188 -200.471679688 l 1,156,-1
 209.526311733 -179.7666876 l 1,157,-1
 229.629882812 -148.940429688 l 1,154,-1
229.629882812 -148.940429688 m 1,158,-1
 200.071873908 -127.301242105 l 1,159,-1
 229.053710938 -96.7236328125 l 1,160,-1
 254.959937035 -110.100027586 l 1,161,-1
 229.629882812 -148.940429688 l 1,158,-1
339.79296875 -161.69921875 m 1,162,-1
 379.449142152 -147.651163444 l 1,163,-1
 390.668945312 -184.158203125 l 1,164,-1
 341.31035102 -194.713737004 l 1,165,-1
 339.79296875 -161.69921875 l 1,162,-1
339.79296875 -161.69921875 m 1,166,-1
 299.630685483 -164.719773772 l 1,167,-1
 306.939453125 -126.174804688 l 1,168,-1
 337.856320051 -119.561618113 l 1,169,-1
 339.79296875 -161.69921875 l 1,166,-1
447.049804688 -103.044921875 m 1,170,-1
 475.244896015 -70.1284129931 l 1,171,-1
 506.607421875 -90.359375 l 1,172,-1
 469.265123126 -125.795862129 l 1,173,-1
 447.049804688 -103.044921875 l 1,170,-1
447.049804688 -103.044921875 m 1,174,-1
 412.667501113 -129.46495734 l 1,175,-1
 394.997070312 -98.564453125 l 1,176,-1
 419.678624905 -75.0138100263 l 1,177,-1
 447.049804688 -103.044921875 l 1,174,-1
515.623046875 -0.712890625 m 1,178,-1
 529.521250839 38.5706207127 l 1,179,-1
 568.204101562 33.17578125 l 1,180,-1
 549.827997356 -9.56527931194 l 1,181,-1
 515.623046875 -0.712890625 l 1,178,-1
515.623046875 -0.712890625 m 1,182,-1
 496.277211783 -38.5086020766 l 1,183,-1
 462.64453125 -24.1337890625 l 1,184,-1
 476.936903323 9.30009271318 l 1,185,-1
 515.623046875 -0.712890625 l 1,182,-1
547.495117188 113.590820312 m 1,186,-1
 552.096379757 153.42871954 l 1,187,-1
 592.5078125 157.150390625 l 1,188,-1
 585.525871529 114.048162367 l 1,189,-1
 547.495117188 113.590820312 l 1,186,-1
547.495117188 113.590820312 m 1,190,-1
 539.217264273 73.6919370608 l 1,191,-1
 500.465820312 76.0078125 l 1,192,-1
 506.490351578 113.097714033 l 1,193,-1
 547.495117188 113.590820312 l 1,190,-1
551.270507812 227.2421875 m 1,194,-1
 542.700854913 264.138127573 l 1,195,-1
 582.046875 281.479492188 l 1,196,-1
 588.102455472 238.074504483 l 1,197,-1
 551.270507812 227.2421875 l 1,194,-1
551.270507812 227.2421875 m 1,198,-1
 553.358448965 188.370670514 l 1,199,-1
 513.709960938 181.3515625 l 1,200,-1
 509.118815093 214.845078724 l 1,201,-1
 551.270507812 227.2421875 l 1,198,-1
511.1015625 325.688476562 m 1,202,-1
 483.435412343 349.486173313 l 1,203,-1
 510.932617188 383.846679688 l 1,204,-1
 539.555976527 350.40089054 l 1,205,-1
 511.1015625 325.688476562 l 1,202,-1
511.1015625 325.688476562 m 1,206,-1
 530.448955832 294.591741398 l 1,207,-1
 494.61328125 272.83984375 l 1,208,-1
 475.750040258 294.98598339 l 1,209,-1
 511.1015625 325.688476562 l 1,206,-1
418.055664062 375.051757812 m 1,210,-1
 378.067509622 373.449293384 l 1,211,-1
 379.8671875 413.686523438 l 1,212,-1
 427.455857509 408.374173283 l 1,213,-1
 418.055664062 375.051757812 l 1,210,-1
418.055664062 375.051757812 m 1,214,-1
 454.657436802 364.902913929 l 1,215,-1
 434.90625 328.858398438 l 1,216,-1
 405.918557687 332.02735586 l 1,217,-1
 418.055664062 375.051757812 l 1,214,-1
303.559570312 348.4609375 m 1,218,-1
 268.627509445 322.814381803 l 1,219,-1
 245.204101562 351.543945312 l 1,220,-1
 290.030910898 377.273486848 l 1,221,-1
 303.559570312 348.4609375 l 1,218,-1
303.559570312 348.4609375 m 1,222,-1
 342.550723732 365.211923447 l 1,223,-1
 349.146484375 328.959960938 l 1,224,-1
 320.489526466 312.408201042 l 1,225,-1
 303.559570312 348.4609375 l 1,222,-1
214.081054688 262.26171875 m 1,226,-1
 192.969231206 225.14858134 l 1,227,-1
 157.122070312 237.83203125 l 1,228,-1
 184.498827437 278.29121257 l 1,229,-1
 214.081054688 262.26171875 l 1,226,-1
214.081054688 262.26171875 m 1,230,-1
 241.065532612 296.105384074 l 1,231,-1
 268.661132812 273.547851562 l 1,232,-1
 248.497023215 243.613463582 l 1,233,-1
 214.081054688 262.26171875 l 1,230,-1
163.60546875 151.895507812 m 1,234,-1
 154.002209516 112.066487853 l 1,235,-1
 114.356445312 113.392578125 l 1,236,-1
 127.064946833 156.253363585 l 1,237,-1
 163.60546875 151.895507812 l 1,234,-1
163.60546875 151.895507812 m 1,238,-1
 177.53266006 191.175607567 l 1,239,-1
 214.229492188 182.780273438 l 1,240,-1
 203.692091362 147.114740857 l 1,241,-1
 163.60546875 151.895507812 l 1,238,-1
EndSplineSet
EndChar

StartChar: openeye
Encoding: 12 61452 12
Width: 700
LayerCount: 2
Fore
SplineSet
664.538085938 81.490234375 m 0,0,-1
 668.169921875 76 l 1,1,-1
 664.543945312 70.560546875 l 2,2,3
 612.01953125 -9.07421875 612.01953125 -9.07421875 528.638671875 -54.037109375 c 128,-1,4
 445.2578125 -99 445.2578125 -99 350.135742188 -99 c 128,-1,5
 254.998046875 -99 254.998046875 -99 171.598632812 -54.04296875 c 128,-1,6
 88.1982421875 -9.0859375 88.1982421875 -9.0859375 35.6572265625 70.529296875 c 2,7,-1
 32.03125 76 l 1,8,-1
 35.6572265625 81.490234375 l 2,9,10
 88.2490234375 161.095703125 88.2490234375 161.095703125 171.64453125 206.047851562 c 128,-1,11
 255.0390625 251 255.0390625 251 350.141601562 251 c 128,-1,12
 445.256835938 251 445.256835938 251 528.6328125 206.046875 c 128,-1,13
 612.008789062 161.09375 612.008789062 161.09375 664.538085938 81.490234375 c 0,0,-1
70.4150390625 76 m 1,14,15
 109.40234375 21.98828125 109.40234375 21.98828125 164.98828125 -13.37109375 c 128,-1,16
 220.573242188 -48.728515625 220.573242188 -48.728515625 285.243164062 -61.07421875 c 1,17,18
 262.094726562 -49.880859375 262.094726562 -49.880859375 243.86328125 -31.748046875 c 0,19,20
 222.688476562 -10.703125 222.688476562 -10.703125 210.865234375 17.134765625 c 128,-1,21
 199.041015625 44.9736328125 199.041015625 44.9736328125 199.041015625 75.98828125 c 0,22,23
 199.041015625 76.19140625 199.041015625 76.19140625 199.041015625 76.39453125 c 0,24,25
 199.041015625 107.006835938 199.041015625 107.006835938 210.615234375 134.922851562 c 128,-1,26
 222.189453125 162.838867188 222.189453125 162.838867188 243.86328125 184.499023438 c 0,27,28
 261.068359375 201.659179688 261.068359375 201.659179688 282.755859375 212.616210938 c 1,29,30
 218.82421875 199.920898438 218.82421875 199.920898438 163.923828125 164.708007812 c 128,-1,31
 109.0234375 129.49609375 109.0234375 129.49609375 70.4150390625 76 c 1,14,15
351.712890625 -18.3134765625 m 0,32,33
 351.765625 -18.236328125 351.765625 -18.236328125 351.836914062 -18.244140625 c 0,34,35
 390.926757812 -18.2509765625 390.926757812 -18.2509765625 418.481445312 9.390625 c 128,-1,36
 446.08984375 37.0185546875 446.08984375 37.0185546875 446.08984375 76.1337890625 c 0,37,38
 446.08984375 76.169921875 446.08984375 76.169921875 446.096679688 76.2451171875 c 0,39,40
 446.103515625 115.328125 446.103515625 115.328125 418.462890625 142.864257812 c 128,-1,41
 390.78515625 170.471679688 390.78515625 170.471679688 351.70703125 170.471679688 c 0,42,43
 351.44921875 170.486328125 351.44921875 170.486328125 351.3984375 170.486328125 c 0,44,45
 312.447265625 170.486328125 312.447265625 170.486328125 284.938476562 142.844726562 c 128,-1,46
 257.330078125 115.087890625 257.330078125 115.087890625 257.330078125 76.0888671875 c 128,-1,47
 257.330078125 37.0537109375 257.330078125 37.0537109375 284.998046875 9.3701171875 c 128,-1,48
 312.666015625 -18.3134765625 312.666015625 -18.3134765625 351.712890625 -18.3134765625 c 0,32,33
421.077148438 -59.9345703125 m 1,49,50
 483.928710938 -46.7548828125 483.928710938 -46.7548828125 537.83984375 -11.7451171875 c 128,-1,51
 591.750976562 23.2646484375 591.750976562 23.2646484375 629.8046875 76 c 1,52,53
 592.071289062 128.3359375 592.071289062 128.3359375 538.69140625 163.251953125 c 128,-1,54
 485.310546875 198.16796875 485.310546875 198.16796875 423.07421875 211.629882812 c 1,55,56
 460.122070312 192.091796875 460.122070312 192.091796875 482.48828125 155.890625 c 128,-1,57
 504.85546875 119.689453125 504.85546875 119.689453125 504.85546875 76.451171875 c 0,58,59
 504.87890625 76.1142578125 504.87890625 76.1142578125 504.87890625 76.048828125 c 0,60,61
 504.87890625 45.0439453125 504.87890625 45.0439453125 493.057617188 17.208984375 c 128,-1,62
 481.236328125 -10.6259765625 481.236328125 -10.6259765625 460.072265625 -31.69140625 c 0,63,64
 442.830078125 -48.927734375 442.830078125 -48.927734375 421.077148438 -59.9345703125 c 1,49,50
318.926757812 70.7841796875 m 128,-1,66
 305.966757812 70.7841796875 305.966757812 70.7841796875 296.866191406 79.8671875 c 128,-1,67
 287.765625 88.9501953125 287.765625 88.9501953125 287.705078125 101.986328125 c 128,-1,68
 287.765625 114.849609375 287.765625 114.849609375 296.863261719 124.012695312 c 128,-1,69
 305.960898438 133.17578125 305.960898438 133.17578125 318.920898438 133.17578125 c 260,70,71
 331.860898438 133.17578125 331.860898438 133.17578125 340.963164063 124.012695312 c 128,-1,72
 350.065429688 114.849609375 350.065429688 114.849609375 350.154296875 101.966796875 c 128,-1,73
 350.065429688 88.9501953125 350.065429688 88.9501953125 340.97609375 79.8671875 c 128,-1,74
 331.886757812 70.7841796875 331.886757812 70.7841796875 318.926757812 70.7841796875 c 128,-1,66
EndSplineSet
EndChar

StartChar: closedeye
Encoding: 13 61453 13
Width: 700
Flags: W
LayerCount: 2
Back
SplineSet
697.8046875 116 m 5,0,-1
 697.8046875 79 l 5,1,-1
 629.8046875 79 l 5,2,-1
 629.8046875 116 l 5,3,-1
 697.8046875 116 l 5,0,-1
70.4150390625 116 m 5,4,-1
 70.4150390625 79 l 5,5,-1
 2.4150390625 79 l 5,6,-1
 2.4150390625 116 l 5,7,-1
 70.4150390625 116 l 5,4,-1
158.459960938 13.123046875 m 5,8,-1
 184.623046875 -13.0400390625 l 5,9,-1
 136.540039062 -61.123046875 l 5,10,-1
 110.376953125 -34.9599609375 l 5,11,-1
 158.459960938 13.123046875 l 5,8,-1
516.376953125 -13.0400390625 m 5,12,-1
 542.540039062 13.123046875 l 5,13,-1
 590.623046875 -34.9599609375 l 5,14,-1
 564.459960938 -61.123046875 l 5,15,-1
 516.376953125 -13.0400390625 l 5,12,-1
332 -50 m 5,16,-1
 369 -50 l 5,17,-1
 369 -118 l 5,18,-1
 332 -118 l 5,19,-1
 332 -50 l 5,16,-1
668.169921875 116 m 5,20,-1
 664.543945312 110.560546875 l 6,21,22
 610.75390625 29.8681640625 610.75390625 29.8681640625 527.9453125 -14.4638671875 c 4,23,24
 445 -59 445 -59 350 -59 c 132,-1,25
 255 -59 255 -59 171.5078125 -13.7333984375 c 4,26,27
 88 32 88 32 35.6572265625 110.529296875 c 6,28,-1
 32.03125 116 l 5,29,-1
 70.4150390625 116 l 5,30,31
 109 62 109 62 166.5 25.5 c 132,-1,32
 224 -11 224 -11 285.243164062 -21.07421875 c 4,33,34
 315 -26 315 -26 351 -26 c 4,35,36
 390 -26 390 -26 421.077148438 -19.9345703125 c 4,37,38
 488 -5 488 -5 537.83984375 28.2548828125 c 4,39,40
 592 63 592 63 629.8046875 116 c 5,41,-1
 668.169921875 116 l 5,20,-1
EndSplineSet
Fore
SplineSet
697.8046875 116 m 1,0,-1
 697.8046875 79 l 1,1,-1
 641.26667963 79 l 1,2,3
 603.63844315 32.8700656569 603.63844315 32.8700656569 554.497529708 1.16555622952 c 1,4,-1
 590.623046875 -34.9599609375 l 1,5,-1
 564.459960938 -61.123046875 l 1,6,-1
 521.29173163 -17.9548175671 l 1,7,8
 449.597112169 -54.697019693 449.597112169 -54.697019693 369 -58.5488961572 c 1,9,-1
 369 -118 l 1,10,-1
 332 -118 l 1,11,-1
 332 -58.5889988037 l 1,12,13
 251.602931539 -54.8960854562 251.602931539 -54.8960854562 179.641347645 -18.0217382925 c 1,14,-1
 136.540039062 -61.123046875 l 1,15,-1
 110.376953125 -34.9599609375 l 1,16,-1
 146.490458044 1.15354398176 l 1,17,18
 96.4508018236 33.4476680361 96.4508018236 33.4476680361 59.0100554388 79 c 1,19,-1
 2.4150390625 79 l 1,20,-1
 2.4150390625 116 l 1,21,-1
 70.4150390625 116 l 1,22,23
 109 62 109 62 166.5 25.5 c 128,-1,24
 224 -11 224 -11 285.243164062 -21.07421875 c 0,25,26
 315 -26 315 -26 351 -26 c 0,27,28
 390 -26 390 -26 421.077148438 -19.9345703125 c 0,29,30
 488 -5 488 -5 537.83984375 28.2548828125 c 0,31,32
 592 63 592 63 629.8046875 116 c 1,33,-1
 697.8046875 116 l 1,0,-1
EndSplineSet
EndChar

StartChar: minus
Encoding: 14 61454 14
Width: 700
LayerCount: 2
Fore
SplineSet
221 206 m 6,0,-1
 479 206 l 6,1,2
 491 206 491 206 500 197 c 132,-1,3
 509 188 509 188 509 176 c 6,4,-1
 509 130 l 6,5,6
 509 118 509 118 500 109 c 132,-1,7
 491 100 491 100 479 100 c 6,8,-1
 221 100 l 6,9,10
 209 100 209 100 200 109 c 132,-1,11
 191 118 191 118 191 130 c 6,12,-1
 191 176 l 6,13,14
 191 188 191 188 200 197 c 132,-1,15
 209 206 209 206 221 206 c 6,0,-1
EndSplineSet
EndChar

StartChar: plus
Encoding: 15 61455 15
Width: 700
Flags: W
LayerCount: 2
Back
SplineSet
403 292 m 6,0,-1
 403 34 l 6,1,2
 403 22 403 22 394 13 c 132,-1,3
 385 4 385 4 373 4 c 6,4,-1
 327 4 l 6,5,6
 315 4 315 4 306 13 c 132,-1,7
 297 22 297 22 297 34 c 6,8,-1
 297 292 l 6,9,10
 297 304 297 304 306 313 c 132,-1,11
 315 322 315 322 327 322 c 6,12,-1
 373 322 l 6,13,14
 385 322 385 322 394 313 c 132,-1,15
 403 304 403 304 403 292 c 6,0,-1
221 216 m 6,16,-1
 479 216 l 6,17,18
 491 216 491 216 500 207 c 132,-1,19
 509 198 509 198 509 186 c 6,20,-1
 509 140 l 6,21,22
 509 128 509 128 500 119 c 132,-1,23
 491 110 491 110 479 110 c 6,24,-1
 221 110 l 6,25,26
 209 110 209 110 200 119 c 132,-1,27
 191 128 191 128 191 140 c 6,28,-1
 191 186 l 6,29,30
 191 198 191 198 200 207 c 132,-1,31
 209 216 209 216 221 216 c 6,16,-1
EndSplineSet
Fore
SplineSet
297 216 m 1,0,-1
 297 292 l 2,1,2
 297 304 297 304 306 313 c 128,-1,3
 315 322 315 322 327 322 c 2,4,-1
 373 322 l 2,5,6
 385 322 385 322 394 313 c 128,-1,7
 403 304 403 304 403 292 c 2,8,-1
 403 216 l 1,9,-1
 479 216 l 2,10,11
 491 216 491 216 500 207 c 128,-1,12
 509 198 509 198 509 186 c 2,13,-1
 509 140 l 2,14,15
 509 128 509 128 500 119 c 128,-1,16
 491 110 491 110 479 110 c 2,17,-1
 403 110 l 1,18,-1
 403 34 l 2,19,20
 403 22 403 22 394 13 c 128,-1,21
 385 4 385 4 373 4 c 2,22,-1
 327 4 l 2,23,24
 315 4 315 4 306 13 c 128,-1,25
 297 22 297 22 297 34 c 2,26,-1
 297 110 l 1,27,-1
 221 110 l 2,28,29
 209 110 209 110 200 119 c 128,-1,30
 191 128 191 128 191 140 c 2,31,-1
 191 186 l 2,32,33
 191 198 191 198 200 207 c 128,-1,34
 209 216 209 216 221 216 c 2,35,-1
 297 216 l 1,0,-1
EndSplineSet
EndChar

StartChar: left
Encoding: 16 61456 16
Width: 700
LayerCount: 2
Back
SplineSet
76 172 m 29,0,-1
 184 280 l 5,1,-1
 184 64 l 5,2,-1
 76 172 l 29,0,-1
152 188 m 5,3,-1
 586 188 l 5,4,-1
 586 155 l 5,5,-1
 152 155 l 5,6,-1
 152 188 l 5,3,-1
EndSplineSet
Fore
SplineSet
76 172 m 1,0,-1
 184 280 l 1,1,-1
 184 188 l 1,2,-1
 586 188 l 1,3,-1
 586 155 l 1,4,-1
 184 155 l 1,5,-1
 184 64 l 1,6,-1
 76 172 l 1,0,-1
EndSplineSet
EndChar

StartChar: down
Encoding: 17 61457 17
Width: 700
Flags: W
LayerCount: 2
Back
SplineSet
331 -83 m 29,0,-1
 439 25 l 5,1,-1
 223 25 l 5,2,-1
 331 -83 l 29,0,-1
347 -7 m 5,3,-1
 347 427 l 5,4,-1
 314 427 l 5,5,-1
 314 -7 l 5,6,-1
 347 -7 l 5,3,-1
EndSplineSet
Fore
SplineSet
331 -83 m 1,0,-1
 439 25 l 1,1,-1
 347 25 l 1,2,-1
 347 427 l 1,3,-1
 314 427 l 1,4,-1
 314 25 l 1,5,-1
 223 25 l 1,6,-1
 331 -83 l 1,0,-1
EndSplineSet
EndChar

StartChar: up
Encoding: 18 61458 18
Width: 700
Flags: W
LayerCount: 2
Back
SplineSet
331 427 m 29,0,-1
 439 319 l 5,1,-1
 223 319 l 5,2,-1
 331 427 l 29,0,-1
347 351 m 5,3,-1
 347 -83 l 5,4,-1
 314 -83 l 5,5,-1
 314 351 l 5,6,-1
 347 351 l 5,3,-1
EndSplineSet
Fore
SplineSet
331 427 m 1,0,-1
 439 319 l 1,1,-1
 347 319 l 1,2,-1
 347 -83 l 1,3,-1
 314 -83 l 1,4,-1
 314 319 l 1,5,-1
 223 319 l 1,6,-1
 331 427 l 1,0,-1
EndSplineSet
EndChar

StartChar: right
Encoding: 19 61460 19
Width: 700
Flags: W
LayerCount: 2
Back
SplineSet
586 172 m 29,0,-1
 478 280 l 5,1,-1
 478 64 l 5,2,-1
 586 172 l 29,0,-1
510 188 m 5,3,-1
 76 188 l 5,4,-1
 76 155 l 5,5,-1
 510 155 l 5,6,-1
 510 188 l 5,3,-1
EndSplineSet
Fore
SplineSet
586 172 m 1,0,-1
 478 280 l 1,1,-1
 478 188 l 1,2,-1
 76 188 l 1,3,-1
 76 155 l 1,4,-1
 478 155 l 1,5,-1
 478 64 l 1,6,-1
 586 172 l 1,0,-1
EndSplineSet
EndChar

StartChar: rename
Encoding: 20 61461 20
Width: 700
VWidth: 2048
Flags: W
LayerCount: 2
Fore
SplineSet
222.287109375 132.84375 m 5,0,-1
 142.892578125 132.84375 l 5,1,-1
 130.294921875 93 l 5,2,-1
 79.318359375 93 l 5,3,-1
 152.267578125 311.701171875 l 5,4,-1
 212.765625 311.701171875 l 5,5,-1
 285.71484375 93 l 5,6,-1
 234.591796875 93 l 5,7,-1
 222.287109375 132.84375 l 5,0,-1
155.490234375 173.419921875 m 5,8,-1
 209.396484375 173.419921875 l 5,9,-1
 182.58984375 260.431640625 l 5,10,-1
 155.490234375 173.419921875 l 5,8,-1
379.220703125 126.837890625 m 132,-1,12
 394.455078125 126.837890625 394.455078125 126.837890625 402.438476562 139.142578125 c 132,-1,13
 410.421875 151.447265625 410.421875 151.447265625 410.421875 174.884765625 c 260,14,15
 410.421875 198.322265625 410.421875 198.322265625 402.438476562 210.626953125 c 132,-1,16
 394.455078125 222.931640625 394.455078125 222.931640625 379.220703125 222.931640625 c 132,-1,17
 364.1328125 222.931640625 364.1328125 222.931640625 356.002929688 210.553710938 c 132,-1,18
 347.873046875 198.17578125 347.873046875 198.17578125 347.873046875 174.884765625 c 260,19,20
 347.873046875 151.59375 347.873046875 151.59375 356.002929688 139.215820312 c 132,-1,11
 364.1328125 126.837890625 364.1328125 126.837890625 379.220703125 126.837890625 c 132,-1,12
347.873046875 233.0390625 m 5,21,22
 357.6875 247.39453125 357.6875 247.39453125 369.552734375 254.206054688 c 132,-1,23
 381.41796875 261.017578125 381.41796875 261.017578125 396.798828125 261.017578125 c 4,24,25
 424.044921875 261.017578125 424.044921875 261.017578125 441.623046875 236.920898438 c 132,-1,26
 459.201171875 212.82421875 459.201171875 212.82421875 459.201171875 174.884765625 c 260,27,28
 459.201171875 136.9453125 459.201171875 136.9453125 441.623046875 112.848632812 c 132,-1,29
 424.044921875 88.751953125 424.044921875 88.751953125 396.798828125 88.751953125 c 4,30,31
 381.41796875 88.751953125 381.41796875 88.751953125 369.552734375 95.5634765625 c 132,-1,32
 357.6875 102.375 357.6875 102.375 347.873046875 116.73046875 c 5,33,-1
 347.873046875 93 l 5,34,-1
 300.705078125 93 l 5,35,-1
 300.705078125 320.9296875 l 5,36,-1
 347.873046875 320.9296875 l 5,37,-1
 347.873046875 233.0390625 l 5,21,22
619.943359375 251.935546875 m 5,38,-1
 619.943359375 209.162109375 l 5,39,40
 610.421875 216.486328125 610.421875 216.486328125 600.680664062 220.001953125 c 132,-1,41
 590.939453125 223.517578125 590.939453125 223.517578125 580.5390625 223.517578125 c 4,42,43
 560.763671875 223.517578125 560.763671875 223.517578125 549.77734375 210.700195312 c 132,-1,44
 538.791015625 197.8828125 538.791015625 197.8828125 538.791015625 174.884765625 c 260,45,46
 538.791015625 151.88671875 538.791015625 151.88671875 549.77734375 139.069335938 c 132,-1,47
 560.763671875 126.251953125 560.763671875 126.251953125 580.5390625 126.251953125 c 4,48,49
 591.671875 126.251953125 591.671875 126.251953125 601.6328125 129.9140625 c 132,-1,50
 611.59375 133.576171875 611.59375 133.576171875 619.943359375 140.75390625 c 5,51,-1
 619.943359375 97.833984375 l 5,52,53
 608.95703125 93.29296875 608.95703125 93.29296875 597.53125 91.0224609375 c 132,-1,54
 586.10546875 88.751953125 586.10546875 88.751953125 574.6796875 88.751953125 c 4,55,56
 534.689453125 88.751953125 534.689453125 88.751953125 512.130859375 111.530273438 c 132,-1,57
 489.572265625 134.30859375 489.572265625 134.30859375 489.572265625 174.884765625 c 260,58,59
 489.572265625 215.4609375 489.572265625 215.4609375 512.130859375 238.239257812 c 132,-1,60
 534.689453125 261.017578125 534.689453125 261.017578125 574.6796875 261.017578125 c 4,61,62
 586.251953125 261.017578125 586.251953125 261.017578125 597.53125 258.747070312 c 132,-1,63
 608.810546875 256.4765625 608.810546875 256.4765625 619.943359375 251.935546875 c 5,38,-1
EndSplineSet
EndChar

StartChar: union
Encoding: 21 61462 21
Width: 700
Flags: W
LayerCount: 2
Back
SplineSet
248.241210938 329.5625 m 0,0,1
 299.53515625 329.5625 299.53515625 329.5625 340.006835938 299.78515625 c 2,2,-1
 349.864257812 292.533203125 l 1,3,-1
 359.734375 299.767578125 l 2,4,5
 383.330078125 317.0625 383.330078125 317.0625 411.91015625 324.568359375 c 0,6,7
 430.33203125 329.751953125 430.33203125 329.751953125 450.010742188 329.751953125 c 0,8,9
 497.041992188 329.751953125 497.041992188 329.751953125 537.178710938 303.006835938 c 0,10,11
 569.2890625 281.610351562 569.2890625 281.610351562 586.307617188 248.920898438 c 1,12,13
 604.842773438 216.12890625 604.842773438 216.12890625 604.842773438 176.618164062 c 0,14,15
 604.842773438 142.634765625 604.842773438 142.634765625 590.876953125 111.306640625 c 128,-1,16
 576.91015625 79.9794921875 576.91015625 79.9794921875 551.662109375 58.93359375 c 1,17,18
 531.474609375 40.7734375 531.474609375 40.7734375 505.1328125 31.158203125 c 128,-1,19
 478.79296875 21.54296875 478.79296875 21.54296875 450.642578125 21.54296875 c 0,20,21
 425.87890625 21.54296875 425.87890625 21.54296875 402.4375 29.0390625 c 128,-1,22
 378.99609375 36.53515625 378.99609375 36.53515625 359.95703125 50.982421875 c 2,23,-1
 349.9609375 58.568359375 l 1,24,-1
 339.908203125 51.0576171875 l 2,25,26
 320.590820312 36.625 320.590820312 36.625 296.888671875 29.0146484375 c 128,-1,27
 273.1875 21.404296875 273.1875 21.404296875 248.440429688 21.404296875 c 0,28,29
 212.84375 21.404296875 212.84375 21.404296875 182.084960938 36.5791015625 c 0,30,31
 147.21484375 52.671875 147.21484375 52.671875 123.884765625 85.58203125 c 0,32,33
 109.837890625 105.396484375 109.837890625 105.396484375 102.220703125 128.73046875 c 128,-1,34
 94.6015625 152.06640625 94.6015625 152.06640625 94.6015625 175.826171875 c 0,35,36
 94.6015625 191.345703125 94.6015625 191.345703125 97.9736328125 206.458007812 c 0,37,38
 106.499023438 252.11328125 106.499023438 252.11328125 141.986328125 286.15625 c 0,39,40
 163.259765625 306.5625 163.259765625 306.5625 190.413085938 318.072265625 c 128,-1,41
 217.56640625 329.58203125 217.56640625 329.58203125 245.96484375 329.58203125 c 0,42,43
 246.34375 329.58203125 246.34375 329.58203125 247.102539062 329.572265625 c 128,-1,44
 247.861328125 329.5625 247.861328125 329.5625 248.241210938 329.5625 c 0,0,1
245.96484375 362.958984375 m 0,45,46
 210.646484375 362.958984375 210.646484375 362.958984375 177.668945312 348.9765625 c 128,-1,47
 144.69140625 334.994140625 144.69140625 334.994140625 118.888671875 310.241210938 c 0,48,49
 98.294921875 290.486328125 98.294921875 290.486328125 84.392578125 265.6796875 c 128,-1,50
 70.490234375 240.873046875 70.490234375 240.873046875 65.2705078125 213.182617188 c 0,51,52
 61.224609375 194.900390625 61.224609375 194.900390625 61.224609375 175.826171875 c 0,53,54
 61.224609375 146.62109375 61.224609375 146.62109375 70.412109375 118.482421875 c 128,-1,55
 79.599609375 90.34375 79.599609375 90.34375 96.63671875 66.310546875 c 0,56,57
 125.079101562 26.189453125 125.079101562 26.189453125 167.736328125 6.4365234375 c 0,58,59
 205.16796875 -11.9736328125 205.16796875 -11.9736328125 248.440429688 -11.9736328125 c 0,60,61
 304.29296875 -11.9736328125 304.29296875 -11.9736328125 349.818359375 17.3349609375 c 1,62,63
 394.60546875 -11.833984375 394.60546875 -11.833984375 450.642578125 -11.833984375 c 0,64,65
 484.62109375 -11.833984375 484.62109375 -11.833984375 516.5546875 -0.2783203125 c 128,-1,66
 548.48828125 11.27734375 548.48828125 11.27734375 573.499023438 33.69140625 c 1,67,68
 604.6875 59.787109375 604.6875 59.787109375 621.453125 97.68359375 c 128,-1,69
 638.219726562 135.580078125 638.219726562 135.580078125 638.219726562 176.618164062 c 0,70,71
 638.219726562 224.751953125 638.219726562 224.751953125 615.66796875 264.809570312 c 1,72,73
 594.806640625 304.711914062 594.806640625 304.711914062 555.654296875 330.802734375 c 0,74,75
 507.139648438 363.129882812 507.139648438 363.129882812 450.010742188 363.129882812 c 0,76,77
 425.778320312 363.129882812 425.778320312 363.129882812 403.00390625 356.7421875 c 0,78,79
 374.665039062 349.28125 374.665039062 349.28125 349.895507812 333.458984375 c 1,80,81
 303.611328125 363.07421875 303.611328125 363.07421875 248.818359375 362.935546875 c 0,82,83
 248.341796875 362.935546875 248.341796875 362.935546875 247.390625 362.947265625 c 128,-1,84
 246.440429688 362.958984375 246.440429688 362.958984375 245.96484375 362.958984375 c 0,45,46
631.799804688 200.243164062 m 4,85,86
 631.799804688 202.030273438 631.799804688 202.030273438 630.53515625 203.295898438 c 132,-1,87
 629.26953125 204.561523438 629.26953125 204.561523438 627.482421875 204.561523438 c 132,-1,88
 625.701171875 204.561523438 625.701171875 204.561523438 624.436523438 203.303710938 c 132,-1,89
 623.172851562 202.045898438 623.172851562 202.045898438 623.1640625 200.265625 c 4,90,91
 622.326171875 193.712890625 622.326171875 193.712890625 622.0390625 184.6015625 c 5,92,93
 620.797851562 215.974609375 620.797851562 215.974609375 619.979492188 227.919921875 c 4,94,95
 619.392578125 236.490234375 619.392578125 236.490234375 618.740234375 241.278320312 c 132,-1,96
 618.091796875 246.044921875 618.091796875 246.044921875 617.189453125 247.967773438 c 4,97,98
 615.817382812 250.892578125 615.817382812 250.892578125 612.875 250.892578125 c 4,99,100
 610.607421875 250.892578125 610.607421875 250.892578125 609.193359375 249.018554688 c 4,101,102
 608.435546875 248.012695312 608.435546875 248.012695312 608.0078125 246.26953125 c 132,-1,103
 607.547851562 244.39453125 607.547851562 244.39453125 607.149414062 240.586914062 c 4,104,105
 606.3984375 233.41796875 606.3984375 233.41796875 605.685546875 217.724609375 c 4,106,107
 605.060546875 203.936523438 605.060546875 203.936523438 603.958007812 169.204101562 c 5,108,109
 603.916992188 170.859375 603.916992188 170.859375 603.53125 174.19140625 c 132,-1,110
 603.14453125 177.524414062 603.14453125 177.524414062 603.103515625 179.197265625 c 4,111,112
 601.827148438 231.982421875 601.827148438 231.982421875 600.989257812 250.913085938 c 4,113,114
 600.392578125 264.40234375 600.392578125 264.40234375 599.725585938 271.141601562 c 4,115,116
 599.215820312 276.296875 599.215820312 276.296875 598.55078125 278.258789062 c 4,117,118
 598.201171875 279.29296875 598.201171875 279.29296875 597.655273438 280.020507812 c 4,119,120
 596.259765625 281.881835938 596.259765625 281.881835938 594.004882812 281.881835938 c 4,121,122
 592.547851562 281.881835938 592.547851562 281.881835938 591.364257812 281.01953125 c 132,-1,123
 590.3359375 280.26953125 590.3359375 280.26953125 589.766601562 279.006835938 c 132,-1,124
 589.231445312 277.818359375 589.231445312 277.818359375 588.875976562 275.337890625 c 4,125,126
 588.37109375 271.81640625 588.37109375 271.81640625 587.924804688 264.27734375 c 4,127,128
 587.359375 254.743164062 587.359375 254.743164062 586.833007812 237.77734375 c 4,129,130
 586.24609375 218.845703125 586.24609375 218.845703125 585.263671875 171.435546875 c 5,131,132
 585.2421875 172.521484375 585.2421875 172.521484375 584.970703125 174.6953125 c 132,-1,133
 584.69921875 176.869140625 584.69921875 176.869140625 584.677734375 177.95703125 c 4,134,135
 583.39453125 243.637695312 583.39453125 243.637695312 582.552734375 266.841796875 c 4,136,137
 581.955078125 283.328125 581.955078125 283.328125 581.287109375 291.28125 c 4,138,139
 580.951171875 295.275390625 580.951171875 295.275390625 580.576171875 297.372070312 c 4,140,141
 580.36328125 298.556640625 580.36328125 298.556640625 580.100585938 299.333984375 c 4,142,143
 579.626953125 300.73828125 579.626953125 300.73828125 578.703125 301.609375 c 4,144,145
 577.396484375 302.837890625 577.396484375 302.837890625 575.626953125 302.837890625 c 4,146,147
 572.771484375 302.837890625 572.771484375 302.837890625 571.478515625 300.115234375 c 4,148,149
 570.970703125 299.044921875 570.970703125 299.044921875 570.655273438 296.94140625 c 4,150,151
 568.8671875 285.018554688 568.8671875 285.018554688 567.315429688 173.31640625 c 5,152,153
 565.967773438 251.436523438 565.967773438 251.436523438 565.069335938 279.43359375 c 4,154,155
 564.470703125 298.090820312 564.470703125 298.090820312 563.801757812 306.931640625 c 4,156,157
 563.466796875 311.3515625 563.466796875 311.3515625 563.094726562 313.592773438 c 4,158,159
 562.515625 317.068359375 562.515625 317.068359375 560.736328125 318.323242188 c 4,160,161
 559.580078125 319.137695312 559.580078125 319.137695312 558.172851562 319.137695312 c 132,-1,162
 556.670898438 319.137695312 556.670898438 319.137695312 555.470703125 318.220703125 c 4,163,164
 554.487304688 317.470703125 554.487304688 317.470703125 553.95703125 316.244140625 c 132,-1,165
 553.484375 315.150390625 553.484375 315.150390625 553.168945312 312.91015625 c 4,166,167
 551.284179688 299.494140625 551.284179688 299.494140625 548.979492188 173.5625 c 4,168,169
 548.698242188 158.162109375 548.698242188 158.162109375 548.50390625 147.891601562 c 5,170,171
 546.57421875 264.8203125 546.57421875 264.8203125 545.905273438 287.506835938 c 4,172,173
 545.306640625 307.803710938 545.306640625 307.803710938 544.637695312 317.32421875 c 4,174,175
 544.3046875 322.068359375 544.3046875 322.068359375 543.93359375 324.416992188 c 132,-1,176
 543.57421875 326.693359375 543.57421875 326.693359375 542.89453125 327.809570312 c 132,-1,177
 542.21875 328.919921875 542.21875 328.919921875 541.109375 329.510742188 c 132,-1,178
 540.134765625 330.029296875 540.134765625 330.029296875 539.029296875 330.029296875 c 4,179,180
 537.443359375 330.029296875 537.443359375 330.029296875 536.208984375 329.017578125 c 4,181,182
 535.265625 328.244140625 535.265625 328.244140625 534.76953125 327.013671875 c 132,-1,183
 534.322265625 325.90234375 534.322265625 325.90234375 534.017578125 323.564453125 c 4,184,185
 532.133789062 309.141601562 532.133789062 309.141601562 529.875976562 173.55078125 c 4,186,187
 529.611328125 157.631835938 529.611328125 157.631835938 529.427734375 146.982421875 c 5,188,189
 527.55078125 268.578125 527.55078125 268.578125 526.85546875 293.5546875 c 4,190,191
 526.255859375 315.068359375 526.255859375 315.068359375 525.586914062 325.09375 c 4,192,193
 525.25390625 330.079101562 525.25390625 330.079101562 524.884765625 332.504882812 c 132,-1,194
 524.520507812 334.890625 524.520507812 334.890625 523.795898438 336.030273438 c 132,-1,195
 522.977539062 337.31640625 522.977539062 337.31640625 521.606445312 337.853515625 c 4,196,197
 519.125 338.829101562 519.125 338.829101562 517.090820312 337.078125 c 4,198,199
 516.177734375 336.291015625 516.177734375 336.291015625 515.705078125 335.056640625 c 132,-1,200
 515.274414062 333.931640625 515.274414062 333.931640625 514.977539062 331.5234375 c 4,201,202
 513.109375 316.37890625 513.109375 316.37890625 511.001953125 173.844726562 c 5,203,204
 510.997070312 174.162109375 510.997070312 174.162109375 510.642578125 174.796875 c 132,-1,205
 510.288085938 175.431640625 510.288085938 175.431640625 510.283203125 175.749023438 c 4,206,207
 508.9921875 266.623046875 508.9921875 266.623046875 508.1484375 298.165039062 c 4,208,209
 507.548828125 320.552734375 507.548828125 320.552734375 506.879882812 330.90625 c 4,210,211
 506.546875 336.0546875 506.546875 336.0546875 506.177734375 338.529296875 c 132,-1,212
 505.80859375 341.005859375 505.80859375 341.005859375 505.037109375 342.163085938 c 4,213,214
 504.072265625 343.608398438 504.072265625 343.608398438 502.447265625 344.046875 c 4,215,216
 500.140625 344.66796875 500.140625 344.66796875 498.34375 343.0703125 c 4,217,218
 497.44921875 342.275390625 497.44921875 342.275390625 496.993164062 341.04296875 c 132,-1,219
 496.571289062 339.90625 496.571289062 339.90625 496.276367188 337.443359375 c 4,220,221
 494.397460938 321.760742188 494.397460938 321.760742188 492.224609375 174.124023438 c 5,222,223
 492.22265625 174.3125 492.22265625 174.3125 491.831054688 174.689453125 c 132,-1,224
 491.440429688 175.06640625 491.440429688 175.06640625 491.4375 175.254882812 c 4,225,226
 490.404296875 249.927734375 490.404296875 249.927734375 489.786132812 279.93359375 c 4,227,228
 489.083984375 313.939453125 489.083984375 313.939453125 488.310546875 329.48046875 c 4,229,230
 487.918945312 337.361328125 487.918945312 337.361328125 487.485351562 341.0546875 c 132,-1,231
 487.053710938 344.7265625 487.053710938 344.7265625 486.045898438 346.075195312 c 4,232,233
 484.684570312 347.897460938 484.684570312 347.897460938 482.45703125 347.897460938 c 4,234,235
 480.75 347.897460938 480.75 347.897460938 479.473632812 346.740234375 c 4,236,237
 478.58984375 345.939453125 478.58984375 345.939453125 478.142578125 344.701171875 c 132,-1,238
 477.73046875 343.55859375 477.73046875 343.55859375 477.447265625 341.068359375 c 4,239,240
 475.634765625 325.138671875 475.634765625 325.138671875 474.09765625 175.125 c 5,241,242
 472.018554688 327.3203125 472.018554688 327.3203125 470.080078125 344.046875 c 4,243,244
 469.790039062 346.5546875 469.790039062 346.5546875 469.379882812 347.703125 c 132,-1,245
 468.953125 348.904296875 468.953125 348.904296875 468.12109375 349.6953125 c 4,246,247
 466.826171875 350.930664062 466.826171875 350.930664062 465.053710938 350.930664062 c 132,-1,248
 463.338867188 350.930664062 463.338867188 350.930664062 462.059570312 349.764648438 c 4,249,250
 461.18359375 348.96484375 461.18359375 348.96484375 460.737304688 347.731445312 c 132,-1,251
 460.323242188 346.583984375 460.323242188 346.583984375 460.03125 344.073242188 c 4,252,253
 458.153320312 327.935546875 458.153320312 327.935546875 456.055664062 176.021484375 c 4,254,255
 456.0546875 175.999023438 456.0546875 175.999023438 455.70703125 175.955078125 c 132,-1,256
 455.357421875 175.912109375 455.357421875 175.912109375 455.357421875 175.889648438 c 5,257,258
 453.2890625 327.633789062 453.2890625 327.633789062 451.415039062 343.752929688 c 4,259,260
 451.123046875 346.26171875 451.123046875 346.26171875 450.708984375 347.408203125 c 132,-1,261
 450.263671875 348.642578125 450.263671875 348.642578125 449.385742188 349.44140625 c 4,262,263
 447.970703125 350.731445312 447.970703125 350.731445312 446.075195312 350.595703125 c 132,-1,264
 444.10546875 350.455078125 444.10546875 350.455078125 442.865234375 348.86328125 c 4,265,266
 441.802734375 347.501953125 441.802734375 347.501953125 441.359375 343.711914062 c 4,267,268
 439.462890625 327.505859375 439.462890625 327.505859375 437.180664062 176.091796875 c 4,269,270
 436.892578125 157.017578125 436.892578125 157.017578125 436.69921875 144.635742188 c 5,271,272
 436.52734375 156.663085938 436.52734375 156.663085938 436.2734375 175.071289062 c 4,273,274
 434.208007812 324.953125 434.208007812 324.953125 432.338867188 340.873046875 c 4,275,276
 432.046875 343.360351562 432.046875 343.360351562 431.630859375 344.501953125 c 132,-1,277
 431.1796875 345.736328125 431.1796875 345.736328125 430.296875 346.533203125 c 4,278,279
 428.647460938 348.022460938 428.647460938 348.022460938 426.48046875 347.604492188 c 4,280,281
 423.171875 346.966796875 423.171875 346.966796875 422.4453125 342.014648438 c 4,282,283
 422.079101562 339.517578125 422.079101562 339.517578125 421.75390625 334.296875 c 4,284,285
 421.09765625 323.7890625 421.09765625 323.7890625 420.526367188 300.995117188 c 4,286,287
 419.72265625 268.881835938 419.72265625 268.881835938 418.548828125 176.23046875 c 5,288,289
 416.56640625 316.740234375 416.56640625 316.740234375 414.166992188 336.70703125 c 4,290,291
 413.873046875 339.155273438 413.873046875 339.155273438 413.44921875 340.2890625 c 132,-1,292
 412.98828125 341.5234375 412.98828125 341.5234375 412.08984375 342.315429688 c 4,293,294
 410.2265625 343.95703125 410.2265625 343.95703125 407.869140625 343.2421875 c 4,295,296
 406.315429688 342.771484375 406.315429688 342.771484375 405.392578125 341.372070312 c 4,297,298
 404.633789062 340.220703125 404.633789062 340.220703125 404.263671875 337.768554688 c 132,-1,299
 403.892578125 335.305664062 403.892578125 335.305664062 403.553710938 330.196289062 c 4,300,301
 402.873046875 319.91796875 402.873046875 319.91796875 402.250976562 297.749023438 c 4,302,303
 401.372070312 266.48046875 401.372070312 266.48046875 399.984375 176.546875 c 4,304,305
 399.978515625 176.158203125 399.978515625 176.158203125 399.563476562 175.37890625 c 132,-1,306
 399.1484375 174.600585938 399.1484375 174.600585938 399.142578125 174.2109375 c 5,307,308
 397.081054688 314.712890625 397.081054688 314.712890625 395.21875 329.643554688 c 4,309,310
 394.921875 332.03125 394.921875 332.03125 394.487304688 333.15234375 c 132,-1,311
 394.0078125 334.38671875 394.0078125 334.38671875 393.086914062 335.169921875 c 4,312,313
 391.8359375 336.232421875 391.8359375 336.232421875 390.208007812 336.232421875 c 4,314,315
 389.284179688 336.232421875 389.284179688 336.232421875 388.443359375 335.865234375 c 4,316,317
 387.15625 335.305664062 387.15625 335.305664062 386.384765625 334.076171875 c 132,-1,318
 385.674804688 332.9453125 385.674804688 332.9453125 385.309570312 330.592773438 c 132,-1,319
 384.935546875 328.185546875 384.935546875 328.185546875 384.59375 323.264648438 c 4,320,321
 383.908203125 313.384765625 383.908203125 313.384765625 383.272460938 292.1796875 c 4,322,323
 382.5546875 268.255859375 382.5546875 268.255859375 380.41796875 146.21484375 c 5,324,325
 380.248046875 156.6640625 380.248046875 156.6640625 379.9921875 173.1640625 c 4,326,327
 377.934570312 305.69140625 377.934570312 305.69140625 376.076171875 319.791992188 c 4,328,329
 375.771484375 322.099609375 375.771484375 322.099609375 375.318359375 323.203125 c 132,-1,330
 374.813476562 324.435546875 374.813476562 324.435546875 373.857421875 325.204101562 c 4,331,332
 372.6328125 326.189453125 372.6328125 326.189453125 371.0703125 326.189453125 c 4,333,334
 369.861328125 326.189453125 369.861328125 326.189453125 368.818359375 325.57421875 c 4,335,336
 366.76171875 324.361328125 366.76171875 324.361328125 366.161132812 320.588867188 c 4,337,338
 365.791015625 318.26953125 365.791015625 318.26953125 365.461914062 313.619140625 c 4,339,340
 364.802734375 304.291015625 364.802734375 304.291015625 364.223632812 284.485351562 c 4,341,342
 363.408203125 256.559570312 363.408203125 256.559570312 362.203125 176.743164062 c 5,343,344
 361.576171875 214.294921875 361.576171875 214.294921875 359.530273438 279.771484375 c 4,345,346
 358.9296875 298.994140625 358.9296875 298.994140625 358.256835938 308.067382812 c 4,347,348
 357.921875 312.599609375 357.921875 312.599609375 357.546875 314.877929688 c 4,349,350
 356.954101562 318.486328125 356.954101562 318.486328125 355.052734375 319.724609375 c 4,351,352
 353.9453125 320.447265625 353.9453125 320.447265625 352.625976562 320.447265625 c 132,-1,353
 351.110351562 320.447265625 351.110351562 320.447265625 349.904296875 319.513671875 c 4,354,355
 348.922851562 318.755859375 348.922851562 318.755859375 348.400390625 317.5234375 c 132,-1,356
 347.935546875 316.426757812 347.935546875 316.426757812 347.6328125 314.1796875 c 4,357,358
 345.811523438 300.6796875 345.811523438 300.6796875 344.0625 173.8671875 c 5,359,360
 344.052734375 174.4609375 344.052734375 174.4609375 343.899414062 175.649414062 c 132,-1,361
 343.74609375 176.837890625 343.74609375 176.837890625 343.736328125 177.431640625 c 4,362,363
 342.447265625 260.24609375 342.447265625 260.24609375 341.603515625 289.168945312 c 4,364,365
 341.00390625 309.681640625 341.00390625 309.681640625 340.3359375 319.2890625 c 4,366,367
 340.001953125 324.07421875 340.001953125 324.07421875 339.630859375 326.440429688 c 132,-1,368
 339.271484375 328.735351562 339.271484375 328.735351562 338.584960938 329.854492188 c 132,-1,369
 337.888671875 330.991210938 337.888671875 330.991210938 336.744140625 331.577148438 c 132,-1,370
 335.796875 332.0625 335.796875 332.0625 334.727539062 332.0625 c 4,371,372
 333.131835938 332.0625 333.131835938 332.0625 331.893554688 331.038085938 c 4,373,374
 330.953125 330.259765625 330.953125 330.259765625 330.462890625 329.025390625 c 132,-1,375
 330.020507812 327.912109375 330.020507812 327.912109375 329.721679688 325.56640625 c 4,376,377
 327.876953125 311.064453125 327.876953125 311.064453125 325.953125 174.650390625 c 5,378,379
 325.946289062 175.096679688 325.946289062 175.096679688 325.696289062 175.990234375 c 132,-1,380
 325.4453125 176.8828125 325.4453125 176.8828125 325.439453125 177.330078125 c 4,381,382
 324.1484375 265.1328125 324.1484375 265.1328125 323.3046875 295.681640625 c 4,383,384
 322.705078125 317.357421875 322.705078125 317.357421875 322.036132812 327.432617188 c 4,385,386
 321.703125 332.446289062 321.703125 332.446289062 321.333007812 334.879882812 c 132,-1,387
 320.96875 337.283203125 320.96875 337.283203125 320.235351562 338.42578125 c 132,-1,388
 319.390625 339.740234375 319.390625 339.740234375 317.9765625 340.26171875 c 4,389,390
 315.522460938 341.169921875 315.522460938 341.169921875 313.532226562 339.4453125 c 4,391,392
 312.62109375 338.65625 312.62109375 338.65625 312.15234375 337.422851562 c 132,-1,393
 311.724609375 336.296875 311.724609375 336.296875 311.428710938 333.877929688 c 4,394,395
 309.56640625 318.639648438 309.56640625 318.639648438 307.521484375 175.245117188 c 5,396,397
 307.517578125 175.5390625 307.517578125 175.5390625 307.198242188 176.127929688 c 132,-1,398
 306.87890625 176.716796875 306.87890625 176.716796875 306.875 177.010742188 c 4,399,400
 305.583984375 268.375 305.583984375 268.375 304.73828125 300.076171875 c 4,401,402
 304.138671875 322.578125 304.138671875 322.578125 303.469726562 332.97265625 c 4,403,404
 303.13671875 338.143554688 303.13671875 338.143554688 302.767578125 340.62109375 c 4,405,406
 301.923828125 346.287109375 301.923828125 346.287109375 297.887695312 346.287109375 c 4,407,408
 296.19921875 346.287109375 296.19921875 346.287109375 294.927734375 345.153320312 c 4,409,410
 294.0390625 344.359375 294.0390625 344.359375 293.583007812 343.12890625 c 132,-1,411
 293.162109375 341.991210938 293.162109375 341.991210938 292.862304688 339.517578125 c 4,412,413
 290.952148438 323.732421875 290.952148438 323.732421875 288.502929688 175.1171875 c 4,414,415
 288.1484375 153.5625 288.1484375 153.5625 287.9140625 139.946289062 c 5,416,417
 286.1328125 262.526367188 286.1328125 262.526367188 285.756835938 280.837890625 c 4,418,419
 285.0546875 314.931640625 285.0546875 314.931640625 284.28125 330.501953125 c 4,420,421
 283.888671875 338.40234375 283.888671875 338.40234375 283.455078125 342.090820312 c 132,-1,422
 283.022460938 345.780273438 283.022460938 345.780273438 281.997070312 347.131835938 c 4,423,424
 280.63671875 348.924804688 280.63671875 348.924804688 278.4296875 348.924804688 c 4,425,426
 276.720703125 348.924804688 276.720703125 348.924804688 275.443359375 347.765625 c 4,427,428
 274.5625 346.966796875 274.5625 346.966796875 274.115234375 345.73046875 c 132,-1,429
 273.701171875 344.5859375 273.701171875 344.5859375 273.413085938 342.088867188 c 4,430,431
 271.5625 326.081054688 271.5625 326.081054688 269.688476562 175.358398438 c 5,432,433
 269.6875 175.46484375 269.6875 175.46484375 269.462890625 175.6796875 c 132,-1,434
 269.23828125 175.893554688 269.23828125 175.893554688 269.237304688 176.000976562 c 4,435,436
 267.166992188 327.73828125 267.166992188 327.73828125 265.291992188 343.891601562 c 4,437,438
 265.000976562 346.400390625 265.000976562 346.400390625 264.588867188 347.548828125 c 4,439,440
 263.458984375 350.697265625 263.458984375 350.697265625 260.267578125 350.76171875 c 4,441,442
 258.552734375 350.76171875 258.552734375 350.76171875 257.274414062 349.595703125 c 4,443,444
 256.396484375 348.794921875 256.396484375 348.794921875 255.951171875 347.560546875 c 132,-1,445
 255.537109375 346.412109375 255.537109375 346.412109375 255.247070312 343.90234375 c 4,446,447
 253.3828125 327.776367188 253.3828125 327.776367188 251.41796875 175.95703125 c 4,448,449
 251.41796875 175.954101562 251.41796875 175.954101562 251.142578125 175.947265625 c 132,-1,450
 250.869140625 175.940429688 250.869140625 175.940429688 250.869140625 175.9375 c 5,451,452
 248.80078125 327.588867188 248.80078125 327.588867188 246.926757812 343.696289062 c 4,453,454
 246.634765625 346.203125 246.634765625 346.203125 246.220703125 347.350585938 c 132,-1,455
 245.775390625 348.583984375 245.775390625 348.583984375 244.897460938 349.383789062 c 4,456,457
 243.466796875 350.6875 243.466796875 350.6875 241.548828125 350.534179688 c 132,-1,458
 239.595703125 350.376953125 239.595703125 350.376953125 238.368164062 348.79296875 c 4,459,460
 237.3125 347.431640625 237.3125 347.431640625 236.876953125 343.649414062 c 4,461,462
 235.01171875 327.4765625 235.01171875 327.4765625 233.02734375 176.568359375 c 5,463,464
 231.048828125 319.81640625 231.048828125 319.81640625 228.520507812 341.310546875 c 4,465,466
 228.228515625 343.793945312 228.228515625 343.793945312 227.811523438 344.935546875 c 132,-1,467
 227.361328125 346.169921875 227.361328125 346.169921875 226.475585938 346.966796875 c 4,468,469
 224.807617188 348.469726562 224.807617188 348.469726562 222.622070312 348.02734375 c 4,470,471
 219.354492188 347.365234375 219.354492188 347.365234375 218.625 342.450195312 c 4,472,473
 218.25390625 339.955078125 218.25390625 339.955078125 217.918945312 334.739257812 c 4,474,475
 217.244140625 324.243164062 217.244140625 324.243164062 216.6328125 301.48046875 c 4,476,477
 215.76953125 269.396484375 215.76953125 269.396484375 214.428710938 176.901367188 c 5,478,479
 212.494140625 313.486328125 212.494140625 313.486328125 209.744140625 336.290039062 c 4,480,481
 209.44921875 338.731445312 209.44921875 338.731445312 209.025390625 339.86328125 c 132,-1,482
 208.5625 341.09765625 208.5625 341.09765625 207.661132812 341.889648438 c 4,483,484
 205.748046875 343.5703125 205.748046875 343.5703125 203.344726562 342.779296875 c 4,485,486
 201.842773438 342.283203125 201.842773438 342.283203125 200.953125 340.913085938 c 4,487,488
 200.205078125 339.763671875 200.205078125 339.763671875 199.841796875 337.328125 c 132,-1,489
 199.474609375 334.87109375 199.474609375 334.87109375 199.145507812 329.7890625 c 4,490,491
 198.484375 319.56640625 198.484375 319.56640625 197.90234375 297.54296875 c 4,492,493
 197.08203125 266.50390625 197.08203125 266.50390625 195.862304688 177.194335938 c 5,494,495
 193.912109375 309.329101562 193.912109375 309.329101562 191.40234375 329.305664062 c 4,496,497
 191.104492188 331.681640625 191.104492188 331.681640625 190.66796875 332.80078125 c 132,-1,498
 190.185546875 334.03515625 190.185546875 334.03515625 189.259765625 334.81640625 c 4,499,500
 188.01171875 335.869140625 188.01171875 335.869140625 186.392578125 335.869140625 c 4,501,502
 185.408203125 335.869140625 185.408203125 335.869140625 184.522460938 335.455078125 c 4,503,504
 183.29296875 334.880859375 183.29296875 334.880859375 182.552734375 333.6875 c 132,-1,505
 181.854492188 332.5625 181.854492188 332.5625 181.490234375 330.228515625 c 132,-1,506
 181.1171875 327.833007812 181.1171875 327.833007812 180.776367188 322.9453125 c 4,507,508
 180.090820312 313.12890625 180.090820312 313.12890625 179.456054688 292.119140625 c 4,509,510
 178.73828125 268.376953125 178.73828125 268.376953125 176.61328125 147.634765625 c 5,511,512
 176.451171875 157.545898438 176.451171875 157.545898438 176.193359375 173.9453125 c 4,513,514
 174.13671875 304.928710938 174.13671875 304.928710938 172.278320312 318.866210938 c 4,515,516
 171.973632812 321.15625 171.973632812 321.15625 171.516601562 322.258789062 c 132,-1,517
 171.006835938 323.490234375 171.006835938 323.490234375 170.043945312 324.255859375 c 4,518,519
 168.82421875 325.225585938 168.82421875 325.225585938 167.275390625 325.225585938 c 4,520,521
 163.986328125 325.225585938 163.986328125 325.225585938 162.83984375 321.755859375 c 4,522,523
 162.572265625 320.9453125 162.572265625 320.9453125 162.358398438 319.641601562 c 4,524,525
 161.98046875 317.334960938 161.98046875 317.334960938 161.630859375 312.725585938 c 4,526,527
 160.931640625 303.483398438 160.931640625 303.483398438 160.266601562 283.880859375 c 4,528,529
 159.611328125 264.576171875 159.611328125 264.576171875 157.08984375 143.796875 c 5,530,531
 156.889648438 154.904296875 156.889648438 154.904296875 156.591796875 172.318359375 c 4,532,533
 154.541015625 292.0078125 154.541015625 292.0078125 152.688476562 304.771484375 c 4,534,535
 152.185546875 308.241210938 152.185546875 308.241210938 150.823242188 309.5703125 c 132,-1,536
 149.509765625 310.852539062 149.509765625 310.852539062 147.697265625 310.852539062 c 4,537,538
 146.103515625 310.852539062 146.103515625 310.852539062 144.86328125 309.833007812 c 132,-1,539
 143.759765625 308.926757812 143.759765625 308.926757812 143.236328125 307.3515625 c 4,540,541
 142.97265625 306.556640625 142.97265625 306.556640625 142.764648438 305.32421875 c 4,542,543
 142.396484375 303.146484375 142.396484375 303.146484375 142.07421875 298.915039062 c 4,544,545
 141.431640625 290.474609375 141.431640625 290.474609375 140.892578125 272.801757812 c 4,546,547
 140.1328125 247.923828125 140.1328125 247.923828125 139.088867188 177.267578125 c 5,548,549
 137.188476562 275.00390625 137.188476562 275.00390625 134.990234375 288.354492188 c 4,550,551
 134.444335938 291.666015625 134.444335938 291.666015625 132.942382812 292.958984375 c 4,552,553
 131.673828125 294.049804688 131.673828125 294.049804688 130.018554688 294.049804688 c 4,554,555
 126.728515625 294.049804688 126.728515625 294.049804688 125.521484375 290.51953125 c 4,556,557
 124.84375 288.541015625 124.84375 288.541015625 124.3203125 282.900390625 c 4,558,559
 123.631835938 275.50390625 123.631835938 275.50390625 122.989257812 260.37109375 c 4,560,561
 122.086914062 239.11328125 122.086914062 239.11328125 120.62109375 179.151367188 c 4,562,563
 120.586914062 177.771484375 120.586914062 177.771484375 120.1171875 175.017578125 c 132,-1,564
 119.646484375 172.263671875 119.646484375 172.263671875 119.61328125 170.890625 c 5,565,566
 118.6015625 212.802734375 118.6015625 212.802734375 118.006835938 229.487304688 c 4,567,568
 117.47265625 244.455078125 117.47265625 244.455078125 116.90625 252.881835938 c 4,569,570
 116.45703125 259.567382812 116.45703125 259.567382812 115.948242188 262.711914062 c 4,571,572
 115.35546875 266.377929688 115.35546875 266.377929688 113.802734375 267.727539062 c 4,573,574
 112.51953125 268.841796875 112.51953125 268.841796875 110.83984375 268.841796875 c 4,575,576
 108.3203125 268.841796875 108.3203125 268.841796875 106.91796875 266.600585938 c 4,577,578
 106.21875 265.481445312 106.21875 265.481445312 105.78515625 263.420898438 c 4,579,580
 105.41015625 261.631835938 105.41015625 261.631835938 105.079101562 258.60546875 c 4,581,582
 104.427734375 252.65625 104.427734375 252.65625 103.864257812 241.130859375 c 4,583,584
 103.076171875 224.99609375 103.076171875 224.99609375 101.9375 180.751953125 c 5,585,586
 101.767578125 184.986328125 101.767578125 184.986328125 101.028320312 192.190429688 c 132,-1,587
 100.2890625 199.393554688 100.2890625 199.393554688 100.142578125 202.029296875 c 4,588,589
 99.5263671875 213.069335938 99.5263671875 213.069335938 98.861328125 218.133789062 c 4,590,591
 98.400390625 221.647460938 98.400390625 221.647460938 97.7607421875 223.177734375 c 132,-1,592
 97.177734375 224.572265625 97.177734375 224.572265625 96.1298828125 225.389648438 c 132,-1,593
 94.8857421875 226.359375 94.8857421875 226.359375 93.3251953125 226.359375 c 4,594,595
 91.0751953125 226.359375 91.0751953125 226.359375 89.638671875 224.505859375 c 4,596,597
 88.826171875 223.458984375 88.826171875 223.458984375 88.3037109375 221.521484375 c 4,598,599
 85.5849609375 211.458984375 85.5849609375 211.458984375 84.3662109375 184.21875 c 4,600,601
 83.552734375 166.03515625 83.552734375 166.03515625 83.552734375 147.930664062 c 4,602,603
 83.5546875 146.14453125 83.5546875 146.14453125 84.8203125 144.880859375 c 132,-1,604
 86.0849609375 143.6171875 86.0849609375 143.6171875 87.87109375 143.6171875 c 132,-1,605
 89.6640625 143.6171875 89.6640625 143.6171875 90.927734375 144.89453125 c 132,-1,606
 92.189453125 146.171875 92.189453125 146.171875 92.189453125 148.010742188 c 4,607,608
 92.189453125 148.211914062 92.189453125 148.211914062 92.337890625 150.828125 c 132,-1,609
 92.4853515625 153.444335938 92.4853515625 153.444335938 92.689453125 158.103515625 c 132,-1,610
 92.89453125 162.762695312 92.89453125 162.762695312 93.0029296875 167.401367188 c 5,611,612
 94.2470703125 135.17578125 94.2470703125 135.17578125 95.0673828125 122.924804688 c 4,613,614
 95.654296875 114.142578125 95.654296875 114.142578125 96.3076171875 109.24609375 c 132,-1,615
 96.955078125 104.387695312 96.955078125 104.387695312 97.853515625 102.443359375 c 4,616,617
 99.220703125 99.482421875 99.220703125 99.482421875 102.181640625 99.482421875 c 4,618,619
 104.46875 99.482421875 104.46875 99.482421875 105.877929688 101.3828125 c 4,620,621
 106.624023438 102.388671875 106.624023438 102.388671875 107.03515625 104.12109375 c 132,-1,622
 107.474609375 105.978515625 107.474609375 105.978515625 107.844726562 109.747070312 c 4,623,624
 108.540039062 116.844726562 108.540039062 116.844726562 109.149414062 132.384765625 c 4,625,626
 109.685546875 146.07421875 109.685546875 146.07421875 110.571289062 180.525390625 c 5,627,628
 110.611328125 178.904296875 110.611328125 178.904296875 110.775390625 175.619140625 c 132,-1,629
 110.939453125 172.3359375 110.939453125 172.3359375 110.978515625 170.677734375 c 4,630,631
 112.255859375 117.72265625 112.255859375 117.72265625 113.09375 98.724609375 c 4,632,633
 113.69140625 85.1953125 113.69140625 85.1953125 114.358398438 78.4296875 c 4,634,635
 114.869140625 73.259765625 114.869140625 73.259765625 115.53125 71.2939453125 c 4,636,637
 115.87890625 70.2626953125 115.87890625 70.2626953125 116.422851562 69.5341796875 c 4,638,639
 117.818359375 67.662109375 117.818359375 67.662109375 120.080078125 67.662109375 c 4,640,641
 123.017578125 67.662109375 123.017578125 67.662109375 124.317382812 70.53125 c 4,642,643
 124.857421875 71.7216796875 124.857421875 71.7216796875 125.224609375 74.2177734375 c 4,644,645
 125.74609375 77.7685546875 125.74609375 77.7685546875 126.224609375 85.3720703125 c 4,646,647
 126.830078125 95.0078125 126.830078125 95.0078125 127.423828125 112.09375 c 4,648,649
 127.890625 125.533203125 127.890625 125.533203125 129.727539062 198.005859375 c 5,650,651
 131.765625 99.912109375 131.765625 99.912109375 132.3671875 83.310546875 c 132,-1,652
 132.96484375 66.787109375 132.96484375 66.787109375 133.6328125 58.82421875 c 4,653,654
 133.96875 54.8212890625 133.96875 54.8212890625 134.34375 52.716796875 c 4,655,656
 134.5546875 51.529296875 134.5546875 51.529296875 134.815429688 50.75390625 c 4,657,658
 135.283203125 49.3603515625 135.283203125 49.3603515625 136.18359375 48.4951171875 c 4,659,660
 137.499023438 47.232421875 137.499023438 47.232421875 139.294921875 47.232421875 c 4,661,662
 142.150390625 47.232421875 142.150390625 47.232421875 143.443359375 49.95703125 c 4,663,664
 143.952148438 51.029296875 143.952148438 51.029296875 144.268554688 53.134765625 c 4,665,666
 146.068359375 65.0947265625 146.068359375 65.0947265625 147.724609375 177.137695312 c 5,667,668
 147.73828125 176.309570312 147.73828125 176.309570312 147.83984375 174.65234375 c 132,-1,669
 147.94140625 172.99609375 147.94140625 172.99609375 147.956054688 172.16796875 c 4,670,671
 149.244140625 97.0458984375 149.244140625 97.0458984375 150.0859375 70.7294921875 c 4,672,673
 150.684570312 52.0283203125 150.684570312 52.0283203125 151.353515625 43.166015625 c 4,674,675
 151.6875 38.7353515625 151.6875 38.7353515625 152.060546875 36.490234375 c 4,676,677
 152.63671875 33.015625 152.63671875 33.015625 154.408203125 31.759765625 c 4,678,679
 155.56640625 30.9365234375 155.56640625 30.9365234375 156.983398438 30.9365234375 c 132,-1,680
 158.486328125 30.9365234375 158.486328125 30.9365234375 159.6875 31.85546875 c 4,681,682
 160.669921875 32.6064453125 160.669921875 32.6064453125 161.19921875 33.830078125 c 132,-1,683
 161.673828125 34.92578125 161.673828125 34.92578125 161.991210938 37.169921875 c 4,684,685
 163.900390625 50.6435546875 163.900390625 50.6435546875 166.400390625 177.083984375 c 4,686,687
 166.78125 196.287109375 166.78125 196.287109375 167.014648438 207.59375 c 5,688,689
 169.08203125 83.74609375 169.08203125 83.74609375 169.689453125 63.123046875 c 4,690,691
 170.2890625 42.7998046875 170.2890625 42.7998046875 170.95703125 33.2763671875 c 4,692,693
 171.291015625 28.5263671875 171.291015625 28.5263671875 171.662109375 26.181640625 c 132,-1,694
 172.022460938 23.8984375 172.022460938 23.8984375 172.708984375 22.78125 c 132,-1,695
 173.400390625 21.65625 173.400390625 21.65625 174.528320312 21.072265625 c 132,-1,696
 175.485351562 20.576171875 175.485351562 20.576171875 176.564453125 20.576171875 c 4,697,698
 178.151367188 20.576171875 178.151367188 20.576171875 179.38671875 21.58984375 c 4,699,700
 180.330078125 22.3642578125 180.330078125 22.3642578125 180.82421875 23.5947265625 c 132,-1,701
 181.272460938 24.70703125 181.272460938 24.70703125 181.578125 27.046875 c 4,702,703
 183.465820312 41.5009765625 183.465820312 41.5009765625 185.76171875 177.388671875 c 4,704,705
 186.0390625 193.875 186.0390625 193.875 186.235351562 205.0703125 c 5,706,707
 188.138671875 81.88671875 188.138671875 81.88671875 188.823242188 57.2587890625 c 4,708,709
 189.421875 35.701171875 189.421875 35.701171875 190.091796875 25.669921875 c 4,710,711
 190.423828125 20.6806640625 190.423828125 20.6806640625 190.793945312 18.248046875 c 132,-1,712
 191.158203125 15.859375 191.158203125 15.859375 191.8828125 14.720703125 c 132,-1,713
 192.703125 13.431640625 192.703125 13.431640625 194.078125 12.8935546875 c 4,714,715
 196.560546875 11.923828125 196.560546875 11.923828125 198.590820312 13.67578125 c 4,716,717
 199.50390625 14.46484375 199.50390625 14.46484375 199.974609375 15.69921875 c 132,-1,718
 200.404296875 16.8251953125 200.404296875 16.8251953125 200.698242188 19.2353515625 c 4,719,720
 202.548828125 34.3935546875 202.548828125 34.3935546875 204.498046875 177.07421875 c 5,721,722
 204.501953125 176.744140625 204.501953125 176.744140625 204.767578125 176.083984375 c 132,-1,723
 205.033203125 175.423828125 205.033203125 175.423828125 205.038085938 175.09375 c 4,724,725
 206.328125 84.0302734375 206.328125 84.0302734375 207.173828125 52.427734375 c 4,726,727
 207.771484375 30.0078125 207.771484375 30.0078125 208.44140625 19.6298828125 c 4,728,729
 208.7734375 14.474609375 208.7734375 14.474609375 209.142578125 11.998046875 c 4,730,731
 209.987304688 6.33203125 209.987304688 6.33203125 214.024414062 6.33203125 c 4,732,733
 215.7109375 6.33203125 215.7109375 6.33203125 216.98046875 7.4638671875 c 4,734,735
 217.872070312 8.2578125 217.872070312 8.2578125 218.328125 9.4912109375 c 132,-1,736
 218.748046875 10.62890625 218.748046875 10.62890625 219.04296875 13.095703125 c 4,737,738
 220.919921875 28.810546875 220.919921875 28.810546875 223.064453125 176.774414062 c 5,739,740
 223.06640625 176.599609375 223.06640625 176.599609375 223.44140625 176.251953125 c 132,-1,741
 223.81640625 175.904296875 223.81640625 175.904296875 223.819335938 175.73046875 c 4,742,743
 224.852539062 100.92578125 224.852539062 100.92578125 225.471679688 70.8701171875 c 4,744,745
 226.171875 36.8134765625 226.171875 36.8134765625 226.946289062 21.2490234375 c 4,746,747
 227.338867188 13.353515625 227.338867188 13.353515625 227.772460938 9.6650390625 c 132,-1,748
 228.205078125 5.982421875 228.205078125 5.982421875 229.224609375 4.6318359375 c 4,749,750
 230.583984375 2.828125 230.583984375 2.828125 232.798828125 2.828125 c 4,751,752
 234.5078125 2.828125 234.5078125 2.828125 235.784179688 3.986328125 c 4,753,754
 236.665039062 4.78515625 236.665039062 4.78515625 237.11328125 6.01953125 c 132,-1,755
 237.52734375 7.1640625 237.52734375 7.1640625 237.818359375 9.662109375 c 4,756,757
 239.6796875 25.67578125 239.6796875 25.67578125 241.663085938 176.452148438 c 5,758,759
 241.6640625 176.345703125 241.6640625 176.345703125 241.948242188 176.134765625 c 132,-1,760
 242.232421875 175.922851562 242.232421875 175.922851562 242.233398438 175.817382812 c 4,761,762
 244.302734375 24.10546875 244.302734375 24.10546875 246.177734375 7.93359375 c 4,763,764
 246.46875 5.4248046875 246.46875 5.4248046875 246.879882812 4.2763671875 c 4,765,766
 247.998046875 1.150390625 247.998046875 1.150390625 251.203125 1.056640625 c 4,767,768
 252.91796875 1.056640625 252.91796875 1.056640625 254.197265625 2.22265625 c 4,769,770
 255.076171875 3.0234375 255.076171875 3.0234375 255.520507812 4.2578125 c 132,-1,771
 255.934570312 5.40625 255.934570312 5.40625 256.224609375 7.916015625 c 4,772,773
 258.087890625 24.0400390625 258.087890625 24.0400390625 260.052734375 175.84375 c 4,774,775
 260.052734375 175.849609375 260.052734375 175.849609375 260.327148438 175.862304688 c 132,-1,776
 260.6015625 175.875 260.6015625 175.875 260.6015625 175.880859375 c 5,777,778
 262.669921875 24.20703125 262.669921875 24.20703125 264.543945312 8.09765625 c 4,779,780
 264.8359375 5.58984375 264.8359375 5.58984375 265.25 4.4423828125 c 132,-1,781
 265.6953125 3.208984375 265.6953125 3.208984375 266.573242188 2.4091796875 c 4,782,783
 267.998046875 1.1123046875 267.998046875 1.1123046875 269.904296875 1.2578125 c 132,-1,784
 271.865234375 1.40625 271.865234375 1.40625 273.099609375 2.9951171875 c 4,785,786
 274.158203125 4.359375 274.158203125 4.359375 274.591796875 8.1435546875 c 4,787,788
 276.447265625 24.310546875 276.447265625 24.310546875 278.32421875 175.249023438 c 5,789,790
 280.323242188 30.3505859375 280.323242188 30.3505859375 282.709960938 10.041015625 c 4,791,792
 283.001953125 7.5537109375 283.001953125 7.5537109375 283.418945312 6.412109375 c 132,-1,793
 283.869140625 5.1787109375 283.869140625 5.1787109375 284.75390625 4.380859375 c 4,794,795
 286.388671875 2.908203125 286.388671875 2.908203125 288.536132812 3.3056640625 c 4,796,797
 291.861328125 3.921875 291.861328125 3.921875 292.607421875 8.884765625 c 4,798,799
 292.982421875 11.380859375 292.982421875 11.380859375 293.328125 16.609375 c 4,800,801
 294.0234375 27.134765625 294.0234375 27.134765625 294.681640625 49.9638671875 c 4,802,803
 295.391601562 74.59375 295.391601562 74.59375 297.745117188 211.171875 c 5,804,805
 297.939453125 198.098632812 297.939453125 198.098632812 298.239257812 176.88671875 c 4,806,807
 300.302734375 30.83984375 300.302734375 30.83984375 302.168945312 15.3271484375 c 4,808,809
 302.462890625 12.880859375 302.462890625 12.880859375 302.88671875 11.748046875 c 132,-1,810
 303.34765625 10.513671875 303.34765625 10.513671875 304.247070312 9.7216796875 c 4,811,812
 306.106445312 8.083984375 306.106445312 8.083984375 308.462890625 8.794921875 c 4,813,814
 310.017578125 9.265625 310.017578125 9.265625 310.94140625 10.6650390625 c 4,815,816
 311.701171875 11.8173828125 311.701171875 11.8173828125 312.069335938 14.2685546875 c 132,-1,817
 312.439453125 16.7294921875 312.439453125 16.7294921875 312.771484375 21.826171875 c 4,818,819
 313.439453125 32.07421875 313.439453125 32.07421875 314.036132812 54.201171875 c 4,820,821
 314.876953125 85.37890625 314.876953125 85.37890625 316.157226562 175.120117188 c 5,822,823
 318.095703125 43.048828125 318.095703125 43.048828125 320.728515625 21.98046875 c 4,824,825
 321.026367188 19.59375 321.026367188 19.59375 321.4609375 18.4736328125 c 132,-1,826
 321.940429688 17.240234375 321.940429688 17.240234375 322.864257812 16.4560546875 c 4,827,828
 324.11328125 15.396484375 324.11328125 15.396484375 325.740234375 15.396484375 c 4,829,830
 326.662109375 15.396484375 326.662109375 15.396484375 327.50390625 15.7626953125 c 4,831,832
 328.7890625 16.322265625 328.7890625 16.322265625 329.563476562 17.552734375 c 132,-1,833
 330.274414062 18.685546875 330.274414062 18.685546875 330.634765625 21.0380859375 c 132,-1,834
 331.002929688 23.4375 331.002929688 23.4375 331.331054688 28.34375 c 4,835,836
 331.991210938 38.2041015625 331.991210938 38.2041015625 332.568359375 59.3193359375 c 4,837,838
 333.383789062 89.091796875 333.383789062 89.091796875 334.588867188 174.525390625 c 5,839,840
 336.525390625 49.8759765625 336.525390625 49.8759765625 339.015625 31.021484375 c 4,841,842
 339.3203125 28.720703125 339.3203125 28.720703125 339.7734375 27.615234375 c 132,-1,843
 340.279296875 26.3828125 340.279296875 26.3828125 341.236328125 25.615234375 c 4,844,845
 342.4609375 24.6328125 342.4609375 24.6328125 344.020507812 24.6328125 c 4,846,847
 345.2421875 24.6328125 345.2421875 24.6328125 346.291992188 25.2587890625 c 4,848,849
 348.333984375 26.4765625 348.333984375 26.4765625 348.9296875 30.2373046875 c 4,850,851
 349.296875 32.552734375 349.296875 32.552734375 349.620117188 37.1962890625 c 4,852,853
 350.267578125 46.5009765625 350.267578125 46.5009765625 350.8203125 66.2685546875 c 4,854,855
 351.599609375 94.119140625 351.599609375 94.119140625 352.697265625 173.745117188 c 5,856,857
 353.560546875 122.02734375 353.560546875 122.02734375 355.173828125 70.35546875 c 4,858,859
 355.775390625 51.1162109375 355.775390625 51.1162109375 356.446289062 42.0244140625 c 4,860,861
 356.78125 37.484375 356.78125 37.484375 357.155273438 35.19140625 c 4,862,863
 357.732421875 31.650390625 357.732421875 31.650390625 359.534179688 30.390625 c 4,864,865
 360.68359375 29.587890625 360.68359375 29.587890625 362.08203125 29.587890625 c 132,-1,866
 363.600585938 29.587890625 363.600585938 29.587890625 364.807617188 30.5234375 c 4,867,868
 365.78515625 31.28125 365.78515625 31.28125 366.307617188 32.51171875 c 132,-1,869
 366.772460938 33.607421875 366.772460938 33.607421875 367.078125 35.859375 c 4,870,871
 368.91796875 49.40234375 368.91796875 49.40234375 370.837890625 176.610351562 c 5,872,873
 370.84765625 176.013671875 370.84765625 176.013671875 371.09765625 174.819335938 c 132,-1,874
 371.34765625 173.625 371.34765625 173.625 371.357421875 173.02734375 c 4,875,876
 372.645507812 90.04296875 372.645507812 90.04296875 373.489257812 61.0830078125 c 4,877,878
 374.087890625 40.53515625 374.087890625 40.53515625 374.756835938 30.9130859375 c 4,879,880
 375.08984375 26.119140625 375.08984375 26.119140625 375.4609375 23.7529296875 c 132,-1,881
 375.8203125 21.455078125 375.8203125 21.455078125 376.506835938 20.3359375 c 132,-1,882
 377.20703125 19.1953125 377.20703125 19.1953125 378.356445312 18.609375 c 4,883,884
 379.30078125 18.12890625 379.30078125 18.12890625 380.36328125 18.12890625 c 4,885,886
 381.9609375 18.12890625 381.9609375 18.12890625 383.200195312 19.1552734375 c 4,887,888
 384.13671875 19.931640625 384.13671875 19.931640625 384.627929688 21.1630859375 c 132,-1,889
 385.072265625 22.27734375 385.072265625 22.27734375 385.376953125 24.630859375 c 4,890,891
 387.265625 39.216796875 387.265625 39.216796875 389.5703125 176.381835938 c 4,892,893
 389.859375 193.62890625 389.859375 193.62890625 390.05078125 204.61328125 c 5,894,895
 391.95703125 80.326171875 391.95703125 80.326171875 392.641601562 55.5380859375 c 4,896,897
 393.241210938 33.8271484375 393.241210938 33.8271484375 393.91015625 23.7431640625 c 4,898,899
 394.243164062 18.724609375 394.243164062 18.724609375 394.612304688 16.2890625 c 132,-1,900
 394.978515625 13.880859375 394.978515625 13.880859375 395.716796875 12.7373046875 c 132,-1,901
 396.5703125 11.412109375 396.5703125 11.412109375 398.005859375 10.896484375 c 4,902,903
 400.4453125 10.017578125 400.4453125 10.017578125 402.415039062 11.7275390625 c 4,904,905
 403.323242188 12.515625 403.323242188 12.515625 403.79296875 13.748046875 c 132,-1,906
 404.221679688 14.876953125 404.221679688 14.876953125 404.51953125 17.298828125 c 4,907,908
 406.401367188 32.580078125 406.401367188 32.580078125 408.620117188 176.411132812 c 4,909,910
 408.876953125 193.060546875 408.876953125 193.060546875 409.046875 203.770507812 c 5,911,912
 410.884765625 78.484375 410.884765625 78.484375 411.59765625 51.693359375 c 4,913,914
 412.197265625 29.1904296875 412.197265625 29.1904296875 412.866210938 18.7861328125 c 4,915,916
 413.19921875 13.6162109375 413.19921875 13.6162109375 413.567382812 11.138671875 c 4,917,918
 414.41015625 5.478515625 414.41015625 5.478515625 418.446289062 5.478515625 c 4,919,920
 420.13671875 5.478515625 420.13671875 5.478515625 421.407226562 6.6142578125 c 4,921,922
 422.298828125 7.4111328125 422.298828125 7.4111328125 422.752929688 8.646484375 c 132,-1,923
 423.171875 9.783203125 423.171875 9.783203125 423.4609375 12.2529296875 c 4,924,925
 425.30859375 27.9853515625 425.30859375 27.9853515625 427.184570312 176.119140625 c 5,926,927
 427.1875 175.923828125 427.1875 175.923828125 427.412109375 175.53515625 c 132,-1,928
 427.635742188 175.14453125 427.635742188 175.14453125 427.638671875 174.950195312 c 4,929,930
 428.671875 99.994140625 428.671875 99.994140625 429.290039062 69.8779296875 c 4,931,932
 429.991210938 35.765625 429.991210938 35.765625 430.765625 20.171875 c 4,933,934
 431.157226562 12.271484375 431.157226562 12.271484375 431.591796875 8.5771484375 c 132,-1,935
 432.025390625 4.880859375 432.025390625 4.880859375 433.057617188 3.5283203125 c 4,936,937
 434.41796875 1.74609375 434.41796875 1.74609375 436.616210938 1.74609375 c 4,938,939
 438.326171875 1.74609375 438.326171875 1.74609375 439.603515625 2.90625 c 4,940,941
 440.482421875 3.7041015625 440.482421875 3.7041015625 440.9296875 4.935546875 c 132,-1,942
 441.345703125 6.08203125 441.345703125 6.08203125 441.640625 8.583984375 c 4,943,944
 443.53515625 24.654296875 443.53515625 24.654296875 445.81640625 175.958984375 c 4,945,946
 446.10546875 195.18359375 446.10546875 195.18359375 446.290039062 206.97265625 c 5,947,948
 446.46484375 194.662109375 446.46484375 194.662109375 446.721679688 175.76953125 c 4,949,950
 448.791015625 23.96484375 448.791015625 23.96484375 450.666015625 7.8115234375 c 4,951,952
 450.95703125 5.302734375 450.95703125 5.302734375 451.370117188 4.1533203125 c 132,-1,953
 451.809570312 2.931640625 451.809570312 2.931640625 452.668945312 2.134765625 c 4,954,955
 453.923828125 0.970703125 453.923828125 0.970703125 455.690429688 0.943359375 c 132,-1,956
 457.405273438 0.943359375 457.405273438 0.943359375 458.684570312 2.109375 c 4,957,958
 459.561523438 2.9091796875 459.561523438 2.9091796875 460.006835938 4.142578125 c 132,-1,959
 460.421875 5.2890625 460.421875 5.2890625 460.713867188 7.802734375 c 4,960,961
 462.591796875 23.9453125 462.591796875 23.9453125 464.69140625 175.899414062 c 4,962,963
 464.69140625 175.942382812 464.69140625 175.942382812 465.040039062 176.02734375 c 132,-1,964
 465.388671875 176.111328125 465.388671875 176.111328125 465.388671875 176.154296875 c 5,965,966
 467.45703125 24.62890625 467.45703125 24.62890625 469.331054688 8.533203125 c 4,967,968
 469.623046875 6.02734375 469.623046875 6.02734375 470.037109375 4.880859375 c 132,-1,969
 470.482421875 3.6484375 470.482421875 3.6484375 471.361328125 2.84765625 c 4,970,971
 472.80859375 1.529296875 472.80859375 1.529296875 474.747070312 1.701171875 c 132,-1,972
 476.684570312 1.8740234375 476.684570312 1.8740234375 477.8984375 3.451171875 c 4,973,974
 478.94921875 4.81640625 478.94921875 4.81640625 479.375 8.5888671875 c 4,975,976
 481.193359375 24.7138671875 481.193359375 24.7138671875 482.733398438 175.03515625 c 5,977,-1
 482.802734375 175.133789062 l 5,978,979
 484.868164062 25.806640625 484.868164062 25.806640625 486.737304688 9.947265625 c 4,980,981
 487.029296875 7.46484375 487.029296875 7.46484375 487.447265625 6.32421875 c 132,-1,982
 487.8984375 5.091796875 487.8984375 5.091796875 488.78515625 4.2939453125 c 4,983,984
 490.443359375 2.802734375 490.443359375 2.802734375 492.616210938 3.232421875 c 4,985,986
 495.8984375 3.8818359375 495.8984375 3.8818359375 496.6328125 8.8046875 c 4,987,988
 497.00390625 11.2939453125 497.00390625 11.2939453125 497.33984375 16.498046875 c 4,989,990
 498.017578125 26.970703125 498.017578125 26.970703125 498.6328125 49.68359375 c 4,991,992
 499.501953125 81.6953125 499.501953125 81.6953125 500.860351562 173.995117188 c 5,993,994
 502.791015625 37.90625 502.791015625 37.90625 505.578125 14.85546875 c 4,995,996
 505.873046875 12.41796875 505.873046875 12.41796875 506.297851562 11.28515625 c 132,-1,997
 506.762695312 10.05078125 506.762695312 10.05078125 507.665039062 9.259765625 c 4,998,999
 509.55078125 7.6064453125 509.55078125 7.6064453125 511.92578125 8.3564453125 c 4,1000,1001
 513.44921875 8.8388671875 513.44921875 8.8388671875 514.356445312 10.21875 c 4,1002,1003
 515.112304688 11.3681640625 515.112304688 11.3681640625 515.48046875 13.806640625 c 132,-1,1004
 515.8515625 16.2587890625 515.8515625 16.2587890625 516.185546875 21.3310546875 c 4,1005,1006
 516.857421875 31.53125 516.857421875 31.53125 517.463867188 53.5244140625 c 4,1007,1008
 518.319335938 84.5546875 518.319335938 84.5546875 519.63671875 173.71484375 c 5,1009,1010
 521.5625 43.5048828125 521.5625 43.5048828125 524.276367188 21.9345703125 c 4,1011,1012
 524.576171875 19.55859375 524.576171875 19.55859375 525.012695312 18.44140625 c 132,-1,1013
 525.494140625 17.2080078125 525.494140625 17.2080078125 526.422851562 16.42578125 c 4,1014,1015
 527.669921875 15.3759765625 527.669921875 15.3759765625 529.287109375 15.3759765625 c 4,1016,1017
 530.244140625 15.3759765625 530.244140625 15.3759765625 531.112304688 15.76953125 c 4,1018,1019
 532.361328125 16.333984375 532.361328125 16.333984375 533.116210938 17.5400390625 c 132,-1,1020
 533.822265625 18.66796875 533.822265625 18.66796875 534.186523438 21.00390625 c 132,-1,1021
 534.560546875 23.3935546875 534.560546875 23.3935546875 534.900390625 28.26953125 c 4,1022,1023
 535.583007812 38.060546875 535.583007812 38.060546875 536.211914062 59.0322265625 c 4,1024,1025
 536.93359375 83.1044921875 536.93359375 83.1044921875 538.998046875 202.171875 c 5,1026,1027
 539.162109375 192.096679688 539.162109375 192.096679688 539.40234375 176.83984375 c 4,1028,1029
 541.458984375 46.03515625 541.458984375 46.03515625 543.317382812 32.1142578125 c 4,1030,1031
 543.622070312 29.826171875 543.622070312 29.826171875 544.080078125 28.7236328125 c 132,-1,1032
 544.590820312 27.4921875 544.590820312 27.4921875 545.553710938 26.7265625 c 4,1033,1034
 546.7734375 25.7587890625 546.7734375 25.7587890625 548.3203125 25.7587890625 c 4,1035,1036
 551.610351562 25.7587890625 551.610351562 25.7587890625 552.755859375 29.228515625 c 4,1037,1038
 553.0234375 30.0390625 553.0234375 30.0390625 553.236328125 31.341796875 c 4,1039,1040
 553.611328125 33.64453125 553.611328125 33.64453125 553.954101562 38.24609375 c 4,1041,1042
 554.640625 47.46875 554.640625 47.46875 555.276367188 67.0302734375 c 4,1043,1044
 555.975585938 88.525390625 555.975585938 88.525390625 558.146484375 201.974609375 c 5,1045,1046
 558.3125 192.724609375 558.3125 192.724609375 558.564453125 178.08203125 c 4,1047,1048
 560.615234375 58.669921875 560.615234375 58.669921875 562.466796875 45.9375 c 4,1049,1050
 562.970703125 42.4697265625 562.970703125 42.4697265625 564.333984375 41.1416015625 c 132,-1,1051
 565.647460938 39.86328125 565.647460938 39.86328125 567.458007812 39.86328125 c 132,-1,1052
 569.080078125 39.86328125 569.080078125 39.86328125 570.333984375 40.9169921875 c 132,-1,1053
 571.41015625 41.822265625 571.41015625 41.822265625 571.923828125 43.37890625 c 4,1054,1055
 572.185546875 44.171875 572.185546875 44.171875 572.392578125 45.404296875 c 4,1056,1057
 572.7578125 47.5849609375 572.7578125 47.5849609375 573.076171875 51.8125 c 4,1058,1059
 573.7109375 60.24609375 573.7109375 60.24609375 574.234375 77.8837890625 c 4,1060,1061
 574.970703125 102.6875 574.970703125 102.6875 575.951171875 173.194335938 c 5,1062,1063
 577.87109375 74.5986328125 577.87109375 74.5986328125 579.928710938 62.115234375 c 4,1064,1065
 580.474609375 58.8046875 580.474609375 58.8046875 581.978515625 57.5126953125 c 4,1066,1067
 583.24609375 56.423828125 583.24609375 56.423828125 584.900390625 56.423828125 c 4,1068,1069
 588.19921875 56.423828125 588.19921875 56.423828125 589.401367188 59.9677734375 c 4,1070,1071
 590.075195312 61.953125 590.075195312 61.953125 590.58203125 67.5986328125 c 4,1072,1073
 591.245117188 75 591.245117188 75 591.833007812 90.130859375 c 4,1074,1075
 592.658203125 111.40234375 592.658203125 111.40234375 593.8984375 171.25390625 c 5,1076,1077
 594.15234375 160.840820312 594.15234375 160.840820312 595.024414062 143.21484375 c 132,-1,1078
 595.896484375 125.588867188 595.896484375 125.588867188 596.07421875 120.650390625 c 4,1079,1080
 596.606445312 105.748046875 596.606445312 105.748046875 597.171875 97.3642578125 c 4,1081,1082
 597.620117188 90.708984375 597.620117188 90.708984375 598.126953125 87.5771484375 c 4,1083,1084
 598.719726562 83.919921875 598.719726562 83.919921875 600.2734375 82.572265625 c 4,1085,1086
 601.556640625 81.4609375 601.556640625 81.4609375 603.232421875 81.4609375 c 4,1087,1088
 605.8125 81.4609375 605.8125 81.4609375 607.208984375 83.7919921875 c 4,1089,1090
 607.87109375 84.8955078125 607.87109375 84.8955078125 608.298828125 86.9140625 c 4,1091,1092
 608.677734375 88.703125 608.677734375 88.703125 609.021484375 91.7099609375 c 4,1093,1094
 609.698242188 97.6328125 609.698242188 97.6328125 610.323242188 109.052734375 c 4,1095,1096
 611.197265625 125.044921875 611.197265625 125.044921875 612.58984375 168.92578125 c 4,1097,1098
 612.673828125 171.549804688 612.673828125 171.549804688 613 176.669921875 c 132,-1,1099
 613.326171875 181.7890625 613.326171875 181.7890625 613.41015625 184.255859375 c 5,1100,1101
 614.349609375 160.489257812 614.349609375 160.489257812 614.8828125 151.1484375 c 4,1102,1103
 615.490234375 140.4921875 615.490234375 140.4921875 616.142578125 135.60546875 c 4,1104,1105
 616.598632812 132.192382812 616.598632812 132.192382812 617.234375 130.692382812 c 132,-1,1106
 617.822265625 129.310546875 617.822265625 129.310546875 618.875 128.500976562 c 132,-1,1107
 620.109375 127.552734375 620.109375 127.552734375 621.651367188 127.552734375 c 4,1108,1109
 624.025390625 127.552734375 624.025390625 127.552734375 625.46875 129.583984375 c 4,1110,1111
 626.248046875 130.6796875 626.248046875 130.6796875 626.771484375 132.78515625 c 4,1112,1113
 631.799804688 152.999023438 631.799804688 152.999023438 631.799804688 200.243164062 c 4,85,86
EndSplineSet
Fore
SplineSet
245.96484375 360.958984375 m 0,0,1
 210.646484375 360.958984375 210.646484375 360.958984375 177.668945312 346.9765625 c 128,-1,2
 144.69140625 332.994140625 144.69140625 332.994140625 118.888671875 308.241210938 c 0,3,4
 98.294921875 288.486328125 98.294921875 288.486328125 84.392578125 263.6796875 c 128,-1,5
 70.490234375 238.873046875 70.490234375 238.873046875 65.2705078125 211.182617188 c 0,6,7
 61.224609375 192.900390625 61.224609375 192.900390625 61.224609375 173.826171875 c 0,8,9
 61.224609375 144.62109375 61.224609375 144.62109375 70.412109375 116.482421875 c 128,-1,10
 79.599609375 88.34375 79.599609375 88.34375 96.63671875 64.310546875 c 0,11,12
 125.079101562 24.189453125 125.079101562 24.189453125 167.736328125 4.4365234375 c 0,13,14
 205.16796875 -13.9736328125 205.16796875 -13.9736328125 248.440429688 -13.9736328125 c 0,15,16
 304.29296875 -13.9736328125 304.29296875 -13.9736328125 349.818359375 15.3349609375 c 1,17,18
 394.60546875 -13.833984375 394.60546875 -13.833984375 450.642578125 -13.833984375 c 0,19,20
 484.62109375 -13.833984375 484.62109375 -13.833984375 516.5546875 -2.2783203125 c 128,-1,21
 548.48828125 9.27734375 548.48828125 9.27734375 573.499023438 31.69140625 c 0,22,23
 604.6875 57.787109375 604.6875 57.787109375 621.453125 95.68359375 c 128,-1,24
 638.219726562 133.580078125 638.219726562 133.580078125 638.219726562 174.618164062 c 0,25,26
 638.219726562 222.751953125 638.219726562 222.751953125 615.66796875 262.809570312 c 0,27,28
 594.806640625 302.711914062 594.806640625 302.711914062 555.654296875 328.802734375 c 0,29,30
 507.139648438 361.129882812 507.139648438 361.129882812 450.010742188 361.129882812 c 0,31,32
 425.778320312 361.129882812 425.778320312 361.129882812 403.00390625 354.7421875 c 0,33,34
 374.665039062 347.28125 374.665039062 347.28125 349.895507812 331.458984375 c 1,35,36
 303.611328125 361.07421875 303.611328125 361.07421875 248.818359375 360.935546875 c 0,37,38
 248.341796875 360.935546875 248.341796875 360.935546875 247.390625 360.947265625 c 128,-1,39
 246.440429688 360.958984375 246.440429688 360.958984375 245.96484375 360.958984375 c 0,0,1
247.78125 327.564453125 m 1,40,41
 248.055664062 327.5625 248.055664062 327.5625 248.241210938 327.5625 c 0,42,43
 251.334960938 327.5625 251.334960938 327.5625 254.389648438 327.454101562 c 1,44,45
 252.93359375 291.095703125 252.93359375 291.095703125 251.41796875 173.95703125 c 0,46,47
 251.41796875 173.954101562 251.41796875 173.954101562 251.142578125 173.947265625 c 128,-1,48
 250.869140625 173.940429688 250.869140625 173.940429688 250.869140625 173.9375 c 1,49,50
 249.266601562 291.432617188 249.266601562 291.432617188 247.78125 327.564453125 c 1,40,41
236.018554688 327.2265625 m 1,51,52
 234.55859375 290.998046875 234.55859375 290.998046875 233.02734375 174.568359375 c 1,53,54
 231.427734375 290.361328125 231.427734375 290.361328125 229.469726562 326.598632812 c 0,55,56
 232.735351562 326.990234375 232.735351562 326.990234375 236.018554688 327.2265625 c 1,51,52
217.487304688 324.623046875 m 1,57,58
 217.045898438 314.846679688 217.045898438 314.846679688 216.6328125 299.48046875 c 0,59,60
 215.76953125 267.396484375 215.76953125 267.396484375 214.428710938 174.901367188 c 1,61,62
 212.828125 287.884765625 212.828125 287.884765625 210.669921875 323.01171875 c 0,63,64
 214.069335938 323.904296875 214.069335938 323.904296875 217.487304688 324.623046875 c 1,57,58
198.697265625 319.305664062 m 1,65,66
 198.283203125 309.94921875 198.283203125 309.94921875 197.90234375 295.54296875 c 0,67,68
 197.08203125 264.50390625 197.08203125 264.50390625 195.862304688 175.194335938 c 1,69,70
 194.25390625 284.146484375 194.25390625 284.146484375 192.265625 316.84375 c 0,71,72
 195.47265625 318.154296875 195.47265625 318.154296875 198.697265625 319.305664062 c 1,65,66
180.23828125 311.342773438 m 1,73,74
 179.837890625 302.754882812 179.837890625 302.754882812 179.456054688 290.119140625 c 0,75,76
 178.73828125 266.376953125 178.73828125 266.376953125 176.61328125 145.634765625 c 1,77,78
 176.451171875 155.545898438 176.451171875 155.545898438 176.193359375 171.9453125 c 0,79,80
 174.525390625 278.185546875 174.525390625 278.185546875 172.987304688 307.423828125 c 0,81,82
 176.553710938 309.47265625 176.553710938 309.47265625 180.23828125 311.342773438 c 1,73,74
160.983398438 299.791015625 m 1,83,84
 160.620117188 292.299804688 160.620117188 292.299804688 160.266601562 281.880859375 c 0,85,86
 159.611328125 262.576171875 159.611328125 262.576171875 157.08984375 141.796875 c 1,87,88
 156.889648438 152.904296875 156.889648438 152.904296875 156.591796875 170.318359375 c 0,89,90
 154.928710938 267.384765625 154.928710938 267.384765625 153.395507812 294.125976562 c 0,91,92
 157.111328125 297.077148438 157.111328125 297.077148438 160.983398438 299.791015625 c 1,83,84
141.34375 283.536132812 m 1,93,94
 141.109375 277.916992188 141.109375 277.916992188 140.892578125 270.801757812 c 0,95,96
 140.1328125 245.923828125 140.1328125 245.923828125 139.088867188 175.267578125 c 1,97,98
 137.55859375 253.969726562 137.55859375 253.969726562 135.834960938 277.954101562 c 0,99,100
 138.501953125 280.783203125 138.501953125 280.783203125 141.34375 283.536132812 c 1,93,94
123.184570312 262.7734375 m 1,101,102
 123.086914062 260.661132812 123.086914062 260.661132812 122.989257812 258.37109375 c 0,103,104
 122.086914062 237.11328125 122.086914062 237.11328125 120.62109375 177.151367188 c 0,105,106
 120.586914062 175.771484375 120.586914062 175.771484375 120.1171875 173.017578125 c 128,-1,107
 119.646484375 170.263671875 119.646484375 170.263671875 119.61328125 168.890625 c 1,108,109
 118.6015625 210.802734375 118.6015625 210.802734375 118.006835938 227.487304688 c 0,110,111
 117.47265625 242.455078125 117.47265625 242.455078125 116.90625 250.881835938 c 0,112,113
 116.82421875 252.099609375 116.82421875 252.099609375 116.740234375 253.201171875 c 0,114,115
 119.750976562 258.078125 119.750976562 258.078125 123.184570312 262.7734375 c 1,101,102
103.28125 224.727539062 m 1,116,117
 102.684570312 207.796875 102.684570312 207.796875 101.9375 178.751953125 c 1,118,119
 101.767578125 182.986328125 101.767578125 182.986328125 101.028320312 190.190429688 c 128,-1,120
 100.2890625 197.393554688 100.2890625 197.393554688 100.142578125 200.029296875 c 0,121,122
 99.771484375 206.672851562 99.771484375 206.672851562 99.3828125 211.15234375 c 0,123,124
 101.009765625 218.079101562 101.009765625 218.079101562 103.28125 224.727539062 c 1,116,117
108.145507812 111.265625 m 0,125,126
 108.673828125 118.252929688 108.673828125 118.252929688 109.149414062 130.384765625 c 0,127,128
 109.685546875 144.07421875 109.685546875 144.07421875 110.571289062 178.525390625 c 1,129,130
 110.611328125 176.904296875 110.611328125 176.904296875 110.775390625 173.619140625 c 128,-1,131
 110.939453125 170.3359375 110.939453125 170.3359375 110.978515625 168.677734375 c 0,132,133
 112.111328125 121.70703125 112.111328125 121.70703125 112.8984375 101.452148438 c 1,134,135
 110.358398438 106.26953125 110.358398438 106.26953125 108.145507812 111.265625 c 0,125,126
126.040039062 80.611328125 m 0,136,137
 126.1328125 81.9169921875 126.1328125 81.9169921875 126.224609375 83.3720703125 c 0,138,139
 126.830078125 93.0078125 126.830078125 93.0078125 127.423828125 110.09375 c 0,140,141
 127.890625 123.533203125 127.890625 123.533203125 129.727539062 196.005859375 c 1,142,143
 131.765625 97.912109375 131.765625 97.912109375 132.3671875 81.310546875 c 0,144,145
 132.545898438 76.369140625 132.545898438 76.369140625 132.731445312 72.193359375 c 1,146,147
 129.279296875 76.2470703125 129.279296875 76.2470703125 126.040039062 80.611328125 c 0,136,137
144.955078125 59.4228515625 m 0,148,149
 146.38671875 84.6181640625 146.38671875 84.6181640625 147.724609375 175.137695312 c 1,150,151
 147.73828125 174.309570312 147.73828125 174.309570312 147.83984375 172.65234375 c 128,-1,152
 147.94140625 170.99609375 147.94140625 170.99609375 147.956054688 170.16796875 c 0,153,154
 149.244140625 95.0458984375 149.244140625 95.0458984375 150.0859375 68.7294921875 c 0,155,156
 150.34375 60.6748046875 150.34375 60.6748046875 150.614257812 54.4453125 c 1,157,158
 147.728515625 56.8515625 147.728515625 56.8515625 144.955078125 59.4228515625 c 0,148,149
162.793945312 45.3515625 m 0,159,160
 164.41015625 74.4091796875 164.41015625 74.4091796875 166.400390625 175.083984375 c 0,161,162
 166.78125 194.287109375 166.78125 194.287109375 167.014648438 205.59375 c 1,163,164
 169.08203125 81.74609375 169.08203125 81.74609375 169.689453125 61.123046875 c 0,165,166
 170.049804688 48.919921875 170.049804688 48.919921875 170.434570312 40.6103515625 c 1,167,168
 166.533203125 42.86328125 166.533203125 42.86328125 162.793945312 45.3515625 c 0,159,160
182.287109375 34.4794921875 m 0,169,170
 183.888671875 64.5087890625 183.888671875 64.5087890625 185.76171875 175.388671875 c 0,171,172
 186.0390625 191.875 186.0390625 191.875 186.235351562 203.0703125 c 1,173,174
 188.138671875 79.88671875 188.138671875 79.88671875 188.823242188 55.2587890625 c 0,175,176
 189.234375 40.4619140625 189.234375 40.4619140625 189.678710938 31.095703125 c 1,177,178
 185.948242188 32.6796875 185.948242188 32.6796875 182.287109375 34.4794921875 c 0,169,170
201.362304688 26.712890625 m 0,179,180
 202.896484375 57.8681640625 202.896484375 57.8681640625 204.498046875 175.07421875 c 1,181,182
 204.501953125 174.744140625 204.501953125 174.744140625 204.767578125 174.083984375 c 128,-1,183
 205.033203125 173.423828125 205.033203125 173.423828125 205.038085938 173.09375 c 0,184,185
 206.328125 82.0302734375 206.328125 82.0302734375 207.173828125 50.427734375 c 0,186,187
 207.59765625 34.5439453125 207.59765625 34.5439453125 208.056640625 24.7041015625 c 1,188,189
 204.68359375 25.6279296875 204.68359375 25.6279296875 201.362304688 26.712890625 c 0,179,180
219.7734375 22.009765625 m 0,190,191
 221.33203125 55.2265625 221.33203125 55.2265625 223.064453125 174.774414062 c 1,192,193
 223.06640625 174.599609375 223.06640625 174.599609375 223.44140625 174.251953125 c 128,-1,194
 223.81640625 173.904296875 223.81640625 173.904296875 223.819335938 173.73046875 c 0,195,196
 224.852539062 98.92578125 224.852539062 98.92578125 225.471679688 68.8701171875 c 0,197,198
 226.13671875 36.5224609375 226.13671875 36.5224609375 226.869140625 20.8583984375 c 1,199,200
 223.294921875 21.3505859375 223.294921875 21.3505859375 219.7734375 22.009765625 c 0,190,191
238.578125 19.701171875 m 0,201,202
 240.08203125 54.255859375 240.08203125 54.255859375 241.663085938 174.452148438 c 1,203,204
 241.6640625 174.345703125 241.6640625 174.345703125 241.948242188 174.134765625 c 128,-1,205
 242.232421875 173.922851562 242.232421875 173.922851562 242.233398438 173.817382812 c 0,206,207
 243.8515625 55.1904296875 243.8515625 55.1904296875 245.350585938 19.4326171875 c 1,208,209
 241.942382812 19.4970703125 241.942382812 19.4970703125 238.578125 19.701171875 c 0,201,202
257.051757812 19.63671875 m 1,210,211
 258.521484375 55.5341796875 258.521484375 55.5341796875 260.052734375 173.84375 c 0,212,213
 260.052734375 173.849609375 260.052734375 173.849609375 260.327148438 173.862304688 c 128,-1,214
 260.6015625 173.875 260.6015625 173.875 260.6015625 173.880859375 c 1,215,216
 262.206054688 56.21484375 262.206054688 56.21484375 263.693359375 20.13671875 c 0,217,218
 260.3828125 19.81640625 260.3828125 19.81640625 257.051757812 19.63671875 c 1,210,211
275.486328125 21.73046875 m 1,219,220
 276.899414062 58.6357421875 276.899414062 58.6357421875 278.32421875 173.249023438 c 1,221,222
 279.884765625 60.123046875 279.884765625 60.123046875 281.681640625 22.9384765625 c 0,223,224
 278.592773438 22.271484375 278.592773438 22.271484375 275.486328125 21.73046875 c 1,219,220
293.92578125 26.0947265625 m 1,225,226
 294.309570312 35.0654296875 294.309570312 35.0654296875 294.681640625 47.9638671875 c 0,227,228
 295.391601562 72.59375 295.391601562 72.59375 297.745117188 209.171875 c 1,229,230
 297.939453125 196.098632812 297.939453125 196.098632812 298.239257812 174.88671875 c 0,231,232
 299.802734375 64.1943359375 299.802734375 64.1943359375 301.25390625 28.4873046875 c 0,233,234
 299.08984375 27.7216796875 299.08984375 27.7216796875 296.888671875 27.0146484375 c 0,235,236
 295.409179688 26.5400390625 295.409179688 26.5400390625 293.92578125 26.0947265625 c 1,225,226
313.435546875 33.400390625 m 1,237,238
 313.744140625 41.380859375 313.744140625 41.380859375 314.036132812 52.201171875 c 0,239,240
 314.876953125 83.37890625 314.876953125 83.37890625 316.157226562 173.120117188 c 1,241,242
 317.633789062 72.5419921875 317.633789062 72.5419921875 319.512695312 36.33984375 c 0,243,244
 316.516601562 34.8037109375 316.516601562 34.8037109375 313.435546875 33.400390625 c 1,237,238
332.14453125 43.6474609375 m 1,245,246
 332.361328125 49.7626953125 332.361328125 49.7626953125 332.568359375 57.3193359375 c 0,247,248
 333.383789062 87.091796875 333.383789062 87.091796875 334.588867188 172.525390625 c 1,249,250
 335.9921875 82.2041015625 335.9921875 82.2041015625 337.685546875 47.4306640625 c 0,251,252
 334.958007812 45.47265625 334.958007812 45.47265625 332.14453125 43.6474609375 c 1,245,246
350.573242188 56.103515625 m 2,253,254
 350.69921875 59.9345703125 350.69921875 59.9345703125 350.8203125 64.2685546875 c 0,255,256
 351.599609375 92.119140625 351.599609375 92.119140625 352.697265625 171.745117188 c 1,257,258
 353.560546875 120.02734375 353.560546875 120.02734375 355.173828125 68.35546875 c 0,259,260
 355.463867188 59.078125 355.463867188 59.078125 355.770507812 52.16015625 c 1,261,-1
 350.573242188 56.103515625 l 2,253,254
367.797851562 43.44921875 m 0,262,263
 369.291992188 72.1826171875 369.291992188 72.1826171875 370.837890625 174.610351562 c 1,264,265
 370.84765625 174.013671875 370.84765625 174.013671875 371.09765625 172.819335938 c 128,-1,266
 371.34765625 171.625 371.34765625 171.625 371.357421875 171.02734375 c 0,267,268
 372.645507812 88.04296875 372.645507812 88.04296875 373.489257812 59.0830078125 c 0,269,270
 373.82421875 47.5888671875 373.82421875 47.5888671875 374.180664062 39.5126953125 c 1,271,272
 370.934570312 41.39453125 370.934570312 41.39453125 367.797851562 43.44921875 c 0,262,263
386.147460938 33.3291015625 m 0,273,274
 387.725585938 64.5810546875 387.725585938 64.5810546875 389.5703125 174.381835938 c 0,275,276
 389.859375 191.62890625 389.859375 191.62890625 390.05078125 202.61328125 c 1,277,278
 391.95703125 78.326171875 391.95703125 78.326171875 392.641601562 53.5380859375 c 0,279,280
 393.03125 39.4306640625 393.03125 39.4306640625 393.450195312 30.2314453125 c 1,281,282
 389.739257812 31.6865234375 389.739257812 31.6865234375 386.147460938 33.3291015625 c 0,273,274
405.266601562 26.1630859375 m 0,283,284
 406.834960938 58.65625 406.834960938 58.65625 408.620117188 174.411132812 c 0,285,286
 408.876953125 191.060546875 408.876953125 191.060546875 409.046875 201.770507812 c 1,287,288
 410.884765625 76.484375 410.884765625 76.484375 411.59765625 49.693359375 c 0,289,290
 412.015625 33.9990234375 412.015625 33.9990234375 412.467773438 24.189453125 c 1,291,292
 408.8515625 25.0888671875 408.8515625 25.0888671875 405.266601562 26.1630859375 c 0,283,284
424.197265625 21.7431640625 m 0,293,294
 425.681640625 55.4384765625 425.681640625 55.4384765625 427.184570312 174.119140625 c 1,295,296
 427.1875 173.923828125 427.1875 173.923828125 427.412109375 173.53515625 c 128,-1,297
 427.635742188 173.14453125 427.635742188 173.14453125 427.638671875 172.950195312 c 0,298,299
 428.671875 97.994140625 428.671875 97.994140625 429.290039062 67.8779296875 c 0,300,301
 429.934570312 36.501953125 429.934570312 36.501953125 430.641601562 20.79296875 c 1,302,303
 427.407226562 21.201171875 427.407226562 21.201171875 424.197265625 21.7431640625 c 0,293,294
442.473632812 19.7490234375 m 0,304,305
 444.025390625 55.1904296875 444.025390625 55.1904296875 445.81640625 173.958984375 c 0,306,307
 446.10546875 193.18359375 446.10546875 193.18359375 446.290039062 204.97265625 c 1,308,309
 446.46484375 192.662109375 446.46484375 192.662109375 446.721679688 173.76953125 c 0,310,311
 448.333984375 55.4619140625 448.333984375 55.4619140625 449.829101562 19.544921875 c 1,312,313
 446.13671875 19.5634765625 446.13671875 19.5634765625 442.473632812 19.7490234375 c 0,304,305
461.568359375 19.91015625 m 1,314,315
 463.063476562 56.08203125 463.063476562 56.08203125 464.69140625 173.899414062 c 0,316,317
 464.69140625 173.942382812 464.69140625 173.942382812 465.040039062 174.02734375 c 128,-1,318
 465.388671875 174.111328125 465.388671875 174.111328125 465.388671875 174.154296875 c 1,319,320
 466.994140625 56.552734375 466.994140625 56.552734375 468.482421875 20.5283203125 c 0,321,322
 465.040039062 20.14453125 465.040039062 20.14453125 461.568359375 19.91015625 c 1,314,315
480.240234375 22.2939453125 m 1,323,324
 481.56640625 59.15625 481.56640625 59.15625 482.733398438 173.03515625 c 1,325,-1
 482.802734375 173.133789062 l 1,326,327
 484.368164062 59.96875 484.368164062 59.96875 485.8203125 23.4560546875 c 0,328,329
 483.040039062 22.82421875 483.040039062 22.82421875 480.240234375 22.2939453125 c 1,323,324
497.950195312 26.7255859375 m 1,330,331
 498.30078125 35.4208984375 498.30078125 35.4208984375 498.6328125 47.68359375 c 0,332,333
 499.501953125 79.6953125 499.501953125 79.6953125 500.860351562 171.995117188 c 1,334,335
 502.358398438 66.4296875 502.358398438 66.4296875 504.37109375 28.8818359375 c 0,336,337
 501.173828125 27.7333984375 501.173828125 27.7333984375 497.950195312 26.7255859375 c 1,330,331
516.901367188 34.0224609375 m 1,338,339
 517.189453125 41.564453125 517.189453125 41.564453125 517.463867188 51.5244140625 c 0,340,341
 518.319335938 82.5546875 518.319335938 82.5546875 519.63671875 171.71484375 c 1,342,343
 521.090820312 73.4091796875 521.090820312 73.4091796875 522.994140625 37.02734375 c 0,344,345
 519.995117188 35.458984375 519.995117188 35.458984375 516.901367188 34.0224609375 c 1,338,339
535.798828125 44.6103515625 m 1,346,347
 536.0078125 50.2333984375 536.0078125 50.2333984375 536.211914062 57.0322265625 c 0,348,349
 536.93359375 81.1044921875 536.93359375 81.1044921875 538.998046875 200.171875 c 1,350,351
 539.162109375 190.096679688 539.162109375 190.096679688 539.40234375 174.83984375 c 0,352,353
 540.838867188 83.4658203125 540.838867188 83.4658203125 542.178710938 49.12890625 c 0,354,355
 539.053710938 46.779296875 539.053710938 46.779296875 535.798828125 44.6103515625 c 1,346,347
555.102539062 59.8955078125 m 1,356,357
 555.189453125 62.3671875 555.189453125 62.3671875 555.276367188 65.0302734375 c 0,358,359
 555.975585938 86.525390625 555.975585938 86.525390625 558.146484375 199.974609375 c 1,360,361
 558.3125 190.724609375 558.3125 190.724609375 558.564453125 176.08203125 c 0,362,363
 559.903320312 98.095703125 559.903320312 98.095703125 561.158203125 65.6103515625 c 0,364,365
 558.221679688 62.669921875 558.221679688 62.669921875 555.102539062 59.8955078125 c 1,356,357
574.374023438 80.931640625 m 1,366,367
 575.0625 107.291992188 575.0625 107.291992188 575.951171875 171.194335938 c 1,368,369
 577.053710938 114.560546875 577.053710938 114.560546875 578.202148438 86.3388671875 c 0,370,371
 576.345703125 83.5830078125 576.345703125 83.5830078125 574.374023438 80.931640625 c 1,366,367
592.61328125 113.342773438 m 1,372,373
 593.1875 134.96875 593.1875 134.96875 593.8984375 169.25390625 c 1,374,375
 594.15234375 158.840820312 594.15234375 158.840820312 595.024414062 141.21484375 c 0,376,377
 595.671875 128.127929688 595.671875 128.127929688 595.936523438 122.03515625 c 0,378,379
 594.40625 117.6640625 594.40625 117.6640625 592.61328125 113.342773438 c 1,372,373
604.530273438 184.771484375 m 0,380,381
 604.26171875 176.784179688 604.26171875 176.784179688 603.958007812 167.204101562 c 1,382,383
 603.916992188 168.859375 603.916992188 168.859375 603.53125 172.19140625 c 128,-1,384
 603.14453125 175.524414062 603.14453125 175.524414062 603.103515625 177.197265625 c 0,385,386
 602.77734375 190.694335938 602.77734375 190.694335938 602.479492188 201.978515625 c 1,387,388
 603.982421875 193.547851562 603.982421875 193.547851562 604.530273438 184.771484375 c 0,380,381
587.15625 245.3984375 m 0,389,390
 586.993164062 240.930664062 586.993164062 240.930664062 586.833007812 235.77734375 c 0,391,392
 586.24609375 216.845703125 586.24609375 216.845703125 585.263671875 169.435546875 c 1,393,394
 585.2421875 170.521484375 585.2421875 170.521484375 584.970703125 172.6953125 c 128,-1,395
 584.69921875 174.869140625 584.69921875 174.869140625 584.677734375 175.95703125 c 0,396,397
 583.66796875 227.66015625 583.66796875 227.66015625 582.930664062 253.041992188 c 1,398,399
 584.6875 250.032226562 584.6875 250.032226562 586.307617188 246.920898438 c 0,400,401
 586.737304688 246.161132812 586.737304688 246.161132812 587.15625 245.3984375 c 0,389,390
569.361328125 272.374023438 m 0,402,403
 568.291992188 241.591796875 568.291992188 241.591796875 567.315429688 171.31640625 c 1,404,405
 565.971679688 249.209960938 565.971679688 249.209960938 565.07421875 277.270507812 c 1,406,407
 567.278320312 274.8671875 567.278320312 274.8671875 569.361328125 272.374023438 c 0,402,403
551.884765625 289.948242188 m 0,408,409
 550.52734375 256.118164062 550.52734375 256.118164062 548.979492188 171.5625 c 0,410,411
 548.698242188 156.162109375 548.698242188 156.162109375 548.50390625 145.891601562 c 1,412,413
 546.57421875 262.8203125 546.57421875 262.8203125 545.905273438 285.506835938 c 0,414,415
 545.754882812 290.59375 545.754882812 290.59375 545.600585938 295.002929688 c 1,416,417
 548.830078125 292.541015625 548.830078125 292.541015625 551.884765625 289.948242188 c 0,408,409
532.923828125 303.754882812 m 0,418,419
 531.49609375 268.850585938 531.49609375 268.850585938 529.875976562 171.55078125 c 0,420,421
 529.611328125 155.631835938 529.611328125 155.631835938 529.427734375 144.982421875 c 1,422,423
 527.55078125 266.578125 527.55078125 266.578125 526.85546875 291.5546875 c 0,424,425
 526.602539062 300.637695312 526.602539062 300.637695312 526.336914062 307.672851562 c 1,426,427
 529.65234375 305.80078125 529.65234375 305.80078125 532.923828125 303.754882812 c 0,418,419
514.026367188 313.94921875 m 0,428,429
 512.58203125 278.684570312 512.58203125 278.684570312 511.001953125 171.844726562 c 1,430,431
 510.997070312 172.162109375 510.997070312 172.162109375 510.642578125 172.796875 c 128,-1,432
 510.288085938 173.431640625 510.288085938 173.431640625 510.283203125 173.749023438 c 0,433,434
 508.9921875 264.623046875 508.9921875 264.623046875 508.1484375 296.165039062 c 0,435,436
 507.826171875 308.200195312 507.826171875 308.200195312 507.483398438 316.7578125 c 1,437,438
 510.775390625 315.43359375 510.775390625 315.43359375 514.026367188 313.94921875 c 0,428,429
495.387695312 321.043945312 m 0,439,440
 493.892578125 285.477539062 493.892578125 285.477539062 492.224609375 172.124023438 c 1,441,442
 492.22265625 172.3125 492.22265625 172.3125 491.831054688 172.689453125 c 128,-1,443
 491.440429688 173.06640625 491.440429688 173.06640625 491.4375 173.254882812 c 0,444,445
 490.404296875 247.927734375 490.404296875 247.927734375 489.786132812 277.93359375 c 0,446,447
 489.177734375 307.377929688 489.177734375 307.377929688 488.516601562 322.978515625 c 1,448,449
 491.973632812 322.09375 491.973632812 322.09375 495.387695312 321.043945312 c 0,439,440
476.661132812 325.510742188 m 0,450,451
 475.295898438 290.0390625 475.295898438 290.0390625 474.09765625 173.125 c 1,452,453
 472.514648438 289.038085938 472.514648438 289.038085938 471.012695312 326.373046875 c 1,454,455
 473.849609375 325.994140625 473.849609375 325.994140625 476.661132812 325.510742188 c 0,450,451
459.157226562 327.495117188 m 0,456,457
 457.671875 291.040039062 457.671875 291.040039062 456.055664062 174.021484375 c 0,458,459
 456.0546875 173.999023438 456.0546875 173.999023438 455.70703125 173.955078125 c 128,-1,460
 455.357421875 173.912109375 455.357421875 173.912109375 455.357421875 173.889648438 c 1,461,462
 453.751953125 291.659179688 453.751953125 291.659179688 452.263671875 327.736328125 c 1,463,464
 455.729492188 327.689453125 455.729492188 327.689453125 459.157226562 327.495117188 c 0,456,457
440.48046875 327.443359375 m 1,465,466
 438.946289062 291.225585938 438.946289062 291.225585938 437.180664062 174.091796875 c 0,467,468
 436.892578125 155.017578125 436.892578125 155.017578125 436.69921875 142.635742188 c 1,469,470
 436.52734375 154.663085938 436.52734375 154.663085938 436.2734375 173.071289062 c 0,471,472
 434.629882812 292.319335938 434.629882812 292.319335938 433.111328125 326.76953125 c 0,473,474
 436.7734375 327.201171875 436.7734375 327.201171875 440.48046875 327.443359375 c 1,465,466
421.3671875 324.87109375 m 1,475,476
 420.92578125 314.938476562 420.92578125 314.938476562 420.526367188 298.995117188 c 0,477,478
 419.72265625 266.881835938 419.72265625 266.881835938 418.548828125 174.23046875 c 1,479,480
 416.927734375 289.100585938 416.927734375 289.100585938 415.028320312 323.40625 c 0,481,482
 418.1796875 324.213867188 418.1796875 324.213867188 421.3671875 324.87109375 c 1,475,476
403.104492188 319.985351562 m 1,483,484
 402.665039062 310.499023438 402.665039062 310.499023438 402.250976562 295.749023438 c 0,485,486
 401.372070312 264.48046875 401.372070312 264.48046875 399.984375 174.546875 c 0,487,488
 399.978515625 174.158203125 399.978515625 174.158203125 399.563476562 173.37890625 c 128,-1,489
 399.1484375 172.600585938 399.1484375 172.600585938 399.142578125 172.2109375 c 1,490,491
 397.471679688 286.059570312 397.471679688 286.059570312 395.932617188 317.459960938 c 0,492,493
 399.4765625 318.805664062 399.4765625 318.805664062 403.104492188 319.985351562 c 1,483,484
384.092773438 312.383789062 m 1,494,495
 383.672851562 303.524414062 383.672851562 303.524414062 383.272460938 290.1796875 c 0,496,497
 382.5546875 266.255859375 382.5546875 266.255859375 380.41796875 144.21484375 c 1,498,499
 380.248046875 154.6640625 380.248046875 154.6640625 379.9921875 171.1640625 c 0,500,501
 378.3125 279.358398438 378.3125 279.358398438 376.765625 308.622070312 c 0,502,503
 380.377929688 310.602539062 380.377929688 310.602539062 384.092773438 312.383789062 c 1,494,495
364.897460938 301.39453125 m 1,504,505
 364.547851562 293.5859375 364.547851562 293.5859375 364.223632812 282.485351562 c 0,506,507
 363.408203125 254.559570312 363.408203125 254.559570312 362.203125 174.743164062 c 1,508,509
 361.576171875 212.294921875 361.576171875 212.294921875 359.530273438 277.771484375 c 0,510,511
 359.172851562 289.224609375 359.172851562 289.224609375 358.7890625 297.07421875 c 1,512,-1
 359.734375 297.767578125 l 2,513,514
 362.287109375 299.638671875 362.287109375 299.638671875 364.897460938 301.39453125 c 1,504,505
346.513671875 292.998046875 m 1,515,516
 345.270507812 259.469726562 345.270507812 259.469726562 344.0625 171.8671875 c 1,517,518
 344.052734375 172.4609375 344.052734375 172.4609375 343.899414062 173.649414062 c 128,-1,519
 343.74609375 174.837890625 343.74609375 174.837890625 343.736328125 175.431640625 c 0,520,521
 342.447265625 258.24609375 342.447265625 258.24609375 341.603515625 287.168945312 c 0,522,523
 341.452148438 292.350585938 341.452148438 292.350585938 341.295898438 296.836914062 c 1,524,-1
 346.513671875 292.998046875 l 1,515,516
328.6640625 305.416015625 m 0,525,526
 327.329101562 270.2109375 327.329101562 270.2109375 325.953125 172.650390625 c 1,527,528
 325.946289062 173.096679688 325.946289062 173.096679688 325.696289062 173.990234375 c 128,-1,529
 325.4453125 174.8828125 325.4453125 174.8828125 325.439453125 175.330078125 c 0,530,531
 324.1484375 263.1328125 324.1484375 263.1328125 323.3046875 293.681640625 c 0,532,533
 323.071289062 302.129882812 323.071289062 302.129882812 322.827148438 308.815429688 c 1,534,535
 325.771484375 307.186523438 325.771484375 307.186523438 328.6640625 305.416015625 c 0,525,526
310.434570312 314.9453125 m 0,536,537
 309.02734375 278.848632812 309.02734375 278.848632812 307.521484375 173.245117188 c 1,538,539
 307.517578125 173.5390625 307.517578125 173.5390625 307.198242188 174.127929688 c 128,-1,540
 306.87890625 174.716796875 306.87890625 174.716796875 306.875 175.010742188 c 0,541,542
 305.583984375 266.375 305.583984375 266.375 304.73828125 298.076171875 c 0,543,544
 304.438476562 309.317382812 304.438476562 309.317382812 304.122070312 317.538085938 c 1,545,546
 307.305664062 316.315429688 307.305664062 316.315429688 310.434570312 314.9453125 c 0,536,537
291.88671875 321.626953125 m 0,547,548
 290.34765625 285.041015625 290.34765625 285.041015625 288.502929688 173.1171875 c 0,549,550
 288.1484375 151.5625 288.1484375 151.5625 287.9140625 137.946289062 c 1,551,552
 286.1328125 260.526367188 286.1328125 260.526367188 285.756835938 278.837890625 c 0,553,554
 285.157226562 307.9296875 285.157226562 307.9296875 284.506835938 323.53515625 c 1,555,556
 288.229492188 322.672851562 288.229492188 322.672851562 291.88671875 321.626953125 c 0,547,548
272.568359375 325.798828125 m 0,557,558
 271.135742188 289.736328125 271.135742188 289.736328125 269.688476562 173.358398438 c 1,559,560
 269.6875 173.46484375 269.6875 173.46484375 269.462890625 173.6796875 c 128,-1,561
 269.23828125 173.893554688 269.23828125 173.893554688 269.237304688 174.000976562 c 0,562,563
 267.658203125 289.770507812 267.658203125 289.770507812 266.19140625 326.615234375 c 1,564,565
 269.403320312 326.270507812 269.403320312 326.270507812 272.568359375 325.798828125 c 0,557,558
EndSplineSet
EndChar

StartChar: difference
Encoding: 23 61464 22
Width: 700
Flags: W
LayerCount: 2
Back
SplineSet
605.1484375 73.42578125 m 128,-1,1
 605.1484375 42.04296875 605.1484375 42.04296875 592.935546875 13.482421875 c 128,-1,2
 580.72265625 -15.080078125 580.72265625 -15.080078125 560.07421875 -35.7294921875 c 128,-1,3
 539.423828125 -56.37890625 539.423828125 -56.37890625 510.862304688 -68.591796875 c 128,-1,4
 482.30078125 -80.8046875 482.30078125 -80.8046875 450.918945312 -80.8046875 c 0,5,6
 412.298828125 -80.8046875 412.298828125 -80.8046875 378.1796875 -62.56640625 c 1,7,8
 406.041015625 -36.08984375 406.041015625 -36.08984375 421.288085938 -0.681640625 c 128,-1,9
 436.53515625 34.7255859375 436.53515625 34.7255859375 436.53515625 73.42578125 c 128,-1,10
 436.53515625 112.124023438 436.53515625 112.124023438 421.288085938 147.53125 c 128,-1,11
 406.041015625 182.939453125 406.041015625 182.939453125 378.1796875 209.416015625 c 1,12,13
 412.297851562 227.653320312 412.297851562 227.653320312 450.919921875 227.653320312 c 0,14,15
 482.301757812 227.653320312 482.301757812 227.653320312 510.86328125 215.44140625 c 128,-1,16
 539.423828125 203.228515625 539.423828125 203.228515625 560.07421875 182.579101562 c 128,-1,17
 580.723632812 161.9296875 580.723632812 161.9296875 592.935546875 133.368164062 c 128,-1,0
 605.1484375 104.806640625 605.1484375 104.806640625 605.1484375 73.42578125 c 128,-1,1
450.91796875 261.057617188 m 0,18,19
 389.555664062 261.057617188 389.555664062 261.057617188 340.057617188 224.797851562 c 2,20,-1
 321.65234375 211.315429688 l 1,21,-1
 340.057617188 197.833007812 l 2,22,23
 369.767578125 176.0703125 369.767578125 176.0703125 386.44921875 143.173828125 c 128,-1,24
 403.130859375 110.27734375 403.130859375 110.27734375 403.130859375 73.42578125 c 128,-1,25
 403.130859375 36.572265625 403.130859375 36.572265625 386.44921875 3.67578125 c 128,-1,26
 369.767578125 -29.21875 369.767578125 -29.21875 340.057617188 -50.984375 c 2,27,-1
 321.653320312 -64.466796875 l 1,28,-1
 340.057617188 -77.94921875 l 2,29,30
 389.551757812 -114.206054688 389.551757812 -114.206054688 450.918945312 -114.208984375 c 0,31,32
 489.088867188 -114.208984375 489.088867188 -114.208984375 523.8359375 -99.34765625 c 128,-1,33
 558.58203125 -84.486328125 558.58203125 -84.486328125 583.70703125 -59.3623046875 c 128,-1,34
 608.830078125 -34.23828125 608.830078125 -34.23828125 623.69140625 0.5087890625 c 128,-1,35
 638.552734375 35.255859375 638.552734375 35.255859375 638.552734375 73.42578125 c 128,-1,36
 638.552734375 111.595703125 638.552734375 111.595703125 623.69140625 146.341796875 c 128,-1,37
 608.830078125 181.087890625 608.830078125 181.087890625 583.706054688 206.212890625 c 128,-1,38
 558.58203125 231.3359375 558.58203125 231.3359375 523.834960938 246.197265625 c 128,-1,39
 489.087890625 261.057617188 489.087890625 261.057617188 450.91796875 261.057617188 c 0,18,19
94.6728515625 73.42578125 m 128,-1,41
 94.6728515625 104.765625 94.6728515625 104.765625 106.883789062 133.318359375 c 128,-1,42
 119.094726562 161.870117188 119.094726562 161.870117188 139.739257812 182.533203125 c 128,-1,43
 160.383789062 203.1953125 160.383789062 203.1953125 188.951171875 215.423828125 c 128,-1,44
 217.517578125 227.653320312 217.517578125 227.653320312 248.900390625 227.653320312 c 0,45,46
 287.580078125 227.653320312 287.580078125 227.653320312 321.646484375 209.421875 c 1,47,48
 294.126953125 183.287109375 294.126953125 183.287109375 278.70703125 148.08203125 c 128,-1,49
 263.286132812 112.876953125 263.286132812 112.876953125 263.286132812 73.42578125 c 128,-1,50
 263.286132812 33.974609375 263.286132812 33.974609375 278.708007812 -1.23046875 c 128,-1,51
 294.12890625 -36.435546875 294.12890625 -36.435546875 321.6484375 -62.5693359375 c 1,52,53
 287.58203125 -80.80078125 287.58203125 -80.80078125 248.900390625 -80.80078125 c 0,54,55
 217.545898438 -80.80078125 217.545898438 -80.80078125 188.986328125 -68.5791015625 c 128,-1,56
 160.427734375 -56.357421875 160.427734375 -56.357421875 139.772460938 -35.7021484375 c 128,-1,57
 119.1171875 -15.046875 119.1171875 -15.046875 106.89453125 13.51171875 c 128,-1,40
 94.6728515625 42.0703125 94.6728515625 42.0703125 94.6728515625 73.42578125 c 128,-1,41
359.765625 224.799804688 m 2,58,59
 310.266601562 261.057617188 310.266601562 261.057617188 248.3984375 261.057617188 c 0,60,61
 210.334960938 260.95703125 210.334960938 260.95703125 175.68359375 246.048828125 c 128,-1,62
 141.033203125 231.141601562 141.033203125 231.141601562 115.973632812 206.0234375 c 128,-1,63
 90.9140625 180.904296875 90.9140625 180.904296875 76.091796875 146.20703125 c 128,-1,64
 61.2685546875 111.509765625 61.2685546875 111.509765625 61.2685546875 73.42578125 c 128,-1,65
 61.2685546875 35.279296875 61.2685546875 35.279296875 76.1376953125 0.5341796875 c 128,-1,66
 91.0078125 -34.2109375 91.0078125 -34.2109375 116.13671875 -59.3388671875 c 128,-1,67
 141.265625 -84.466796875 141.265625 -84.466796875 176.009765625 -99.3359375 c 128,-1,68
 210.75390625 -114.206054688 210.75390625 -114.206054688 248.900390625 -114.206054688 c 0,69,70
 310.271484375 -114.206054688 310.271484375 -114.206054688 359.768554688 -77.9453125 c 2,71,-1
 378.173828125 -64.462890625 l 1,72,-1
 359.767578125 -50.98046875 l 2,73,74
 330.4921875 -29.537109375 330.4921875 -29.537109375 313.591796875 3.09765625 c 128,-1,75
 296.69140625 35.732421875 296.69140625 35.732421875 296.690429688 73.42578125 c 128,-1,76
 296.690429688 111.118164062 296.690429688 111.118164062 313.58984375 143.75390625 c 128,-1,77
 330.490234375 176.389648438 330.490234375 176.389648438 359.765625 197.834960938 c 2,78,-1
 378.169921875 211.317382812 l 1,79,-1
 359.765625 224.799804688 l 2,58,59
308.078125 -10.3798828125 m 0,80,81
 304.224609375 -10.3798828125 304.224609375 -10.3798828125 302.482421875 -15.2880859375 c 0,82,83
 301.522460938 -17.98828125 301.522460938 -17.98828125 300.704101562 -23.478515625 c 0,84,85
 299.564453125 -31.12109375 299.564453125 -31.12109375 297.978515625 -50.326171875 c 128,-1,86
 296.392578125 -69.5302734375 296.392578125 -69.5302734375 295.783203125 -74.98046875 c 1,87,88
 294.629882812 -60.9619140625 294.629882812 -60.9619140625 293.951171875 -37.3662109375 c 128,-1,89
 293.2734375 -13.7705078125 293.2734375 -13.7705078125 293.171875 2.81640625 c 2,90,-1
 293.069335938 19.40234375 l 2,91,92
 293.069335938 21.189453125 293.069335938 21.189453125 291.8046875 22.455078125 c 128,-1,93
 290.5390625 23.720703125 290.5390625 23.720703125 288.751953125 23.720703125 c 128,-1,94
 286.963867188 23.720703125 286.963867188 23.720703125 285.69921875 22.455078125 c 128,-1,95
 284.43359375 21.189453125 284.43359375 21.189453125 284.43359375 19.40234375 c 0,96,97
 284.43359375 -8.337890625 284.43359375 -8.337890625 285.233398438 -36.4189453125 c 0,98,99
 286.458984375 -79.443359375 286.458984375 -79.443359375 289.204101562 -91.18359375 c 0,100,101
 290.009765625 -94.634765625 290.009765625 -94.634765625 291.232421875 -96.244140625 c 0,102,103
 292.876953125 -98.4091796875 292.876953125 -98.4091796875 295.3828125 -98.4091796875 c 0,104,105
 298.1015625 -98.4091796875 298.1015625 -98.4091796875 299.90234375 -95.875 c 0,106,107
 300.75 -94.681640625 300.75 -94.681640625 301.408203125 -92.755859375 c 0,108,109
 302.477539062 -89.6279296875 302.477539062 -89.6279296875 303.390625 -83.556640625 c 0,110,111
 304.599609375 -75.517578125 304.599609375 -75.517578125 306.283203125 -55.4072265625 c 128,-1,112
 307.966796875 -35.296875 307.966796875 -35.296875 308.7265625 -28.96875 c 1,113,114
 309.556640625 -33.57421875 309.556640625 -33.57421875 311.334960938 -48 c 128,-1,115
 313.11328125 -62.42578125 313.11328125 -62.42578125 314.452148438 -68.2158203125 c 0,116,117
 315.421875 -72.41015625 315.421875 -72.41015625 316.649414062 -74.578125 c 0,118,119
 318.701171875 -78.201171875 318.701171875 -78.201171875 322.13671875 -78.201171875 c 0,120,121
 323.41796875 -78.201171875 323.41796875 -78.201171875 324.607421875 -77.630859375 c 0,122,123
 327.65234375 -76.169921875 327.65234375 -76.169921875 329.841796875 -72.26171875 c 0,124,125
 331.0625 -70.0830078125 331.0625 -70.0830078125 332.59375 -65.8515625 c 128,-1,126
 334.123046875 -61.62109375 334.123046875 -61.62109375 334.572265625 -60.58984375 c 1,127,128
 336.833984375 -62.982421875 336.833984375 -62.982421875 337.965820312 -65.8017578125 c 0,129,130
 338.823242188 -67.935546875 338.823242188 -67.935546875 338.823242188 -69.2373046875 c 0,131,132
 338.84765625 -71.005859375 338.84765625 -71.005859375 340.108398438 -72.2509765625 c 128,-1,133
 341.369140625 -73.49609375 341.369140625 -73.49609375 343.140625 -73.49609375 c 128,-1,134
 344.927734375 -73.49609375 344.927734375 -73.49609375 346.193359375 -72.23046875 c 128,-1,135
 347.458984375 -70.96484375 347.458984375 -70.96484375 347.458984375 -69.177734375 c 0,136,137
 347.458984375 -60.52734375 347.458984375 -60.52734375 339.23828125 -53.083984375 c 0,138,139
 336.731445312 -50.814453125 336.731445312 -50.814453125 334.00390625 -50.814453125 c 0,140,141
 330.2109375 -50.814453125 330.2109375 -50.814453125 327.762695312 -54.8525390625 c 0,142,143
 326.537109375 -56.875 326.537109375 -56.875 325.024414062 -61.1875 c 128,-1,144
 323.51171875 -65.5 323.51171875 -65.5 322.983398438 -66.677734375 c 1,145,146
 321.796875 -61.85546875 321.796875 -61.85546875 319.897460938 -46.439453125 c 0,147,148
 318.076171875 -31.654296875 318.076171875 -31.654296875 316.862304688 -25.49609375 c 0,149,150
 315.130859375 -16.7109375 315.130859375 -16.7109375 312.741210938 -13.1337890625 c 0,151,152
 310.90234375 -10.3798828125 310.90234375 -10.3798828125 308.078125 -10.3798828125 c 0,80,81
310.668945312 222.172851562 m 0,153,154
 307.822265625 223.24609375 307.822265625 223.24609375 305.423828125 221.255859375 c 0,155,156
 303.9296875 220.016601562 303.9296875 220.016601562 302.96875 217.458984375 c 0,157,158
 301.848632812 214.478515625 301.848632812 214.478515625 300.919921875 208.388671875 c 0,159,160
 299.551757812 199.4140625 299.551757812 199.4140625 297.712890625 176.482421875 c 128,-1,161
 295.873046875 153.55078125 295.873046875 153.55078125 294.927734375 145.924804688 c 1,162,163
 294.271484375 153.4296875 294.271484375 153.4296875 292.637695312 179.275390625 c 128,-1,164
 291.00390625 205.12109375 291.00390625 205.12109375 289.809570312 215.44140625 c 0,165,166
 288.91796875 223.15625 288.91796875 223.15625 287.891601562 226.954101562 c 0,167,168
 287.283203125 229.208984375 287.283203125 229.208984375 286.5 230.53125 c 0,169,170
 284.7890625 233.423828125 284.7890625 233.423828125 281.913085938 233.423828125 c 128,-1,171
 279.134765625 233.423828125 279.134765625 233.423828125 277.73046875 230.7890625 c 0,172,173
 277.048828125 229.508789062 277.048828125 229.508789062 276.591796875 226.840820312 c 0,174,175
 273.84765625 210.838867188 273.84765625 210.838867188 270.829101562 60.953125 c 0,176,177
 269.383789062 -10.822265625 269.383789062 -10.822265625 268.413085938 -43.171875 c 1,178,179
 267.39453125 -7.908203125 267.39453125 -7.908203125 265.87109375 73.625 c 0,180,181
 262.844726562 235.650390625 262.844726562 235.650390625 260.094726562 253.00390625 c 0,182,183
 259.421875 257.25 259.421875 257.25 257.8515625 258.69921875 c 0,184,185
 256.590820312 259.86328125 256.590820312 259.86328125 254.750976562 259.923828125 c 0,186,187
 251.958007812 259.923828125 251.958007812 259.923828125 250.55859375 257.267578125 c 0,188,189
 249.879882812 255.98046875 249.879882812 255.98046875 249.422851562 253.288085938 c 0,190,191
 246.668945312 237.05078125 246.668945312 237.05078125 243.643554688 85.037109375 c 0,192,193
 242.14453125 9.732421875 242.14453125 9.732421875 241.130859375 -23.494140625 c 1,194,195
 240.14453125 8.2294921875 240.14453125 8.2294921875 238.685546875 78.748046875 c 0,196,197
 235.663085938 224.831054688 235.663085938 224.831054688 232.911132812 240.447265625 c 0,198,199
 232.447265625 243.080078125 232.447265625 243.080078125 231.75 244.353515625 c 0,200,201
 230.141601562 247.29296875 230.141601562 247.29296875 227.020507812 246.899414062 c 0,202,203
 225.216796875 246.671875 225.216796875 246.671875 224.015625 245.216796875 c 128,-1,204
 222.850585938 243.806640625 222.850585938 243.806640625 222.25 240.2890625 c 0,205,206
 221.60546875 236.522460938 221.60546875 236.522460938 221.028320312 228.552734375 c 0,207,208
 219.896484375 212.935546875 219.896484375 212.935546875 218.87109375 178.840820312 c 0,209,210
 217.978515625 149.134765625 217.978515625 149.134765625 216.438476562 73.46484375 c 128,-1,211
 214.8984375 -2.2041015625 214.8984375 -2.2041015625 213.950195312 -32.8818359375 c 1,212,213
 212.961914062 -1.7626953125 212.961914062 -1.7626953125 211.499023438 67.51953125 c 0,214,215
 208.484375 210.2265625 208.484375 210.2265625 205.74609375 225.479492188 c 0,216,217
 205.280273438 228.07421875 205.280273438 228.07421875 204.57421875 229.338867188 c 0,218,219
 203.15625 231.8828125 203.15625 231.8828125 200.43359375 231.8828125 c 0,220,221
 197.43359375 231.8828125 197.43359375 231.8828125 196.053710938 228.874023438 c 0,222,223
 195.62109375 227.931640625 195.62109375 227.931640625 195.294921875 226.413085938 c 0,224,225
 194.741210938 223.845703125 194.741210938 223.845703125 194.248046875 218.649414062 c 0,226,227
 193.267578125 208.30078125 193.267578125 208.30078125 192.391601562 186.137695312 c 0,228,229
 191.1328125 154.330078125 191.1328125 154.330078125 189.3828125 72.197265625 c 128,-1,230
 187.633789062 -9.935546875 187.633789062 -9.935546875 186.784179688 -36.3994140625 c 1,231,232
 185.788085938 -6.2421875 185.788085938 -6.2421875 184.31640625 60.9736328125 c 0,233,234
 181.310546875 198.14453125 181.310546875 198.14453125 178.5859375 212.811523438 c 0,235,236
 178.115234375 215.34765625 178.115234375 215.34765625 177.392578125 216.598632812 c 0,237,238
 175.962890625 219.075195312 175.962890625 219.075195312 173.28515625 219.075195312 c 0,239,240
 172.220703125 219.075195312 172.220703125 219.075195312 171.265625 218.602539062 c 0,241,242
 169.671875 217.813476562 169.671875 217.813476562 168.844726562 215.96484375 c 0,243,244
 168.431640625 215.041015625 168.431640625 215.041015625 168.108398438 213.587890625 c 0,245,246
 167.5546875 211.096679688 167.5546875 211.096679688 167.061523438 206.1875 c 0,247,248
 166.08203125 196.434570312 166.08203125 196.434570312 165.206054688 175.834960938 c 0,249,250
 163.954101562 146.40234375 163.954101562 146.40234375 162.205078125 70.486328125 c 128,-1,251
 160.455078125 -5.4296875 160.455078125 -5.4296875 159.592773438 -30.162109375 c 1,252,253
 158.59765625 -3.068359375 158.59765625 -3.068359375 157.139648438 56.3515625 c 0,254,255
 154.150390625 178.251953125 154.150390625 178.251953125 151.439453125 191.331054688 c 0,256,257
 150.944335938 193.71875 150.944335938 193.71875 150.162109375 194.935546875 c 0,258,259
 148.705078125 197.196289062 148.705078125 197.196289062 146.16796875 197.196289062 c 0,260,261
 144.627929688 197.196289062 144.627929688 197.196289062 143.3828125 196.255859375 c 128,-1,262
 142.28515625 195.42578125 142.28515625 195.42578125 141.642578125 193.963867188 c 0,263,264
 141.248046875 193.0703125 141.248046875 193.0703125 140.930664062 191.721679688 c 0,265,266
 140.375 189.360351562 140.375 189.360351562 139.880859375 184.91796875 c 0,267,268
 138.90234375 176.123046875 138.90234375 176.123046875 138.02734375 157.965820312 c 0,269,270
 136.7890625 132.274414062 136.7890625 132.274414062 135.0625 66.96875 c 128,-1,271
 133.336914062 1.6640625 133.336914062 1.6640625 132.5234375 -19.306640625 c 1,272,273
 131.569335938 4.541015625 131.569335938 4.541015625 130.03125 63.029296875 c 128,-1,274
 128.494140625 121.516601562 128.494140625 121.516601562 127.61328125 144.349609375 c 0,275,276
 126.828125 164.696289062 126.828125 164.696289062 125.9921875 176.161132812 c 0,277,278
 125.333984375 185.2109375 125.333984375 185.2109375 124.592773438 189.439453125 c 0,279,280
 124.07421875 192.397460938 124.07421875 192.397460938 123.314453125 193.783203125 c 0,281,282
 121.869140625 196.421875 121.869140625 196.421875 119.08984375 196.421875 c 0,283,284
 116.94140625 196.421875 116.94140625 196.421875 115.4921875 194.713867188 c 0,285,286
 114.421875 193.451171875 114.421875 193.451171875 113.767578125 190.921875 c 0,287,288
 113.211914062 188.7734375 113.211914062 188.7734375 112.716796875 185.052734375 c 0,289,290
 111.7421875 177.739257812 111.7421875 177.739257812 110.87109375 163.3671875 c 0,291,292
 109.657226562 143.356445312 109.657226562 143.356445312 107.94140625 92.1796875 c 128,-1,293
 106.2265625 41.0029296875 106.2265625 41.0029296875 105.338867188 23.7421875 c 1,294,295
 104.470703125 37.609375 104.470703125 37.609375 103.005859375 71.3466796875 c 128,-1,296
 101.541015625 105.083984375 101.541015625 105.083984375 100.686523438 118.75390625 c 0,297,298
 99.755859375 133.625 99.755859375 133.625 98.744140625 140.440429688 c 0,299,300
 98.193359375 144.15234375 98.193359375 144.15234375 97.53125 146.036132812 c 128,-1,301
 96.8828125 147.8828125 96.8828125 147.8828125 95.779296875 148.896484375 c 0,302,303
 94.384765625 150.176757812 94.384765625 150.176757812 92.5458984375 150.176757812 c 0,304,305
 90.4150390625 150.176757812 90.4150390625 150.176757812 88.91796875 148.505859375 c 0,306,307
 88.15234375 147.65234375 88.15234375 147.65234375 87.5947265625 146.291015625 c 0,308,309
 85.4775390625 141.12109375 85.4775390625 141.12109375 84.01171875 126.662109375 c 128,-1,310
 82.5419921875 112.177734375 82.5419921875 112.177734375 81.64453125 88.345703125 c 0,311,312
 80.4755859375 57.310546875 80.4755859375 57.310546875 80.4755859375 25.609375 c 0,313,314
 80.4755859375 23.8212890625 80.4755859375 23.8212890625 81.740234375 22.556640625 c 128,-1,315
 83.005859375 21.291015625 83.005859375 21.291015625 84.7939453125 21.291015625 c 128,-1,316
 86.5810546875 21.291015625 86.5810546875 21.291015625 87.8466796875 22.556640625 c 128,-1,317
 89.111328125 23.8212890625 89.111328125 23.8212890625 89.111328125 25.609375 c 0,318,319
 89.1142578125 57.20703125 89.1142578125 57.20703125 90.2744140625 88.015625 c 0,320,321
 90.966796875 106.397460938 90.966796875 106.397460938 92.005859375 119.182617188 c 1,322,323
 92.837890625 106.150390625 92.837890625 106.150390625 94.5 67.6201171875 c 128,-1,324
 96.1640625 29.08984375 96.1640625 29.08984375 97.3369140625 13.5986328125 c 0,325,326
 98.2021484375 2.1748046875 98.2021484375 2.1748046875 99.166015625 -4.001953125 c 0,327,328
 99.65625 -7.150390625 99.65625 -7.150390625 100.204101562 -9.138671875 c 128,-1,329
 100.775390625 -11.21484375 100.775390625 -11.21484375 101.546875 -12.423828125 c 0,330,331
 103.080078125 -14.826171875 103.080078125 -14.826171875 105.694335938 -14.826171875 c 0,332,333
 109.474609375 -14.826171875 109.474609375 -14.826171875 110.833007812 -9.990234375 c 0,334,335
 111.490234375 -7.654296875 111.490234375 -7.654296875 112.0546875 -2.8779296875 c 0,336,337
 113.123046875 6.173828125 113.123046875 6.173828125 114.098632812 25.9833984375 c 0,338,339
 114.98046875 43.8828125 114.98046875 43.8828125 116.446289062 87.359375 c 128,-1,340
 117.912109375 130.837890625 117.912109375 130.837890625 118.7578125 148.416015625 c 1,341,342
 119.682617188 125.909179688 119.682617188 125.909179688 121.443359375 59.34765625 c 128,-1,343
 123.204101562 -7.212890625 123.204101562 -7.212890625 124.4375 -32.884765625 c 0,344,345
 125.310546875 -51.05859375 125.310546875 -51.05859375 126.286132812 -59.9541015625 c 0,346,347
 126.77734375 -64.4375 126.77734375 -64.4375 127.326171875 -66.8583984375 c 0,348,349
 127.6328125 -68.2060546875 127.6328125 -68.2060546875 128 -69.1044921875 c 0,350,351
 129.411132812 -72.5498046875 129.411132812 -72.5498046875 132.625 -72.5498046875 c 0,352,353
 135.404296875 -72.5498046875 135.404296875 -72.5498046875 136.853515625 -69.91015625 c 0,354,355
 137.6171875 -68.515625 137.6171875 -68.515625 138.139648438 -65.5390625 c 0,356,357
 138.88671875 -61.27734375 138.88671875 -61.27734375 139.55078125 -52.15625 c 0,358,359
 140.393554688 -40.603515625 140.393554688 -40.603515625 141.18359375 -20.1015625 c 0,360,361
 142.072265625 2.9296875 142.072265625 2.9296875 143.59375 60.923828125 c 128,-1,362
 145.115234375 118.916015625 145.115234375 118.916015625 146.0390625 142.489257812 c 1,363,364
 146.88671875 119.745117188 146.88671875 119.745117188 148.627929688 49.8125 c 128,-1,365
 150.369140625 -20.119140625 150.369140625 -20.119140625 151.615234375 -47.396484375 c 0,366,367
 152.491210938 -66.55859375 152.491210938 -66.55859375 153.470703125 -75.7314453125 c 0,368,369
 153.965820312 -80.3623046875 153.965820312 -80.3623046875 154.521484375 -82.763671875 c 0,370,371
 154.845703125 -84.16015625 154.845703125 -84.16015625 155.251953125 -85.0634765625 c 0,372,373
 155.989257812 -86.705078125 155.989257812 -86.705078125 157.325195312 -87.5244140625 c 0,374,375
 158.4296875 -88.203125 158.4296875 -88.203125 159.719726562 -88.203125 c 0,376,377
 162.3515625 -88.203125 162.3515625 -88.203125 163.791015625 -85.796875 c 0,378,379
 164.53125 -84.5595703125 164.53125 -84.5595703125 165.009765625 -82.07421875 c 0,380,381
 167.727539062 -67.962890625 167.727539062 -67.962890625 170.7265625 63.916015625 c 0,382,383
 172.204101562 128.8984375 172.204101562 128.8984375 173.206054688 158.047851562 c 1,384,385
 174.05078125 132.669921875 174.05078125 132.669921875 175.796875 54.009765625 c 128,-1,386
 177.54296875 -24.650390625 177.54296875 -24.650390625 178.798828125 -55.2080078125 c 0,387,388
 179.673828125 -76.53515625 179.673828125 -76.53515625 180.655273438 -86.564453125 c 0,389,390
 181.1484375 -91.60546875 181.1484375 -91.60546875 181.702148438 -94.1298828125 c 0,391,392
 182.611328125 -98.2724609375 182.611328125 -98.2724609375 185.205078125 -99.28515625 c 0,393,394
 186 -99.595703125 186 -99.595703125 186.856445312 -99.595703125 c 0,395,396
 189.583007812 -99.595703125 189.583007812 -99.595703125 191 -97.04296875 c 0,397,398
 191.703125 -95.7783203125 191.703125 -95.7783203125 192.166015625 -93.1826171875 c 0,399,400
 194.896484375 -77.900390625 194.896484375 -77.900390625 197.90625 65.1640625 c 0,401,402
 199.400390625 136.198242188 199.400390625 136.198242188 200.41015625 167.6484375 c 1,403,404
 201.23828125 141.68359375 201.23828125 141.68359375 202.981445312 60.177734375 c 128,-1,405
 204.724609375 -21.328125 204.724609375 -21.328125 205.985351562 -53 c 0,406,407
 206.86328125 -75.052734375 206.86328125 -75.052734375 207.844726562 -85.294921875 c 0,408,409
 208.337890625 -90.44921875 208.337890625 -90.44921875 208.89453125 -92.974609375 c 0,410,411
 210.078125 -98.341796875 210.078125 -98.341796875 214.009765625 -98.341796875 c 0,412,413
 216.788085938 -98.341796875 216.788085938 -98.341796875 218.190429688 -95.7109375 c 0,414,415
 218.874023438 -94.431640625 218.874023438 -94.431640625 219.33203125 -91.7666015625 c 0,416,417
 222.07421875 -75.796875 222.07421875 -75.796875 225.092773438 73.796875 c 0,418,419
 226.591796875 148.111328125 226.591796875 148.111328125 227.602539062 180.844726562 c 1,420,421
 228.591796875 149.07421875 228.591796875 149.07421875 230.05078125 78.56640625 c 0,422,423
 233.078125 -67.7255859375 233.078125 -67.7255859375 235.8359375 -83.48046875 c 0,424,425
 236.296875 -86.11328125 236.296875 -86.11328125 236.98046875 -87.390625 c 0,426,427
 238.32421875 -89.90234375 238.32421875 -89.90234375 240.962890625 -90.021484375 c 0,428,429
 243.860351562 -90.15234375 243.860351562 -90.15234375 245.333984375 -87.4248046875 c 0,430,431
 246.029296875 -86.138671875 246.029296875 -86.138671875 246.490234375 -83.439453125 c 0,432,433
 249.25 -67.296875 249.25 -67.296875 252.278320312 84.8623046875 c 0,434,435
 253.723632812 157.51171875 253.723632812 157.51171875 254.6953125 190.25390625 c 1,436,437
 255.713867188 154.98828125 255.713867188 154.98828125 257.236328125 73.4609375 c 0,438,439
 260.259765625 -88.34765625 260.259765625 -88.34765625 263.001953125 -105.583984375 c 0,440,441
 263.680664062 -109.852539062 263.680664062 -109.852539062 265.30078125 -111.293945312 c 128,-1,442
 266.8359375 -112.66015625 266.8359375 -112.66015625 268.853515625 -112.428710938 c 128,-1,443
 270.676757812 -112.219726562 270.676757812 -112.219726562 271.895507812 -110.755859375 c 128,-1,444
 273.068359375 -109.345703125 273.068359375 -109.345703125 273.671875 -105.819335938 c 0,445,446
 274.314453125 -102.05078125 274.314453125 -102.05078125 274.892578125 -94.072265625 c 0,447,448
 276.025390625 -78.439453125 276.025390625 -78.439453125 277.049804688 -44.283203125 c 0,449,450
 277.762695312 -20.5380859375 277.762695312 -20.5380859375 279.639648438 70.576171875 c 128,-1,451
 281.516601562 161.690429688 281.516601562 161.690429688 282.9453125 194.889648438 c 1,452,453
 283.212890625 191.13671875 283.212890625 191.13671875 284.432617188 171.865234375 c 128,-1,454
 285.65234375 152.594726562 285.65234375 152.594726562 286.419921875 144.088867188 c 0,455,456
 287.327148438 134.043945312 287.327148438 134.043945312 288.314453125 129.370117188 c 0,457,458
 289.048828125 125.897460938 289.048828125 125.897460938 290.12109375 124.297851562 c 0,459,460
 291.724609375 121.904296875 291.724609375 121.904296875 294.362304688 121.904296875 c 0,461,462
 296.439453125 121.904296875 296.439453125 121.904296875 297.971679688 123.485351562 c 0,463,464
 298.837890625 124.377929688 298.837890625 124.377929688 299.497070312 125.85546875 c 0,465,466
 301.681640625 130.755859375 301.681640625 130.755859375 303.3359375 143.56640625 c 0,467,468
 304.39453125 151.760742188 304.39453125 151.760742188 306.293945312 175.014648438 c 128,-1,469
 308.193359375 198.267578125 308.193359375 198.267578125 309.483398438 206.990234375 c 1,470,471
 309.982421875 204.703125 309.982421875 204.703125 311.515625 195.717773438 c 128,-1,472
 313.046875 186.732421875 313.046875 186.732421875 314.17578125 182.993164062 c 128,-1,473
 315.33203125 179.158203125 315.33203125 179.158203125 316.997070312 177.431640625 c 128,-1,474
 318.787109375 175.573242188 318.787109375 175.573242188 321.1796875 175.573242188 c 0,475,476
 323.87109375 175.573242188 323.87109375 175.573242188 325.989257812 177.983398438 c 0,477,478
 328.434570312 180.767578125 328.434570312 180.767578125 330.244140625 186.4609375 c 0,479,480
 331.34765625 189.93359375 331.34765625 189.93359375 332.931640625 197.564453125 c 128,-1,481
 334.514648438 205.1953125 334.514648438 205.1953125 335.392578125 208.163085938 c 0,482,483
 335.65625 209.055664062 335.65625 209.055664062 335.987304688 209.89453125 c 1,484,485
 338.486328125 207.90625 338.486328125 207.90625 338.826171875 205.904296875 c 0,486,487
 338.900390625 204.178710938 338.900390625 204.178710938 340.15234375 202.9765625 c 128,-1,488
 341.404296875 201.774414062 341.404296875 201.774414062 343.140625 201.774414062 c 128,-1,489
 344.927734375 201.774414062 344.927734375 201.774414062 346.193359375 203.0390625 c 128,-1,490
 347.458984375 204.3046875 347.458984375 204.3046875 347.458984375 206.092773438 c 0,491,492
 347.458984375 207.181640625 347.458984375 207.181640625 347.05859375 208.7578125 c 128,-1,493
 346.66015625 210.333984375 346.66015625 210.333984375 344.462890625 213.3515625 c 128,-1,494
 342.266601562 216.369140625 342.266601562 216.369140625 338.547851562 218.5859375 c 0,495,496
 336.909179688 219.563476562 336.909179688 219.563476562 335.150390625 219.563476562 c 0,497,498
 330.40625 219.563476562 330.40625 219.563476562 327.916992188 213.034179688 c 0,499,500
 326.556640625 209.466796875 326.556640625 209.466796875 324.763671875 200.780273438 c 128,-1,501
 322.970703125 192.09375 322.970703125 192.09375 322.01171875 189.076171875 c 1,502,503
 321.844726562 189.857421875 321.844726562 189.857421875 321.029296875 193.064453125 c 128,-1,504
 320.21484375 196.26953125 320.21484375 196.26953125 319.89453125 198.163085938 c 0,505,506
 318.041992188 209.116210938 318.041992188 209.116210938 316.780273438 213.358398438 c 0,507,508
 315.775390625 216.732421875 315.775390625 216.732421875 314.556640625 218.715820312 c 0,509,510
 312.962890625 221.30859375 312.962890625 221.30859375 310.668945312 222.172851562 c 0,153,154
EndSplineSet
Fore
SplineSet
605.1484375 173.42578125 m 128,-1,1
 605.1484375 142.04296875 605.1484375 142.04296875 592.935546875 113.482421875 c 128,-1,2
 580.72265625 84.919921875 580.72265625 84.919921875 560.07421875 64.2705078125 c 128,-1,3
 539.423828125 43.62109375 539.423828125 43.62109375 510.862304688 31.408203125 c 128,-1,4
 482.30078125 19.1953125 482.30078125 19.1953125 450.918945312 19.1953125 c 0,5,6
 412.298828125 19.1953125 412.298828125 19.1953125 378.1796875 37.43359375 c 1,7,8
 406.041015625 63.91015625 406.041015625 63.91015625 421.288085938 99.318359375 c 128,-1,9
 436.53515625 134.725585938 436.53515625 134.725585938 436.53515625 173.42578125 c 128,-1,10
 436.53515625 212.124023438 436.53515625 212.124023438 421.288085938 247.53125 c 128,-1,11
 406.041015625 282.939453125 406.041015625 282.939453125 378.1796875 309.416015625 c 1,12,13
 412.297851562 327.653320312 412.297851562 327.653320312 450.919921875 327.653320312 c 0,14,15
 482.301757812 327.653320312 482.301757812 327.653320312 510.86328125 315.44140625 c 128,-1,16
 539.423828125 303.228515625 539.423828125 303.228515625 560.07421875 282.579101562 c 128,-1,17
 580.723632812 261.9296875 580.723632812 261.9296875 592.935546875 233.368164062 c 128,-1,0
 605.1484375 204.806640625 605.1484375 204.806640625 605.1484375 173.42578125 c 128,-1,1
112.520507812 101.633789062 m 1,18,19
 113.337890625 110.5390625 113.337890625 110.5390625 114.098632812 125.983398438 c 0,20,21
 114.98046875 143.8828125 114.98046875 143.8828125 116.446289062 187.359375 c 128,-1,22
 117.912109375 230.837890625 117.912109375 230.837890625 118.7578125 248.416015625 c 1,23,24
 119.682617188 225.909179688 119.682617188 225.909179688 121.443359375 159.34765625 c 0,25,26
 122.74609375 110.115234375 122.74609375 110.115234375 123.759765625 83.2529296875 c 1,27,28
 117.58984375 91.927734375 117.58984375 91.927734375 112.520507812 101.633789062 c 1,18,19
140.478515625 63.5966796875 m 1,29,30
 140.8359375 70.8818359375 140.8359375 70.8818359375 141.18359375 79.8984375 c 0,31,32
 142.072265625 102.9296875 142.072265625 102.9296875 143.59375 160.923828125 c 128,-1,33
 145.115234375 218.916015625 145.115234375 218.916015625 146.0390625 242.489257812 c 1,34,35
 146.88671875 219.745117188 146.88671875 219.745117188 148.627929688 149.8125 c 0,36,37
 150.333984375 81.275390625 150.333984375 81.275390625 151.565429688 53.7080078125 c 1,38,39
 145.766601562 58.3798828125 145.766601562 58.3798828125 140.478515625 63.5966796875 c 1,29,30
166.9765625 42.8115234375 m 1,40,41
 168.79296875 78.8837890625 168.79296875 78.8837890625 170.7265625 163.916015625 c 0,42,43
 172.204101562 228.8984375 172.204101562 228.8984375 173.206054688 258.047851562 c 1,44,45
 174.05078125 232.669921875 174.05078125 232.669921875 175.796875 154.009765625 c 128,-1,46
 177.54296875 75.349609375 177.54296875 75.349609375 178.798828125 44.7919921875 c 0,47,48
 178.991210938 40.1142578125 178.991210938 40.1142578125 179.1875 35.9794921875 c 1,49,50
 172.868164062 39.1669921875 172.868164062 39.1669921875 166.9765625 42.8115234375 c 1,40,41
193.927734375 29.4052734375 m 1,51,52
 195.852539062 67.5263671875 195.852539062 67.5263671875 197.90625 165.1640625 c 0,53,54
 199.400390625 236.198242188 199.400390625 236.198242188 200.41015625 267.6484375 c 1,55,56
 201.23828125 241.68359375 201.23828125 241.68359375 202.981445312 160.177734375 c 128,-1,57
 204.724609375 78.671875 204.724609375 78.671875 205.985351562 47 c 0,58,59
 206.505859375 33.916015625 206.505859375 33.916015625 207.063476562 24.9892578125 c 1,60,61
 200.424804688 26.88671875 200.424804688 26.88671875 193.927734375 29.4052734375 c 1,51,52
220.556640625 21.8017578125 m 1,62,63
 222.741210938 57.236328125 222.741210938 57.236328125 225.092773438 173.796875 c 0,64,65
 226.591796875 248.111328125 226.591796875 248.111328125 227.602539062 280.844726562 c 1,66,67
 228.591796875 249.07421875 228.591796875 249.07421875 230.05078125 178.56640625 c 0,68,69
 232.841796875 43.69921875 232.841796875 43.69921875 235.403320312 19.7763671875 c 1,70,71
 227.896484375 20.4248046875 227.896484375 20.4248046875 220.556640625 21.8017578125 c 1,62,63
246.84765625 19.2119140625 m 1,72,73
 249.4453125 42.5283203125 249.4453125 42.5283203125 252.278320312 184.862304688 c 0,74,75
 253.723632812 257.51171875 253.723632812 257.51171875 254.6953125 290.25390625 c 1,76,77
 255.713867188 254.98828125 255.713867188 254.98828125 257.236328125 173.4609375 c 0,78,79
 259.305664062 62.689453125 259.305664062 62.689453125 261.244140625 19.6728515625 c 1,80,81
 255.131835938 19.19921875 255.131835938 19.19921875 248.900390625 19.19921875 c 0,82,83
 247.873046875 19.19921875 247.873046875 19.19921875 246.84765625 19.2119140625 c 1,72,73
295.938476562 26.4775390625 m 0,84,85
 295.805664062 26.4345703125 295.805664062 26.4345703125 295.672851562 26.392578125 c 1,86,87
 294.59765625 40.1748046875 294.59765625 40.1748046875 293.951171875 62.6337890625 c 0,88,89
 293.829101562 66.8828125 293.829101562 66.8828125 293.725585938 70.904296875 c 1,90,91
 296.34375 66.8896484375 296.34375 66.8896484375 299.16015625 63.0224609375 c 0,92,93
 298.603515625 57.2470703125 298.603515625 57.2470703125 297.978515625 49.673828125 c 0,94,95
 296.577148438 32.708984375 296.577148438 32.708984375 295.938476562 26.4775390625 c 0,84,85
287.1875 23.94921875 m 1,96,97
 281.541992188 22.5029296875 281.541992188 22.5029296875 275.786132812 21.4970703125 c 1,98,99
 276.4375 35.296875 276.4375 35.296875 277.049804688 55.716796875 c 0,100,101
 277.4296875 68.3564453125 277.4296875 68.3564453125 278.138671875 100.083007812 c 1,102,103
 278.420898438 99.42578125 278.420898438 99.42578125 278.708007812 98.76953125 c 0,104,105
 281.512695312 92.3671875 281.512695312 92.3671875 284.716796875 86.2646484375 c 0,106,107
 284.909179688 74.951171875 284.909179688 74.951171875 285.233398438 63.5810546875 c 0,108,109
 285.950195312 38.412109375 285.950195312 38.412109375 287.1875 23.94921875 c 1,96,97
304.939453125 29.693359375 m 1,110,111
 305.568359375 36.0556640625 305.568359375 36.0556640625 306.283203125 44.5927734375 c 0,112,113
 306.665039062 49.150390625 306.665039062 49.150390625 306.999023438 53 c 1,114,115
 309.401367188 50.1357421875 309.401367188 50.1357421875 311.924804688 47.3623046875 c 0,116,117
 313.095703125 38.4521484375 313.095703125 38.4521484375 314.059570312 33.6220703125 c 1,118,119
 309.5390625 31.501953125 309.5390625 31.501953125 304.939453125 29.693359375 c 1,110,111
270.040039062 123.069335938 m 0,120,121
 269.10546875 79.912109375 269.10546875 79.912109375 268.413085938 56.828125 c 1,122,123
 267.6328125 83.837890625 267.6328125 83.837890625 266.556640625 137.991210938 c 1,124,125
 267.986328125 130.444335938 267.986328125 130.444335938 270.040039062 123.069335938 c 0,120,121
272.426757812 231.65625 m 1,126,127
 267.607421875 216.969726562 267.607421875 216.969726562 265.329101562 201.583007812 c 1,128,129
 263.556640625 289.577148438 263.556640625 289.577148438 261.880859375 327.129882812 c 1,130,131
 269.20703125 326.532226562 269.20703125 326.532226562 276.360351562 325.25390625 c 1,132,133
 274.458984375 310.319335938 274.458984375 310.319335938 272.426757812 231.65625 c 1,126,127
298.208984375 282.513671875 m 0,134,135
 295.47265625 278.685546875 295.47265625 278.685546875 292.927734375 274.71484375 c 1,136,137
 292.787109375 276.918945312 292.787109375 276.918945312 292.637695312 279.275390625 c 0,138,139
 291.00390625 305.12109375 291.00390625 305.12109375 289.809570312 315.44140625 c 0,140,141
 289.340820312 319.497070312 289.340820312 319.497070312 288.834960938 322.470703125 c 1,142,143
 296.072265625 320.528320312 296.072265625 320.528320312 303.125 317.858398438 c 1,144,145
 303.044921875 317.663085938 303.044921875 317.663085938 302.96875 317.458984375 c 0,146,147
 301.848632812 314.478515625 301.848632812 314.478515625 300.919921875 308.388671875 c 0,148,149
 299.739257812 300.645507812 299.739257812 300.645507812 298.208984375 282.513671875 c 0,134,135
281.598632812 254.383789062 m 1,150,151
 282.315429688 280.259765625 282.315429688 280.259765625 282.9453125 294.889648438 c 1,152,153
 283.212890625 291.13671875 283.212890625 291.13671875 284.432617188 271.865234375 c 0,154,155
 284.795898438 266.130859375 284.795898438 266.130859375 285.118164062 261.349609375 c 0,156,157
 283.294921875 257.915039062 283.294921875 257.915039062 281.598632812 254.383789062 c 1,150,151
308.091796875 295.146484375 m 1,158,159
 308.859375 302.76953125 308.859375 302.76953125 309.483398438 306.990234375 c 1,160,161
 309.899414062 305.08203125 309.899414062 305.08203125 311.036132812 298.508789062 c 0,162,163
 309.54296875 296.84375 309.54296875 296.84375 308.091796875 295.146484375 c 1,158,159
318.421875 306.287109375 m 1,164,165
 317.779296875 309.532226562 317.779296875 309.532226562 317.232421875 311.698242188 c 1,166,167
 319.44921875 310.59765625 319.44921875 310.59765625 321.646484375 309.421875 c 1,168,169
 320.012695312 307.870117188 320.012695312 307.870117188 318.421875 306.287109375 c 1,164,165
247.569335938 327.647460938 m 1,170,171
 245.666992188 286.71484375 245.666992188 286.71484375 243.643554688 185.037109375 c 0,172,173
 242.14453125 109.732421875 242.14453125 109.732421875 241.130859375 76.505859375 c 1,174,175
 240.14453125 108.229492188 240.14453125 108.229492188 238.685546875 178.748046875 c 0,176,177
 236.337890625 292.204101562 236.337890625 292.204101562 234.154296875 326.963867188 c 1,178,179
 240.795898438 327.591796875 240.795898438 327.591796875 247.569335938 327.647460938 c 1,170,171
220.793945312 325.096679688 m 1,180,181
 219.790039062 309.3828125 219.790039062 309.3828125 218.87109375 278.840820312 c 0,182,183
 217.978515625 249.134765625 217.978515625 249.134765625 216.438476562 173.46484375 c 128,-1,184
 214.8984375 97.7958984375 214.8984375 97.7958984375 213.950195312 67.1181640625 c 1,185,186
 212.961914062 98.2373046875 212.961914062 98.2373046875 211.499023438 167.51953125 c 0,187,188
 208.759765625 297.200195312 208.759765625 297.200195312 206.248046875 321.6328125 c 1,189,190
 213.436523438 323.73046875 213.436523438 323.73046875 220.793945312 325.096679688 c 1,180,181
194.146484375 317.538085938 m 1,191,192
 193.221679688 307.14453125 193.221679688 307.14453125 192.391601562 286.137695312 c 0,193,194
 191.1328125 254.330078125 191.1328125 254.330078125 189.3828125 172.197265625 c 128,-1,195
 187.633789062 90.064453125 187.633789062 90.064453125 186.784179688 63.6005859375 c 1,196,197
 185.788085938 93.7578125 185.788085938 93.7578125 184.31640625 160.973632812 c 0,198,199
 181.482421875 290.306640625 181.482421875 290.306640625 178.8984375 310.735351562 c 1,200,201
 183.795898438 313.216796875 183.795898438 313.216796875 188.951171875 315.423828125 c 0,202,203
 191.537109375 316.53125 191.537109375 316.53125 194.146484375 317.538085938 c 1,191,192
166.853515625 303.975585938 m 1,204,205
 165.98828125 294.23046875 165.98828125 294.23046875 165.206054688 275.834960938 c 0,206,207
 163.954101562 246.40234375 163.954101562 246.40234375 162.205078125 170.486328125 c 128,-1,208
 160.455078125 94.5703125 160.455078125 94.5703125 159.592773438 69.837890625 c 1,209,210
 158.59765625 96.931640625 158.59765625 96.931640625 157.139648438 156.3515625 c 0,211,212
 154.150390625 278.251953125 154.150390625 278.251953125 151.439453125 291.331054688 c 0,213,214
 151.27734375 292.112304688 151.27734375 292.112304688 151.084960938 292.768554688 c 0,215,216
 158.541992188 298.826171875 158.541992188 298.826171875 166.853515625 303.975585938 c 1,204,205
139.623046875 282.416015625 m 1,217,218
 138.786132812 273.7109375 138.786132812 273.7109375 138.02734375 257.965820312 c 0,219,220
 136.7890625 232.274414062 136.7890625 232.274414062 135.0625 166.96875 c 128,-1,221
 133.336914062 101.6640625 133.336914062 101.6640625 132.5234375 80.693359375 c 1,222,223
 131.569335938 104.541015625 131.569335938 104.541015625 130.03125 163.029296875 c 128,-1,224
 128.494140625 221.516601562 128.494140625 221.516601562 127.61328125 244.349609375 c 0,225,226
 127.092773438 257.826171875 127.092773438 257.826171875 126.55078125 267.40625 c 1,227,228
 132.59765625 275.369140625 132.59765625 275.369140625 139.623046875 282.416015625 c 1,217,218
109.69921875 239.560546875 m 1,229,230
 108.8984375 220.71484375 108.8984375 220.71484375 107.94140625 192.1796875 c 0,231,232
 106.2265625 141.002929688 106.2265625 141.002929688 105.338867188 123.7421875 c 1,233,234
 104.470703125 137.609375 104.470703125 137.609375 103.005859375 171.346679688 c 0,235,236
 101.655273438 202.459960938 101.655273438 202.459960938 100.823242188 216.505859375 c 0,237,238
 103.338867188 225.029296875 103.338867188 225.029296875 106.883789062 233.318359375 c 0,239,240
 108.239257812 236.48828125 108.239257812 236.48828125 109.69921875 239.560546875 c 1,229,230
349.91015625 15.2685546875 m 1,241,242
 395.588867188 -14.2060546875 395.588867188 -14.2060546875 450.918945312 -14.208984375 c 0,243,244
 489.088867188 -14.208984375 489.088867188 -14.208984375 523.8359375 0.65234375 c 128,-1,245
 558.58203125 15.513671875 558.58203125 15.513671875 583.70703125 40.6376953125 c 128,-1,246
 608.830078125 65.76171875 608.830078125 65.76171875 623.69140625 100.508789062 c 128,-1,247
 638.552734375 135.255859375 638.552734375 135.255859375 638.552734375 173.42578125 c 128,-1,248
 638.552734375 211.595703125 638.552734375 211.595703125 623.69140625 246.341796875 c 128,-1,249
 608.830078125 281.087890625 608.830078125 281.087890625 583.706054688 306.212890625 c 128,-1,250
 558.58203125 331.3359375 558.58203125 331.3359375 523.834960938 346.197265625 c 128,-1,251
 489.087890625 361.057617188 489.087890625 361.057617188 450.91796875 361.057617188 c 0,252,253
 395.591796875 361.057617188 395.591796875 361.057617188 349.91015625 331.580078125 c 1,254,255
 304.182617188 361.057617188 304.182617188 361.057617188 248.3984375 361.057617188 c 0,256,257
 210.334960938 360.95703125 210.334960938 360.95703125 175.68359375 346.048828125 c 128,-1,258
 141.033203125 331.141601562 141.033203125 331.141601562 115.973632812 306.0234375 c 128,-1,259
 90.9140625 280.904296875 90.9140625 280.904296875 76.091796875 246.20703125 c 128,-1,260
 61.2685546875 211.509765625 61.2685546875 211.509765625 61.2685546875 173.42578125 c 128,-1,261
 61.2685546875 135.279296875 61.2685546875 135.279296875 76.1376953125 100.534179688 c 128,-1,262
 91.0078125 65.7890625 91.0078125 65.7890625 116.13671875 40.6611328125 c 128,-1,263
 141.265625 15.533203125 141.265625 15.533203125 176.009765625 0.6640625 c 128,-1,264
 210.75390625 -14.2060546875 210.75390625 -14.2060546875 248.900390625 -14.2060546875 c 0,265,266
 304.231445312 -14.2060546875 304.231445312 -14.2060546875 349.91015625 15.2685546875 c 1,241,242
349.916992188 56.853515625 m 1,267,268
 327.540039062 76.1640625 327.540039062 76.1640625 313.591796875 103.09765625 c 0,269,270
 296.69140625 135.732421875 296.69140625 135.732421875 296.690429688 173.42578125 c 128,-1,271
 296.690429688 211.118164062 296.690429688 211.118164062 313.58984375 243.75390625 c 0,272,273
 327.537109375 270.6875 327.537109375 270.6875 349.913085938 289.999023438 c 1,274,275
 372.643554688 270.399414062 372.643554688 270.399414062 386.44921875 243.173828125 c 0,276,277
 403.130859375 210.27734375 403.130859375 210.27734375 403.130859375 173.42578125 c 128,-1,278
 403.130859375 136.572265625 403.130859375 136.572265625 386.44921875 103.67578125 c 0,279,280
 372.64453125 76.4541015625 372.64453125 76.4541015625 349.916992188 56.853515625 c 1,267,268
EndSplineSet
EndChar

